<svg width="328" height="219" viewBox="0 0 328 219" fill="none" xmlns="http://www.w3.org/2000/svg"><path d="M302.479 217.175L301.948 216.33C301.696 216.489 301.423 216.561 301.149 216.562C300.899 216.562 300.65 216.499 300.43 216.38C300.21 216.261 300.02 216.089 299.875 215.859V215.858C299.716 215.606 299.643 215.333 299.643 215.059C299.643 214.809 299.705 214.56 299.824 214.34C299.943 214.12 300.116 213.93 300.345 213.785C300.597 213.628 300.869 213.555 301.143 213.554C301.393 213.554 301.643 213.617 301.863 213.736C302.083 213.855 302.274 214.028 302.419 214.257L302.419 214.258C302.577 214.509 302.65 214.782 302.65 215.056C302.651 215.306 302.588 215.555 302.469 215.775C302.349 215.996 302.177 216.187 301.948 216.331L301.948 216.33L302.479 217.175L303.011 218.02C303.537 217.69 303.949 217.236 304.225 216.724C304.502 216.21 304.646 215.637 304.646 215.056C304.647 214.42 304.472 213.77 304.108 213.195L304.109 213.195C303.778 212.669 303.325 212.256 302.812 211.98C302.298 211.703 301.725 211.558 301.143 211.558C300.507 211.558 299.858 211.733 299.283 212.095C298.757 212.426 298.344 212.879 298.068 213.392C297.791 213.905 297.646 214.477 297.646 215.059C297.646 215.695 297.822 216.345 298.185 216.921V216.921C298.515 217.447 298.968 217.86 299.481 218.136C299.994 218.414 300.567 218.558 301.149 218.558C301.785 218.559 302.434 218.383 303.01 218.021L303.011 218.02L302.479 217.175Z" fill="#FBF659"/><path d="M4.83289 64.6174L4.3019 63.7722C4.04957 63.9307 3.77688 64.0034 3.5026 64.0038C3.25267 64.0038 3.00354 63.9411 2.78396 63.8221C2.56357 63.7027 2.37313 63.5306 2.22821 63.3007V63.2999C2.0697 63.0476 1.99664 62.7749 1.99624 62.5006C1.99624 62.2511 2.05891 62.0023 2.17789 61.7823C2.29687 61.5624 2.46933 61.3719 2.6989 61.227C2.95043 61.0697 3.22232 60.9966 3.49701 60.9962C3.74694 60.9962 3.99647 61.0589 4.21645 61.1779C4.43684 61.2973 4.62768 61.4697 4.77261 61.6993L4.773 61.7001C4.9307 61.9512 5.00336 62.2235 5.00376 62.4978C5.00416 62.7477 4.94108 62.9969 4.82211 63.2172C4.70273 63.4376 4.53027 63.6285 4.3011 63.773L4.3019 63.7722L4.83289 64.6174L5.36468 65.4622C5.89049 65.1316 6.30252 64.6781 6.5788 64.1655C6.85588 63.652 7 63.0791 7 62.4978C7.0008 61.8614 6.82513 61.2122 6.46181 60.6365L6.46222 60.6369C6.13164 60.1107 5.67809 59.6979 5.16506 59.4216C4.65162 59.1445 4.07831 59 3.49701 59C2.861 58.9996 2.21182 59.1749 1.63651 59.5374C1.1103 59.8676 0.697888 60.3207 0.421609 60.8337C0.144531 61.3468 6.7898e-07 61.9193 6.7898e-07 62.5006C-0.000398569 63.1374 0.17527 63.787 0.538186 64.3631V64.3627C0.868364 64.8889 1.3219 65.3017 1.83453 65.5784C2.34797 65.8555 2.9209 66 3.5026 66C4.1386 66.0004 4.78777 65.8251 5.36388 65.4626L5.36468 65.4622L4.83289 64.6174Z" fill="#FBF659"/><path d="M113.091 40.0913V41.1826H125.817V52.8174H114.183V40.0913H113.091H112V53.9087C112 54.196 112.117 54.477 112.32 54.6804C112.523 54.8835 112.804 55 113.091 55H126.909C127.196 55 127.477 54.8835 127.68 54.6804C127.883 54.477 128 54.196 128 53.9087V40.0913C128 39.8036 127.883 39.5224 127.68 39.3195C127.477 39.1161 127.196 39 126.909 39H113.091C112.804 39 112.523 39.1161 112.32 39.3195C112.117 39.5224 112 39.8036 112 40.0913H113.091Z" fill="#FBF659"/><path d="M264.649 75.8669L257.871 69.5097C257.424 69.0901 256.72 69.1124 256.301 69.5599C255.881 70.0078 255.903 70.7109 256.351 71.1304L263.129 77.4877C263.576 77.9072 264.279 77.885 264.699 77.4375C265.119 76.99 265.097 76.2865 264.649 75.8669Z" fill="#FBF659"/><path d="M258.131 77.649L264.489 70.8709C264.909 70.4233 264.886 69.7203 264.438 69.3008C263.991 68.8808 263.288 68.9035 262.868 69.351L256.51 76.1291C256.091 76.5767 256.113 77.2797 256.561 77.6992C257.008 78.1192 257.711 78.0965 258.131 77.649Z" fill="#FBF659"/><path d="M86.9787 178H101.021C101.562 178 102 177.552 102 177C102 176.448 101.562 176 101.021 176H86.9787C86.4381 176 86 176.448 86 177C86 177.552 86.4381 178 86.9787 178Z" fill="#FBF659"/><path d="M196.914 118.999H195.828C195.827 120.612 195.177 122.063 194.121 123.121C193.063 124.177 191.613 124.827 190 124.828C188.388 124.827 186.938 124.177 185.879 123.121C184.823 122.062 184.173 120.612 184.172 118.999C184.173 117.387 184.823 115.937 185.879 114.879C186.938 113.823 188.388 113.173 190 113.172C191.613 113.173 193.063 113.823 194.121 114.879C195.177 115.937 195.827 117.387 195.828 118.999H196.914H198C198 114.581 194.419 111 190 111C187.795 110.999 185.788 111.897 184.343 113.343C182.897 114.787 182 116.794 182 118.999C182.001 123.419 185.582 126.999 190 127C194.419 126.999 198 123.419 198 118.999H196.914Z" fill="#FBF659"/><path d="M325.619 129.456C325.617 129.662 325.581 129.787 325.519 129.913C325.464 130.022 325.38 130.135 325.25 130.26C325.024 130.48 324.654 130.718 324.209 130.968C323.542 131.35 322.711 131.75 321.974 132.432C321.608 132.774 321.267 133.198 321.025 133.72C320.782 134.241 320.647 134.85 320.649 135.516C320.649 136.092 321.103 136.558 321.662 136.558C322.223 136.558 322.676 136.092 322.676 135.516C322.677 135.177 322.732 134.925 322.815 134.711C322.89 134.523 322.99 134.361 323.123 134.201C323.354 133.922 323.698 133.659 324.118 133.402C324.747 133.01 325.526 132.661 326.246 132.115C326.604 131.84 326.955 131.501 327.221 131.051C327.489 130.604 327.65 130.046 327.646 129.456C327.646 128.88 327.193 128.414 326.633 128.414C326.072 128.414 325.619 128.88 325.619 129.456Z" fill="#FBF659"/><path d="M325.616 117.552C325.615 117.759 325.578 117.883 325.517 118.009C325.462 118.118 325.378 118.231 325.247 118.357C325.022 118.576 324.652 118.815 324.206 119.065C323.539 119.447 322.709 119.847 321.972 120.528C321.606 120.87 321.265 121.294 321.023 121.816C320.78 122.337 320.645 122.947 320.646 123.612C320.646 124.188 321.101 124.654 321.66 124.654C322.221 124.654 322.674 124.188 322.674 123.612C322.675 123.273 322.73 123.021 322.814 122.807C322.888 122.62 322.988 122.457 323.121 122.297C323.352 122.019 323.696 121.755 324.116 121.498C324.745 121.107 325.524 120.758 326.244 120.212C326.602 119.936 326.952 119.598 327.219 119.148C327.487 118.701 327.648 118.142 327.644 117.552C327.644 116.976 327.191 116.51 326.63 116.51C326.07 116.51 325.616 116.976 325.616 117.552Z" fill="#FBF659"/><path d="M327.644 129.564C327.646 129.05 327.527 128.56 327.317 128.148C327.134 127.785 326.891 127.486 326.632 127.236C326.174 126.8 325.668 126.501 325.183 126.225C324.454 125.819 323.768 125.457 323.337 125.046C323.119 124.842 322.963 124.637 322.854 124.403C322.746 124.167 322.676 123.894 322.674 123.504C322.674 122.928 322.221 122.462 321.66 122.462C321.101 122.462 320.646 122.928 320.646 123.504C320.646 124.084 320.747 124.621 320.935 125.094C321.098 125.508 321.325 125.87 321.582 126.177C322.034 126.716 322.567 127.093 323.076 127.408C323.843 127.872 324.581 128.222 325.03 128.574C325.256 128.747 325.402 128.908 325.486 129.051C325.569 129.198 325.613 129.327 325.616 129.564C325.616 130.14 326.07 130.606 326.63 130.606C327.191 130.606 327.644 130.14 327.644 129.564Z" fill="#FBF659"/><path d="M327.644 117.66C327.646 117.147 327.527 116.656 327.317 116.244C327.134 115.881 326.891 115.582 326.631 115.333C326.174 114.897 325.668 114.598 325.183 114.322C324.454 113.915 323.768 113.553 323.337 113.143C323.119 112.938 322.963 112.733 322.854 112.5C322.746 112.264 322.676 111.99 322.674 111.601H321.663L322.671 111.687C322.674 111.645 322.674 111.615 322.674 111.601H321.663L322.671 111.687C322.717 111.113 322.303 110.609 321.745 110.562C321.187 110.514 320.696 110.94 320.65 111.514C320.647 111.556 320.646 111.586 320.646 111.601C320.646 112.18 320.747 112.717 320.935 113.191C321.098 113.605 321.325 113.967 321.582 114.274C322.034 114.813 322.567 115.19 323.076 115.504C323.842 115.969 324.581 116.319 325.029 116.671C325.256 116.844 325.402 117.004 325.486 117.148C325.569 117.294 325.613 117.424 325.616 117.661C325.616 118.236 326.071 118.703 326.631 118.703C327.191 118.703 327.644 118.236 327.644 117.66Z" fill="#FBF659"/><path d="M246.102 182.972C245.896 182.971 245.772 182.934 245.646 182.872C245.536 182.818 245.423 182.733 245.298 182.603C245.078 182.378 244.84 182.008 244.59 181.562C244.208 180.895 243.808 180.064 243.126 179.328C242.784 178.961 242.36 178.621 241.838 178.379C241.318 178.136 240.708 178.001 240.042 178.002C239.467 178.002 239 178.456 239 179.016C239 179.576 239.467 180.03 240.042 180.03C240.381 180.031 240.633 180.085 240.848 180.169C241.035 180.243 241.198 180.343 241.357 180.476C241.636 180.707 241.899 181.051 242.156 181.472C242.548 182.101 242.897 182.88 243.443 183.6C243.719 183.958 244.057 184.308 244.507 184.575C244.954 184.843 245.512 185.003 246.102 185C246.678 185 247.145 184.546 247.145 183.986C247.145 183.426 246.678 182.972 246.102 182.972Z" fill="#FBF659"/><path d="M258.006 182.97C257.799 182.968 257.675 182.932 257.549 182.87C257.44 182.815 257.327 182.731 257.201 182.601C256.982 182.375 256.743 182.006 256.493 181.56C256.111 180.893 255.712 180.062 255.03 179.325C254.688 178.959 254.264 178.619 253.742 178.377C253.221 178.134 252.611 177.999 251.946 178C251.37 178 250.904 178.454 250.904 179.014C250.904 179.574 251.37 180.028 251.946 180.028C252.285 180.029 252.537 180.083 252.751 180.167C252.939 180.241 253.101 180.341 253.261 180.474C253.539 180.705 253.803 181.049 254.06 181.47C254.451 182.099 254.8 182.878 255.346 183.597C255.622 183.956 255.96 184.306 256.41 184.572C256.857 184.841 257.416 185.001 258.006 184.998C258.582 184.998 259.048 184.544 259.048 183.984C259.048 183.424 258.582 182.97 258.006 182.97Z" fill="#FBF659"/><path d="M245.994 184.998C246.508 185 246.998 184.881 247.411 184.671C247.773 184.488 248.073 184.245 248.322 183.985C248.758 183.528 249.057 183.022 249.333 182.537C249.74 181.808 250.102 181.122 250.512 180.69C250.716 180.472 250.921 180.316 251.155 180.207C251.391 180.099 251.664 180.029 252.054 180.028C252.63 180.028 253.096 179.574 253.096 179.014C253.096 178.454 252.63 178 252.054 178C251.474 177.999 250.938 178.101 250.464 178.288C250.05 178.452 249.688 178.679 249.381 178.936C248.842 179.388 248.465 179.92 248.151 180.43C247.686 181.196 247.336 181.934 246.984 182.383C246.811 182.609 246.65 182.755 246.507 182.84C246.361 182.923 246.231 182.967 245.994 182.97C245.418 182.97 244.952 183.424 244.952 183.984C244.952 184.544 245.418 184.998 245.994 184.998Z" fill="#FBF659"/><path d="M257.898 184.998C258.411 185 258.902 184.881 259.314 184.67C259.677 184.488 259.976 184.245 260.225 183.985C260.661 183.528 260.96 183.021 261.236 182.536C261.643 181.808 262.005 181.121 262.415 180.69C262.62 180.472 262.825 180.316 263.059 180.207C263.294 180.099 263.568 180.029 263.957 180.028V179.017L263.871 180.025C263.913 180.028 263.943 180.028 263.957 180.028V179.017L263.871 180.025C264.445 180.071 264.949 179.656 264.996 179.098C265.044 178.54 264.618 178.05 264.045 178.004C264.002 178 263.972 178 263.957 178C263.378 178 262.841 178.101 262.367 178.288C261.953 178.451 261.591 178.679 261.284 178.936C260.745 179.388 260.368 179.92 260.054 180.43C259.589 181.196 259.239 181.934 258.887 182.383C258.714 182.609 258.554 182.755 258.41 182.84C258.264 182.923 258.134 182.967 257.897 182.97C257.322 182.97 256.855 183.424 256.855 183.984C256.856 184.544 257.322 184.998 257.898 184.998Z" fill="#FBF659"/><path d="M261.043 9.00121L261.945 9.25619L263.968 1.24359C264.055 0.902432 263.962 0.538347 263.726 0.288905C263.49 0.0394623 263.146 -0.0577829 262.824 0.0339305L255.259 2.18759V2.1872L247.692 4.33928C247.369 4.4306 247.118 4.69744 247.032 5.03859C246.945 5.37975 247.038 5.74344 247.274 5.99288L252.818 11.8502L252.818 11.8498L258.361 17.7107C258.597 17.9603 258.941 18.0578 259.263 17.9661C259.585 17.8744 259.836 17.608 259.923 17.2668L261.945 9.25619L261.043 9.00121L260.141 8.74624L258.536 15.1024L254.138 10.4516L254.137 10.4512L249.739 5.80392L255.744 4.09617H255.744L261.746 2.38762L260.141 8.74584L261.043 9.00121Z" fill="#FBF659"/></svg>