<svg width="328" height="298" viewBox="0 0 328 298" fill="none" xmlns="http://www.w3.org/2000/svg"><path d="M303.478 178.175L302.947 177.33C302.695 177.489 302.422 177.561 302.148 177.562C301.898 177.562 301.649 177.499 301.429 177.38C301.209 177.261 301.019 177.089 300.874 176.859V176.858C300.715 176.606 300.642 176.333 300.642 176.059C300.642 175.809 300.704 175.56 300.823 175.34C300.942 175.12 301.115 174.93 301.344 174.785C301.596 174.628 301.868 174.555 302.143 174.554C302.392 174.554 302.642 174.617 302.862 174.736C303.082 174.855 303.273 175.028 303.418 175.257L303.419 175.258C303.576 175.509 303.649 175.782 303.649 176.056C303.65 176.306 303.587 176.555 303.468 176.775C303.348 176.996 303.176 177.187 302.947 177.331L302.947 177.33L303.478 178.175L304.01 179.02C304.536 178.69 304.948 178.236 305.224 177.724C305.501 177.21 305.646 176.637 305.646 176.056C305.646 175.42 305.471 174.77 305.107 174.195L305.108 174.195C304.777 173.669 304.324 173.256 303.811 172.98C303.297 172.703 302.724 172.558 302.143 172.558C301.507 172.558 300.857 172.733 300.282 173.095C299.756 173.426 299.343 173.879 299.067 174.392C298.79 174.905 298.646 175.477 298.646 176.059C298.645 176.695 298.821 177.345 299.184 177.921V177.921C299.514 178.447 299.967 178.86 300.48 179.136C300.993 179.414 301.566 179.558 302.148 179.558C302.784 179.559 303.433 179.383 304.009 179.021L304.01 179.02L303.478 178.175Z" fill="#FBF659"/><path d="M132.649 176.867L125.871 170.51C125.424 170.09 124.72 170.112 124.301 170.56C123.881 171.008 123.903 171.711 124.351 172.13L131.129 178.488C131.576 178.907 132.279 178.885 132.699 178.437C133.119 177.99 133.097 177.286 132.649 176.867Z" fill="#FBF659"/><path d="M126.131 178.649L132.489 171.871C132.909 171.423 132.886 170.72 132.438 170.301C131.991 169.881 131.288 169.903 130.868 170.351L124.51 177.129C124.091 177.577 124.113 178.28 124.561 178.699C125.008 179.119 125.711 179.097 126.131 178.649Z" fill="#FBF659"/><path d="M5.83289 25.6174L5.3019 24.7722C5.04957 24.9307 4.77688 25.0034 4.5026 25.0038C4.25267 25.0038 4.00354 24.9411 3.78396 24.8221C3.56357 24.7027 3.37313 24.5306 3.22821 24.3007V24.2999C3.0697 24.0476 2.99664 23.7749 2.99624 23.5006C2.99624 23.2511 3.05891 23.0023 3.17789 22.7823C3.29687 22.5624 3.46933 22.3719 3.6989 22.227C3.95043 22.0697 4.22232 21.9966 4.49701 21.9962C4.74694 21.9962 4.99647 22.0589 5.21645 22.1779C5.43684 22.2973 5.62768 22.4697 5.77261 22.6993L5.773 22.7001C5.9307 22.9512 6.00336 23.2235 6.00376 23.4978C6.00416 23.7477 5.94108 23.9969 5.82211 24.2172C5.70273 24.4376 5.53027 24.6285 5.3011 24.773L5.3019 24.7722L5.83289 25.6174L6.36468 26.4622C6.89049 26.1316 7.30252 25.6781 7.5788 25.1655C7.85588 24.652 8 24.0791 8 23.4978C8.0008 22.8614 7.82513 22.2122 7.46181 21.6365L7.46222 21.6369C7.13164 21.1107 6.67809 20.6979 6.16506 20.4216C5.65162 20.1445 5.07831 20 4.49701 20C3.861 19.9996 3.21182 20.1749 2.63651 20.5374C2.1103 20.8676 1.69789 21.3207 1.42161 21.8337C1.14453 22.3468 1 22.9193 1 23.5006C0.999601 24.1374 1.17527 24.787 1.53819 25.3631V25.3627C1.86836 25.8889 2.3219 26.3017 2.83453 26.5784C3.34797 26.8555 3.9209 27 4.5026 27C5.1386 27.0004 5.78777 26.8251 6.36388 26.4626L6.36468 26.4622L5.83289 25.6174Z" fill="#FBF659"/><path d="M114.091 1.09129V2.18258H126.817V13.8174H115.183V1.09129H114.091H113V14.9087C113 15.196 113.117 15.477 113.32 15.6804C113.523 15.8835 113.804 16 114.091 16H127.909C128.196 16 128.477 15.8835 128.68 15.6804C128.883 15.477 129 15.196 129 14.9087V1.09129C129 0.803625 128.883 0.522422 128.68 0.31953C128.477 0.116114 128.196 -6.35782e-08 127.909 -6.35782e-08H114.091C113.804 -6.35782e-08 113.523 0.116114 113.32 0.31953C113.117 0.522422 113 0.803625 113 1.09129H114.091Z" fill="#FBF659"/><path d="M265.649 36.8669L258.871 30.5097C258.424 30.0901 257.72 30.1124 257.301 30.5599C256.881 31.0078 256.903 31.7109 257.351 32.1304L264.129 38.4877C264.576 38.9072 265.279 38.885 265.699 38.4375C266.119 37.99 266.097 37.2865 265.649 36.8669Z" fill="#FBF659"/><path d="M259.131 38.649L265.489 31.8709C265.909 31.4233 265.886 30.7203 265.438 30.3008C264.991 29.8808 264.288 29.9035 263.868 30.351L257.51 37.1291C257.091 37.5767 257.113 38.2797 257.561 38.6992C258.008 39.1192 258.711 39.0965 259.131 38.649Z" fill="#FBF659"/><path d="M0.978737 168H15.0213C15.5619 168 16 167.552 16 167C16 166.448 15.5619 166 15.0213 166H0.978737C0.438083 166 0 166.448 0 167C0 167.552 0.438083 168 0.978737 168Z" fill="#FBF659"/><path d="M239.914 220.999H238.828C238.827 222.612 238.177 224.063 237.121 225.121C236.063 226.177 234.613 226.827 233 226.828C231.388 226.827 229.938 226.177 228.879 225.121C227.823 224.062 227.173 222.612 227.172 220.999C227.173 219.387 227.823 217.937 228.879 216.879C229.938 215.823 231.388 215.173 233 215.172C234.613 215.173 236.063 215.823 237.121 216.879C238.177 217.937 238.827 219.387 238.828 220.999H239.914H241C241 216.581 237.419 213 233 213C230.795 212.999 228.788 213.897 227.343 215.343C225.897 216.787 225 218.794 225 220.999C225.001 225.419 228.582 228.999 233 229C237.419 228.999 241 225.419 241 220.999H239.914Z" fill="#FBF659"/><path d="M326.618 90.4558C326.616 90.6623 326.58 90.7865 326.518 90.9126C326.463 91.0217 326.379 91.1349 326.249 91.2603C326.023 91.4799 325.653 91.7184 325.208 91.9682C324.541 92.3502 323.71 92.75 322.973 93.4319C322.607 93.7737 322.266 94.1978 322.024 94.7197C321.781 95.2405 321.646 95.8504 321.648 96.5158C321.648 97.0915 322.102 97.5581 322.661 97.5581C323.222 97.5581 323.675 97.0915 323.675 96.5158C323.676 96.1766 323.731 95.925 323.814 95.7106C323.889 95.5232 323.989 95.3606 324.122 95.2008C324.353 94.9225 324.697 94.6587 325.117 94.4019C325.746 94.0103 326.525 93.6614 327.245 93.1153C327.603 92.8396 327.954 92.5012 328.22 92.0514C328.488 91.6044 328.649 91.0461 328.645 90.4558C328.645 89.8801 328.192 89.4135 327.632 89.4135C327.071 89.4135 326.618 89.8801 326.618 90.4558Z" fill="#FBF659"/><path d="M326.615 78.5522C326.614 78.759 326.577 78.8832 326.516 79.0091C326.461 79.1182 326.377 79.2314 326.246 79.3568C326.021 79.5765 325.651 79.8147 325.205 80.0647C324.539 80.4468 323.708 80.8466 322.971 81.5283C322.605 81.8702 322.264 82.2941 322.022 82.8161C321.779 83.3369 321.644 83.9468 321.646 84.6122C321.646 85.1879 322.1 85.6545 322.659 85.6545C323.22 85.6545 323.673 85.1879 323.673 84.6122C323.674 84.273 323.729 84.0214 323.813 83.807C323.887 83.6196 323.987 83.4571 324.12 83.2973C324.351 83.019 324.695 82.7553 325.115 82.4985C325.744 82.107 326.523 81.758 327.243 81.2119C327.601 80.9362 327.951 80.5978 328.218 80.1479C328.486 79.7009 328.647 79.1425 328.643 78.5522C328.643 77.9764 328.19 77.5099 327.629 77.5099C327.069 77.5099 326.615 77.9764 326.615 78.5522Z" fill="#FBF659"/><path d="M328.643 90.5641C328.645 90.0505 328.526 89.5602 328.316 89.1475C328.133 88.7854 327.89 88.4856 327.631 88.2363C327.173 87.8005 326.667 87.501 326.182 87.2252C325.454 86.8185 324.767 86.4565 324.336 86.046C324.118 85.8416 323.962 85.6368 323.853 85.4026C323.745 85.1673 323.675 84.8937 323.673 84.5039C323.673 83.9282 323.22 83.4617 322.659 83.4617C322.1 83.4617 321.646 83.9282 321.646 84.5039C321.645 85.0836 321.746 85.6205 321.934 86.0937C322.097 86.5082 322.324 86.8698 322.581 87.1771C323.033 87.716 323.566 88.0933 324.075 88.4076C324.842 88.8725 325.58 89.2219 326.029 89.574C326.255 89.7473 326.401 89.9077 326.485 90.0511C326.568 90.1975 326.612 90.3272 326.615 90.5641C326.615 91.1397 327.069 91.6063 327.629 91.6063C328.19 91.6063 328.643 91.1397 328.643 90.5641Z" fill="#FBF659"/><path d="M328.643 78.6604C328.645 78.1467 328.526 77.6565 328.316 77.2437C328.133 76.8814 327.89 76.5817 327.63 76.3328C327.173 75.8967 326.667 75.5978 326.182 75.3218C325.454 74.9153 324.767 74.553 324.336 74.1428C324.118 73.9381 323.962 73.7334 323.853 73.4995C323.745 73.264 323.675 72.9905 323.673 72.6007H322.662L323.67 72.687C323.673 72.6453 323.673 72.6153 323.673 72.6007H322.662L323.67 72.687C323.716 72.1133 323.302 71.6093 322.744 71.5618C322.186 71.5138 321.695 71.9399 321.649 72.5136C321.646 72.5557 321.646 72.5857 321.646 72.6007C321.645 73.1802 321.746 73.7172 321.934 74.1908C322.097 74.6047 322.324 74.9666 322.581 75.2739C323.033 75.8129 323.566 76.1902 324.075 76.5041C324.841 76.969 325.58 77.3188 326.028 77.6706C326.255 77.8441 326.401 78.0042 326.485 78.148C326.568 78.2943 326.612 78.424 326.616 78.6608C326.616 79.2363 327.07 79.7027 327.63 79.7027C328.19 79.7025 328.643 79.236 328.643 78.6604Z" fill="#FBF659"/><path d="M300.102 295.972C299.896 295.971 299.772 295.934 299.646 295.872C299.536 295.818 299.423 295.733 299.298 295.603C299.078 295.378 298.84 295.008 298.59 294.562C298.208 293.895 297.808 293.064 297.126 292.328C296.784 291.961 296.36 291.621 295.838 291.379C295.318 291.136 294.708 291.001 294.042 291.002C293.467 291.002 293 291.456 293 292.016C293 292.576 293.467 293.03 294.042 293.03C294.381 293.031 294.633 293.085 294.848 293.169C295.035 293.243 295.198 293.343 295.357 293.476C295.636 293.707 295.899 294.051 296.156 294.472C296.548 295.101 296.897 295.88 297.443 296.6C297.719 296.958 298.057 297.308 298.507 297.575C298.954 297.843 299.512 298.003 300.102 298C300.678 298 301.145 297.546 301.145 296.986C301.145 296.426 300.678 295.972 300.102 295.972Z" fill="#FBF659"/><path d="M312.006 295.97C311.799 295.968 311.675 295.932 311.549 295.87C311.44 295.815 311.327 295.731 311.201 295.601C310.982 295.375 310.743 295.006 310.493 294.56C310.111 293.893 309.712 293.062 309.03 292.325C308.688 291.959 308.264 291.619 307.742 291.377C307.221 291.134 306.611 290.999 305.946 291C305.37 291 304.904 291.454 304.904 292.014C304.904 292.574 305.37 293.028 305.946 293.028C306.285 293.029 306.537 293.083 306.751 293.167C306.939 293.241 307.101 293.341 307.261 293.474C307.539 293.705 307.803 294.049 308.06 294.47C308.451 295.099 308.8 295.878 309.346 296.597C309.622 296.956 309.96 297.306 310.41 297.572C310.857 297.841 311.416 298.001 312.006 297.998C312.582 297.998 313.048 297.544 313.048 296.984C313.048 296.424 312.582 295.97 312.006 295.97Z" fill="#FBF659"/><path d="M299.994 297.998C300.508 298 300.998 297.881 301.411 297.671C301.773 297.488 302.073 297.245 302.322 296.985C302.758 296.528 303.057 296.022 303.333 295.537C303.74 294.808 304.102 294.122 304.512 293.69C304.716 293.472 304.921 293.316 305.155 293.207C305.391 293.099 305.664 293.029 306.054 293.028C306.63 293.028 307.096 292.574 307.096 292.014C307.096 291.454 306.63 291 306.054 291C305.474 290.999 304.938 291.101 304.464 291.288C304.05 291.452 303.688 291.679 303.381 291.936C302.842 292.388 302.465 292.92 302.151 293.43C301.686 294.196 301.336 294.934 300.984 295.383C300.811 295.609 300.65 295.755 300.507 295.84C300.361 295.923 300.231 295.967 299.994 295.97C299.418 295.97 298.952 296.424 298.952 296.984C298.952 297.544 299.418 297.998 299.994 297.998Z" fill="#FBF659"/><path d="M311.898 297.998C312.411 298 312.902 297.881 313.314 297.67C313.677 297.488 313.976 297.245 314.225 296.985C314.661 296.528 314.96 296.021 315.236 295.536C315.643 294.808 316.005 294.121 316.415 293.69C316.62 293.472 316.825 293.316 317.059 293.207C317.294 293.099 317.568 293.029 317.957 293.028V292.017L317.871 293.025C317.913 293.028 317.943 293.028 317.957 293.028V292.017L317.871 293.025C318.445 293.071 318.949 292.656 318.996 292.098C319.044 291.54 318.618 291.05 318.045 291.004C318.002 291 317.972 291 317.957 291C317.378 291 316.841 291.101 316.367 291.288C315.953 291.451 315.591 291.679 315.284 291.936C314.745 292.388 314.368 292.92 314.054 293.43C313.589 294.196 313.239 294.934 312.887 295.383C312.714 295.609 312.554 295.755 312.41 295.84C312.264 295.923 312.134 295.967 311.897 295.97C311.322 295.97 310.855 296.424 310.855 296.984C310.856 297.544 311.322 297.998 311.898 297.998Z" fill="#FBF659"/><path d="M72.0429 250.001L72.945 250.256L74.9683 242.244C75.0546 241.902 74.9619 241.538 74.7259 241.289C74.4898 241.039 74.1458 240.942 73.8238 241.034L66.2595 243.188V243.187L58.6917 245.339C58.3694 245.431 58.1176 245.697 58.0317 246.039C57.9454 246.38 58.0381 246.743 58.2741 246.993L63.8182 252.85L63.8178 252.85L69.3607 258.711C69.5968 258.96 69.9408 259.058 70.2628 258.966C70.5851 258.874 70.8365 258.608 70.9228 258.267L72.945 250.256L72.0429 250.001L71.1409 249.746L69.5363 256.102L65.1378 251.452L65.1374 251.451L60.7386 246.804L66.7439 245.096H66.7443L72.7463 243.388L71.1409 249.746L72.0429 250.001Z" fill="#FBF659"/><path d="M217.004 124.739L217.489 125.614L224.517 121.365C224.816 121.184 225 120.85 225 120.488C225 120.127 224.815 119.792 224.516 119.612L217.484 115.375L217.484 115.376L210.45 111.135C210.151 110.955 209.782 110.955 209.483 111.136C209.184 111.317 209 111.651 209 112.012L209.007 120.5V120.499L209.01 128.989C209.01 129.35 209.195 129.684 209.495 129.865C209.794 130.045 210.163 130.045 210.462 129.864L217.489 125.614L217.004 124.739L216.52 123.862L210.945 127.235L210.941 120.499V120.498L210.936 113.763L216.518 117.129H216.518L222.097 120.49L216.52 123.862L217.004 124.739Z" fill="#FBF659"/></svg>