<svg xmlns="http://www.w3.org/2000/svg" width="32" height="32" viewBox="0 0 32 32"><path d="M14.71 21.704c0.244-0.244 0.244-0.64 0-0.884s-0.64-0.244-0.884 0c-0.244 0.244-0.244 0.64 0 0.884s0.64 0.244 0.884 0z"/><path d="M11.75 6.873c0 3.79 3.084 6.873 6.875 6.873s6.875-3.083 6.875-6.873-3.084-6.873-6.875-6.873c-3.791 0-6.875 3.083-6.875 6.873zM24.25 6.873c0 3.101-2.524 5.624-5.625 5.624s-5.625-2.523-5.625-5.624c0-3.101 2.524-5.623 5.625-5.623s5.625 2.523 5.625 5.623z"/><path d="M7.199 31.815c0.242 0.244 0.637 0.247 0.882 0.005l3.030-2.984c0.515-0.515 0.671-1.277 0.445-1.939l0.652-0.628c0.351-0.339 0.813-0.526 1.301-0.526h8.309c1.474 0 2.867-0.566 3.924-1.594 0.043-0.042-0.33 0.397 5.668-6.769 0.89-1.052 0.757-2.632-0.297-3.523-1.047-0.882-2.615-0.755-3.508 0.279l-3.688 3.79c-0.466-0.573-1.176-0.93-1.943-0.93h-6.97c-0.992-0.415-2.044-0.625-3.13-0.625-3.010 0-5.638 1.39-7.048 3.995-0.594-0.112-1.221 0.067-1.672 0.518l-2.973 2.981c-0.243 0.243-0.243 0.637-0.001 0.881l7.018 7.069zM11.875 17.62c0.957 0 1.883 0.193 2.752 0.572 0.079 0.035 0.164 0.052 0.251 0.052h7.098c0.678 0 1.25 0.552 1.25 1.25 0 0.689-0.561 1.25-1.25 1.25h-5.1c-0.345 0-0.625 0.28-0.625 0.625s0.28 0.625 0.625 0.625h5.1c1.379 0 2.5-1.121 2.5-2.499 0-0.11-0.008-0.219-0.022-0.327 3.568-3.666 4.071-4.181 4.092-4.207 0.445-0.526 1.236-0.592 1.762-0.149 0.527 0.445 0.593 1.235 0.147 1.764l-5.606 6.7c-0.819 0.786-1.893 1.218-3.030 1.218h-8.309c-0.814 0-1.585 0.311-2.17 0.876l-0.531 0.512-4.897-4.895c1.144-2.146 3.292-3.367 5.963-3.367zM4.040 21.767c0.206-0.206 0.523-0.243 0.774-0.088 0.108 0.066-0.202-0.217 5.414 5.39 0.25 0.25 0.236 0.648 0.003 0.88l-2.583 2.544-6.141-6.186 2.534-2.54z"/><path d="M17.877 3.124v0.732c-0.728 0.258-1.25 0.952-1.25 1.767 0 1.033 0.841 1.875 1.875 1.875 0.344 0 0.625 0.28 0.625 0.625s-0.28 0.625-0.625 0.625c-0.267 0-0.555-0.168-0.812-0.473-0.222-0.264-0.616-0.298-0.881-0.076s-0.298 0.616-0.076 0.88c0.334 0.397 0.727 0.674 1.144 0.814v0.729c0 0.345 0.28 0.625 0.625 0.625s0.625-0.28 0.625-0.625v-0.732c0.728-0.258 1.25-0.953 1.25-1.767 0-1.034-0.841-1.875-1.875-1.875-0.345 0-0.625-0.28-0.625-0.625s0.28-0.625 0.625-0.625c0.221 0 0.455 0.113 0.676 0.327 0.248 0.24 0.644 0.233 0.884-0.014s0.234-0.644-0.014-0.884c-0.317-0.307-0.635-0.48-0.92-0.575v-0.728c0-0.345-0.28-0.625-0.625-0.625s-0.625 0.28-0.625 0.625z"/></svg>