<svg width="321" height="364" viewBox="0 0 321 364" fill="none" xmlns="http://www.w3.org/2000/svg"><g filter="url(#filter0_f)"><path d="M198.713 163.494H186.426C186.421 181.739 179.068 198.145 167.115 210.114C155.147 222.062 138.747 229.421 120.503 229.425C102.263 229.421 85.8575 222.062 73.8849 210.114C61.9369 198.141 54.5842 181.739 54.5744 163.494C54.5842 145.251 61.9369 128.849 73.8849 116.88C85.8575 104.932 102.263 97.5791 120.503 97.5752C138.747 97.5791 155.152 104.932 167.12 116.88C179.068 128.849 186.421 145.251 186.426 163.494H198.713H211C210.995 113.505 170.487 73.0039 120.503 73C95.5546 72.9902 72.8527 83.1446 56.5108 99.5009C40.1492 115.839 29.9951 138.54 30 163.494C30.0098 213.485 70.5232 253.99 120.503 254C170.487 253.99 210.995 213.485 211 163.494H198.713Z" fill="#303032" fill-opacity=".07"/></g><path d="M308.713 90.4941H296.426C296.421 108.739 289.068 125.145 277.115 137.114C265.147 149.062 248.747 156.421 230.503 156.425C212.263 156.421 195.858 149.062 183.885 137.114C171.937 125.141 164.584 108.739 164.574 90.4941C164.584 72.251 171.937 55.849 183.885 43.8799C195.858 31.9325 212.263 24.5791 230.503 24.5752C248.747 24.5791 265.152 31.9325 277.12 43.8799C289.068 55.849 296.421 72.251 296.426 90.4941H308.713H321C320.995 40.5048 280.487 0.00393331 230.503 -5.4876e-06C205.555 -0.00983622 182.853 10.1446 166.511 26.5009C150.149 42.8394 139.995 65.5405 140 90.4941C140.01 140.485 180.523 180.99 230.503 181C280.487 180.99 320.995 140.485 321 90.4941H308.713Z" fill="#FBF659"/><g filter="url(#filter1_f)" fill="#303032" fill-opacity=".07"><path d="M79.4792 344.757L50.1081 317.209C48.1689 315.391 45.1215 315.487 43.3027 317.426C41.4838 319.367 41.5816 322.414 43.5208 324.232L72.8917 351.78C74.8311 353.598 77.8776 353.502 79.6972 351.562C81.5162 349.623 81.4184 346.575 79.4792 344.757Z"/><path d="M51.2342 352.479L78.7847 323.107C80.6035 321.168 80.5059 318.121 78.5665 316.303C76.6281 314.483 73.5808 314.582 71.7618 316.521L44.2113 345.893C42.3925 347.832 42.4894 350.879 44.4295 352.697C46.3679 354.517 49.4152 354.418 51.2342 352.479Z"/></g><path d="M109.479 324.757L80.1081 297.209C78.1689 295.391 75.1215 295.487 73.3027 297.426C71.4838 299.367 71.5816 302.414 73.5208 304.232L102.892 331.78C104.831 333.598 107.878 333.502 109.697 331.562C111.516 329.623 111.418 326.575 109.479 324.757Z" fill="#FBF659"/><path d="M81.2342 332.479L108.785 303.107C110.604 301.168 110.506 298.121 108.567 296.303C106.628 294.483 103.581 294.582 101.762 296.521L74.2113 325.893C72.3925 327.832 72.4894 330.879 74.4295 332.697C76.3679 334.517 79.4152 334.418 81.2342 332.479Z" fill="#FBF659"/><defs><filter id="filter0_f" x="0" y="43" width="241" height="241" filterUnits="userSpaceOnUse" color-interpolation-filters="sRGB"><feFlood flood-opacity="0" result="BackgroundImageFix"/><feBlend in="SourceGraphic" in2="BackgroundImageFix" result="shape"/><feGaussianBlur stdDeviation="15" result="effect1_foregroundBlur"/></filter><filter id="filter1_f" x="32" y="305" width="59" height="59" filterUnits="userSpaceOnUse" color-interpolation-filters="sRGB"><feFlood flood-opacity="0" result="BackgroundImageFix"/><feBlend in="SourceGraphic" in2="BackgroundImageFix" result="shape"/><feGaussianBlur stdDeviation="5" result="effect1_foregroundBlur"/></filter></defs></svg>