<svg xmlns="http://www.w3.org/2000/svg" width="32" height="32" viewBox="0 0 32 32"><path d="M25.75 8.5c0 0.345 0.28 0.625 0.625 0.625s0.625-0.28 0.625-0.625c0-0.345-0.28-0.625-0.625-0.625s-0.625 0.28-0.625 0.625z"/><path d="M28.249 16c0 0.8-0.080 1.6-0.239 2.375-0.069 0.338 0.149 0.668 0.487 0.737 0.042 0.009 0.084 0.013 0.126 0.013 0.291 0 0.551-0.204 0.612-0.5 0.175-0.858 0.264-1.741 0.264-2.625 0-1.968-0.427-3.862-1.269-5.629-0.148-0.312-0.521-0.444-0.833-0.295s-0.444 0.521-0.295 0.833c0.761 1.598 1.147 3.311 1.147 5.091z"/><path d="M19.125 21.625h-0.625v-8.125c0-0.345-0.28-0.625-0.625-0.625h-5c-0.345 0-0.625 0.28-0.625 0.625v2.5c0 0.345 0.28 0.625 0.625 0.625h0.625v5h-0.625c-0.345 0-0.625 0.28-0.625 0.625v2.5c0 0.345 0.28 0.625 0.625 0.625h6.25c0.345 0 0.625-0.28 0.625-0.625v-2.5c0-0.345-0.28-0.625-0.625-0.625zM18.5 24.125h-5v-1.25h0.625c0.345 0 0.625-0.28 0.625-0.625v-6.25c0-0.345-0.28-0.625-0.625-0.625h-0.625v-1.25h3.75v8.125c0 0.345 0.28 0.625 0.625 0.625h0.625v1.25z"/><path d="M16 11.625c1.378 0 2.5-1.122 2.5-2.5s-1.121-2.5-2.5-2.5c-1.378 0-2.5 1.122-2.5 2.5s1.122 2.5 2.5 2.5zM16 7.875c0.689 0 1.25 0.561 1.25 1.25s-0.561 1.25-1.25 1.25c-0.689 0-1.25-0.561-1.25-1.25s0.561-1.25 1.25-1.25z"/><path d="M16 0c-8.624 0-16 7.363-16 16 0 2.95 0.845 6.088 2.271 8.461l-2.239 6.716c-0.075 0.224-0.016 0.472 0.151 0.639 0.168 0.168 0.416 0.226 0.64 0.151l6.716-2.239c2.373 1.426 5.511 2.271 8.461 2.271 8.626 0 16-7.364 16-16 0-8.626-7.363-16-16-16v0zM16 30.75c-2.83 0-5.839-0.835-8.047-2.234-0.157-0.099-0.352-0.125-0.532-0.065l-5.807 1.936 1.936-5.807c0.060-0.178 0.036-0.374-0.065-0.532-1.399-2.209-2.234-5.217-2.234-8.047 0-7.995 6.755-14.75 14.75-14.75s14.75 6.755 14.75 14.75c0 7.995-6.755 14.75-14.75 14.75z"/></svg>