<svg xmlns="http://www.w3.org/2000/svg" width="31" height="32" viewBox="0 0 31 32"><path d="M10.145 13.935h-1.014c0 1.139 0.91 2.065 2.029 2.065s2.029-0.926 2.029-2.064h-1.014c0 0.569-0.455 1.032-1.014 1.032s-1.014-0.463-1.014-1.032z"/><path d="M9.13 10.839c0 0.285-0.227 0.516-0.507 0.516s-0.507-0.231-0.507-0.516c0-0.285 0.227-0.516 0.507-0.516s0.507 0.231 0.507 0.516z"/><path d="M14.202 10.839c0 0.285-0.227 0.516-0.507 0.516s-0.507-0.231-0.507-0.516c0-0.285 0.227-0.516 0.507-0.516s0.507 0.231 0.507 0.516z"/><path d="M31.448 10.109l-4.355-4.431h-8.38c-0.208-1.17-1.031-2.142-2.163-2.509-1.326-1.986-3.521-3.169-5.884-3.169-3.923 0-7.115 3.248-7.115 7.24v5.814c0 1.938-1.059 3.681-2.763 4.549l-0.454 0.231 0.227 0.462c0.035 0.072 0.691 1.362 2.421 1.999l-0.555 0.188c-1.451 0.492-2.427 1.869-2.427 3.427v8.091h22.318v-4.645h9.13v-17.246zM27.39 7.439l2.326 2.367h-2.326v-2.367zM12.12 8.544c-0.154-0.312-0.212-0.662-0.174-1.004 1.14 0.762 2.42 1.323 3.778 1.65v3.713c0 2.562-2.048 4.645-4.565 4.645s-4.565-2.084-4.565-4.645v-5.221c1.206 0.75 2.558 1.247 3.961 1.451l1.998 0.29-0.433-0.88zM11.159 18.581c0.913 0 1.774-0.229 2.536-0.626v0.9l-2.536 2.151-2.536-2.151v-0.9c0.762 0.397 1.623 0.626 2.536 0.626zM8.008 19.677l2.4 2.035-2.614 2.66-1.603-4.079 1.817-0.616zM10.574 25.806h1.17l0.846 5.161h-2.861l0.846-5.161zM11.859 24.774h-1.4l-0.539-1.106 1.239-1.261 1.239 1.261-0.539 1.106zM11.91 21.712l2.4-2.035 1.817 0.616-1.603 4.079-2.614-2.66zM14.71 18.725v-1.446c0.868-0.73 1.511-1.724 1.82-2.858 0.482-0.058 0.918-0.251 1.278-0.545 0.236 1.801 1.238 3.393 2.761 4.361-0.436 0.518-1.424 1.351-3.253 1.372l-2.606-0.884zM16.739 12.903v-2.486c0.589 0.214 1.014 0.782 1.014 1.453 0 0.68-0.436 1.253-1.036 1.46 0.011-0.142 0.021-0.284 0.021-0.428zM10.665 1.032c2.045 0 3.942 1.033 5.077 2.764l0.176 0.269 0.19 0.049c0.968 0.246 1.645 1.128 1.645 2.143v3.563c-0.296-0.228-0.638-0.399-1.014-0.477v-0.99l-0.456-0.095c-1.553-0.316-3.044-0.994-4.311-1.961l-0.486-0.371-0.272 0.553c-0.255 0.519-0.343 1.105-0.263 1.67l-0.251-0.037c-1.558-0.226-3.048-0.854-4.307-1.815l-0.812-0.619v3.665c-0.377 0.078-0.718 0.249-1.014 0.477v-2.58c0-3.422 2.737-6.207 6.1-6.207zM5.601 13.331c-0.6-0.208-1.036-0.78-1.036-1.46 0-0.672 0.425-1.24 1.014-1.453v2.486c0 0.144 0.011 0.286 0.021 0.428zM1.748 18.237c1.523-0.968 2.526-2.559 2.762-4.361 0.36 0.294 0.797 0.487 1.278 0.545 0.31 1.134 0.953 2.128 1.82 2.858v1.446l-2.606 0.884c-1.833-0.022-2.82-0.853-3.254-1.372zM1.014 23.909c0-1.112 0.697-2.097 1.734-2.448l2.478-0.84 2.197 5.588 1.74-1.77 0.454 0.931-0.917 5.598h-3.628v-4.129h-1.014v4.129h-3.043v-7.058zM21.304 30.968h-3.043v-4.129h-1.014v4.129h-3.628l-0.917-5.598 0.454-0.931 1.74 1.77 2.197-5.588 2.478 0.84c1.037 0.352 1.734 1.336 1.734 2.448v7.058zM22.318 26.323v-2.413c0-0.418-0.075-0.821-0.207-1.2h7.308v-1.032h-1.014v-3.613h-1.014v3.613h-1.014v-4.645h-1.015v4.645h-1.014v-2.581h-1.014v2.581h-1.782c-0.419-0.541-0.985-0.966-1.66-1.195l-0.555-0.188c1.731-0.637 2.387-1.927 2.421-1.999l0.227-0.462-0.454-0.231c-1.704-0.867-2.762-2.61-2.762-4.549v-6.344h7.608v4.129h4.058v15.484h-8.116z"/><path d="M28.405 11.871h1.014v1.032h-1.014v-1.032z"/><path d="M19.782 11.871h7.608v1.032h-7.608v-1.032z"/><path d="M19.782 13.935h9.637v1.032h-9.637v-1.032z"/></svg>