<svg width="42" height="42" viewBox="0 0 42 42" fill="none" xmlns="http://www.w3.org/2000/svg"><path d="M21 0C9.40205 0 0 9.40205 0 21C0 32.5979 9.40205 42 21 42C32.5979 42 42 32.5979 42 21C41.9869 9.40748 32.5925 0.013125 21 0ZM21 40.6C10.1752 40.6 1.4 31.8248 1.4 21C1.4 10.1752 10.1752 1.4 21 1.4C31.8248 1.4 40.6 10.1752 40.6 21C40.5877 31.8196 31.8196 40.5877 21 40.6Z" fill="#376BC7"/><path d="M21.0008 2.80002C10.9492 2.80002 2.80078 10.9485 2.80078 21C2.80078 31.0516 10.9492 39.2 21.0008 39.2C31.0524 39.2 39.2008 31.0516 39.2008 21C39.1896 10.9531 31.0477 2.81122 21.0008 2.80002ZM37.1883 16.5172L27.2686 20.3609C27.1763 19.4693 26.8934 18.608 26.4391 17.8353L36.7333 15.1116C36.9055 15.5708 37.056 16.0398 37.1883 16.5172ZM21.0008 4.20002C27.491 4.20641 33.3986 7.94607 36.181 13.8096L25.527 16.6285C23.1263 14.1287 19.1537 14.0485 16.6539 16.4492C16.5929 16.5078 16.5331 16.5675 16.4746 16.6285L5.82058 13.8096C8.603 7.94607 14.5106 4.20641 21.0008 4.20002ZM25.9008 21C25.8977 23.7049 23.7057 25.8969 21.0008 25.9C18.2946 25.9 16.1008 23.7062 16.1008 21C16.1008 18.2938 18.2946 16.1 21.0008 16.1C23.707 16.1 25.9008 18.2938 25.9008 21ZM5.26828 15.1144L15.5625 17.8381C15.1085 18.61 14.8256 19.4702 14.733 20.3609L4.81328 16.52C4.94558 16.0426 5.09328 15.5736 5.26828 15.1144ZM4.20078 21C4.20192 19.9581 4.29983 18.9186 4.49338 17.8948L14.7708 21.8764C15.0645 23.9466 16.3653 25.7366 18.2435 26.6553L18.8532 37.66C10.48 36.5712 4.21146 29.4437 4.20078 21ZM21.7407 37.7811C21.4957 37.7916 21.2507 37.8 21.0015 37.8C20.7523 37.8 20.5066 37.7916 20.2616 37.7811L19.6708 27.1558C20.547 27.3483 21.4546 27.3483 22.3308 27.1558L21.7407 37.7811ZM24.1438 37.5022C23.8137 37.5648 23.4817 37.6174 23.1484 37.6599V37.6578L23.7595 26.6552C25.6372 25.7361 26.9373 23.9462 27.2308 21.8763L37.5068 17.8947C39.2312 26.9994 33.2483 35.7779 24.1438 37.5022Z" fill="#376BC7"/><path d="M21 17.5C19.067 17.5 17.5 19.067 17.5 21C17.5 22.933 19.067 24.5 21 24.5C22.933 24.5 24.5 22.933 24.5 21C24.4977 19.068 22.932 17.5023 21 17.5ZM21 23.1C19.8402 23.1 18.9 22.1598 18.9 21C18.9 19.8402 19.8402 18.9 21 18.9C22.1598 18.9 23.1 19.8402 23.1 21C23.1 22.1598 22.1598 23.1 21 23.1Z" fill="#376BC7"/></svg>