<svg xmlns="http://www.w3.org/2000/svg" width="50" height="32" viewBox="0 0 50 32"><path d="M46.793 0h-8.365c-0.873 0.001-1.71 0.343-2.328 0.95s-0.965 1.431-0.966 2.291v8.232c0.001 0.859 0.348 1.683 0.966 2.291s1.455 0.949 2.328 0.95h8.365c0.873-0.001 1.71-0.343 2.328-0.95s0.965-1.431 0.966-2.291v-8.232c-0.001-0.859-0.348-1.683-0.966-2.291s-1.455-0.949-2.328-0.95v0zM48.522 11.473c-0.001 0.45-0.183 0.882-0.506 1.2s-0.762 0.497-1.22 0.498h-8.368c-0.458-0.001-0.896-0.18-1.22-0.498s-0.505-0.75-0.506-1.2v-8.232c-0-0.451 0.181-0.883 0.505-1.202s0.763-0.498 1.221-0.499h8.365c0.227-0 0.452 0.044 0.662 0.129s0.4 0.211 0.561 0.369 0.288 0.346 0.375 0.552c0.087 0.206 0.131 0.428 0.131 0.651v8.232z"/><path d="M47.348 4.341c-0.073-0.072-0.159-0.129-0.254-0.168s-0.197-0.059-0.3-0.059c-0.103 0-0.205 0.020-0.3 0.059s-0.182 0.096-0.254 0.168l-4.467 4.393-1.956-1.925c-0.147-0.144-0.347-0.225-0.555-0.225s-0.407 0.082-0.553 0.227c-0.147 0.145-0.229 0.341-0.228 0.546s0.083 0.4 0.231 0.545l2.509 2.469c0.073 0.072 0.159 0.129 0.254 0.168s0.197 0.059 0.3 0.059 0.205-0.020 0.3-0.059c0.095-0.039 0.182-0.096 0.254-0.168l5.019-4.938c0.073-0.072 0.131-0.157 0.171-0.25s0.060-0.194 0.060-0.296-0.020-0.202-0.060-0.296c-0.039-0.094-0.098-0.179-0.171-0.25z"/><path d="M17.511 4.116h-16.728c-0.208 0-0.407 0.081-0.553 0.226s-0.229 0.34-0.229 0.545c0 0.204 0.082 0.4 0.229 0.545s0.346 0.226 0.553 0.226h16.728c0.208 0 0.407-0.081 0.553-0.226s0.229-0.34 0.229-0.545c0-0.204-0.082-0.4-0.229-0.545s-0.346-0.226-0.553-0.226z"/><path d="M30.063 4.116h-9.203c-0.208 0-0.407 0.081-0.553 0.226s-0.229 0.34-0.229 0.545c0 0.204 0.082 0.4 0.229 0.545s0.346 0.226 0.553 0.226h9.202c0.207 0 0.407-0.081 0.553-0.226s0.229-0.34 0.229-0.545c0-0.204-0.082-0.4-0.229-0.545s-0.346-0.226-0.553-0.226h0.001z"/><path d="M30.063 9.055h-3.347c-0.207 0-0.407 0.081-0.553 0.226s-0.229 0.34-0.229 0.545c0 0.204 0.082 0.4 0.229 0.545s0.346 0.226 0.553 0.226h3.347c0.208 0 0.407-0.081 0.553-0.226s0.229-0.34 0.229-0.545c0-0.204-0.082-0.4-0.229-0.545s-0.346-0.226-0.553-0.226z"/><path d="M7.477 9.055h-6.694c-0.208 0-0.407 0.081-0.553 0.226s-0.229 0.34-0.229 0.545c0 0.204 0.082 0.4 0.229 0.545s0.346 0.226 0.553 0.226h6.694c0.208 0 0.407-0.081 0.553-0.226s0.229-0.34 0.229-0.545c0-0.204-0.082-0.4-0.229-0.545s-0.346-0.226-0.553-0.226z"/><path d="M23.37 9.055h-12.548c-0.208 0-0.407 0.081-0.553 0.226s-0.229 0.34-0.229 0.545c0 0.204 0.082 0.4 0.229 0.545s0.346 0.226 0.553 0.226h12.548c0.208 0 0.407-0.081 0.553-0.226s0.229-0.34 0.229-0.545-0.082-0.4-0.229-0.545c-0.147-0.144-0.346-0.226-0.553-0.226z"/><path d="M46.793 17.286h-8.365c-0.873 0.001-1.71 0.343-2.328 0.951s-0.965 1.431-0.966 2.291v8.232c0.001 0.859 0.348 1.683 0.966 2.291s1.455 0.949 2.328 0.951h8.365c0.873-0.001 1.71-0.343 2.328-0.951s0.965-1.431 0.966-2.291v-8.232c-0.001-0.859-0.348-1.683-0.966-2.291s-1.455-0.949-2.328-0.951zM48.522 28.76c-0.001 0.45-0.183 0.882-0.506 1.2s-0.762 0.497-1.22 0.498h-8.368c-0.458-0.001-0.896-0.18-1.22-0.498s-0.505-0.75-0.506-1.2v-8.232c0.001-0.45 0.183-0.882 0.506-1.2s0.762-0.497 1.22-0.498h8.365c0.458-0 0.897 0.178 1.222 0.497s0.506 0.75 0.507 1.201v8.233z"/><path d="M47.347 21.629c-0.073-0.072-0.159-0.129-0.254-0.168s-0.197-0.059-0.3-0.059c-0.103 0-0.205 0.020-0.3 0.059s-0.182 0.096-0.254 0.168l-4.467 4.394-1.956-1.925c-0.073-0.072-0.159-0.129-0.254-0.167s-0.197-0.059-0.3-0.059c-0.208 0-0.407 0.081-0.555 0.226s-0.23 0.341-0.23 0.546c0 0.205 0.083 0.401 0.23 0.546l2.509 2.469c0.073 0.072 0.159 0.129 0.254 0.168s0.197 0.059 0.3 0.059 0.205-0.020 0.3-0.059c0.095-0.039 0.182-0.096 0.254-0.168l5.023-4.939c0.073-0.072 0.13-0.157 0.17-0.25s0.060-0.194 0.060-0.295c0-0.101-0.020-0.201-0.060-0.295s-0.097-0.178-0.17-0.25z"/><path d="M17.511 21.402h-16.728c-0.208 0-0.407 0.081-0.553 0.226s-0.229 0.34-0.229 0.545c0 0.204 0.082 0.4 0.229 0.545s0.346 0.226 0.553 0.226h16.728c0.208 0 0.407-0.081 0.553-0.226s0.229-0.34 0.229-0.545c0-0.204-0.082-0.4-0.229-0.545s-0.346-0.226-0.553-0.226z"/><path d="M30.063 21.402h-9.203c-0.208 0-0.407 0.081-0.553 0.226s-0.229 0.34-0.229 0.545c0 0.204 0.082 0.4 0.229 0.545s0.346 0.226 0.553 0.226h9.202c0.207 0 0.407-0.081 0.553-0.226s0.229-0.34 0.229-0.545c0-0.204-0.082-0.4-0.229-0.545s-0.346-0.226-0.553-0.226h0.001z"/><path d="M30.063 26.342h-3.347c-0.207 0-0.407 0.081-0.553 0.226s-0.229 0.34-0.229 0.545c0 0.204 0.082 0.4 0.229 0.545s0.346 0.226 0.553 0.226h3.347c0.208 0 0.407-0.081 0.553-0.226s0.229-0.34 0.229-0.545c0-0.204-0.082-0.4-0.229-0.545s-0.346-0.226-0.553-0.226z"/><path d="M7.477 26.342h-6.694c-0.208 0-0.407 0.081-0.553 0.226s-0.229 0.34-0.229 0.545c0 0.204 0.082 0.4 0.229 0.545s0.346 0.226 0.553 0.226h6.694c0.208 0 0.407-0.081 0.553-0.226s0.229-0.34 0.229-0.545c0-0.204-0.082-0.4-0.229-0.545s-0.346-0.226-0.553-0.226z"/><path d="M23.37 26.342h-12.548c-0.208 0-0.407 0.081-0.553 0.226s-0.229 0.34-0.229 0.545c0 0.204 0.082 0.4 0.229 0.545s0.346 0.226 0.553 0.226h12.548c0.208 0 0.407-0.081 0.553-0.226s0.229-0.34 0.229-0.545-0.082-0.4-0.229-0.545c-0.147-0.144-0.346-0.226-0.553-0.226z"/></svg>