<svg xmlns="http://www.w3.org/2000/svg" width="52" height="32" viewBox="0 0 52 32"><path d="M11.188 25.417c-0.516 0-0.935 0.421-0.935 0.94 0 0.498-0.403 0.904-0.899 0.904s-0.899-0.405-0.899-0.904c0-0.498 0.403-0.903 0.899-0.903 0.516 0 0.935-0.421 0.935-0.94s-0.419-0.94-0.935-0.94c-1.527 0-2.769 1.249-2.769 2.783s1.242 2.784 2.769 2.784c1.527 0 2.769-1.249 2.769-2.784 0-0.519-0.419-0.94-0.935-0.94z"/><path d="M44.894 25.417c-0.516 0-0.935 0.421-0.935 0.94 0 0.498-0.403 0.904-0.898 0.904s-0.899-0.405-0.899-0.904c0-0.498 0.403-0.903 0.899-0.903 0.517 0 0.935-0.421 0.935-0.94s-0.419-0.94-0.935-0.94c-1.527 0-2.769 1.249-2.769 2.783s1.242 2.784 2.769 2.784c1.527 0 2.769-1.249 2.769-2.784 0-0.519-0.419-0.94-0.935-0.94z"/><path d="M52.234 13.396l-3.585-6.106c-1.23-2.062-2.39-3.266-4.712-3.47-0.076-0.020-0.156-0.031-0.239-0.031h-7.172v-1.909c0-1.037-0.839-1.88-1.87-1.88h-32.786c-1.031 0-1.87 0.843-1.87 1.88v23.537c0 1.037 0.839 1.88 1.87 1.88h1.951c0.447 2.665 2.757 4.703 5.534 4.703s5.086-2.037 5.533-4.703h22.639c0.447 2.665 2.758 4.703 5.534 4.703s5.086-2.037 5.533-4.703h2.835c0.517 0 0.935-0.421 0.935-0.94v-12.483c0-0.168-0.045-0.333-0.13-0.478zM48.673 16.998c0-0.518 0.419-0.94 0.935-0.94h0.886v1.85h-1.821v-0.911zM49.933 13.176h-8.59c-0.062-0.013-0.125-0.020-0.191-0.020-0.526 0-0.954-0.43-0.954-0.959v-3.767h6.949l2.786 4.745zM1.87 1.88h32.786v23.537h-19.768c-0.446-2.665-2.757-4.703-5.533-4.703s-5.087 2.037-5.534 4.703h-1.951v-23.537zM9.355 30.12c-2.064 0-3.743-1.688-3.743-3.763s1.679-3.762 3.743-3.762c2.063 0 3.742 1.688 3.742 3.762s-1.679 3.763-3.742 3.763zM43.060 30.12c-2.064 0-3.743-1.688-3.743-3.763s1.679-3.762 3.743-3.762c2.063 0 3.742 1.688 3.742 3.762s-1.679 3.763-3.742 3.763zM48.593 25.417c-0.447-2.665-2.757-4.703-5.533-4.703s-5.087 2.037-5.534 4.703h-1.001v-19.748h6.671c1.193 0 1.939 0.253 2.596 0.881h-6.53c-0.516 0-0.935 0.421-0.935 0.94v4.707c0 1.487 1.143 2.711 2.592 2.829 0.074 0.019 0.152 0.029 0.232 0.029h6.425c-0.479 0.506-0.775 1.19-0.775 1.942v1.851c0 0.519 0.419 0.94 0.935 0.94h2.756v5.629l-1.9 0z"/><path d="M4.713 5.669h27.097c0.516 0 0.935-0.421 0.935-0.94s-0.419-0.94-0.935-0.94h-27.097c-0.516 0-0.935 0.421-0.935 0.94s0.419 0.94 0.935 0.94z"/></svg>