<svg width="15" height="15" viewBox="0 0 15 15" fill="none" xmlns="http://www.w3.org/2000/svg"><path d="M13.9817 7.49951H12.9635C12.963 9.01154 12.3537 10.3711 11.3631 11.3631C10.3713 12.3532 9.01214 12.9631 7.50021 12.9634C5.98868 12.9631 4.62908 12.3532 3.63687 11.3631C2.6467 10.3708 2.03736 9.01154 2.03655 7.49951C2.03736 5.98765 2.6467 4.62837 3.63687 3.63646C4.62908 2.64634 5.98868 2.03694 7.50021 2.03662C9.01214 2.03694 10.3717 2.64634 11.3635 3.63646C12.3537 4.62837 12.963 5.98765 12.9635 7.49951H13.9817H15C14.9996 3.35675 11.6425 0.000325398 7.50021 -1.23183e-07C5.4327 -0.000814942 3.55133 0.840713 2.19703 2.1962C0.841093 3.55023 -0.000407162 5.43153 1.47795e-07 7.49951C0.000814767 11.6424 3.35827 14.9992 7.50021 15C11.6425 14.9992 14.9996 11.6424 15 7.49951H13.9817Z" fill="#376BC7"/></svg>