<svg width="494" height="403" viewBox="0 0 494 403" fill="none" xmlns="http://www.w3.org/2000/svg"><path d="M478.833 401.617L478.302 400.772C478.05 400.931 477.777 401.003 477.503 401.004C477.253 401.004 477.004 400.941 476.784 400.822C476.564 400.703 476.373 400.531 476.228 400.301V400.3C476.07 400.048 475.997 399.775 475.996 399.501C475.996 399.251 476.059 399.002 476.178 398.782C476.297 398.562 476.469 398.372 476.699 398.227C476.95 398.07 477.222 397.997 477.497 397.996C477.747 397.996 477.996 398.059 478.216 398.178C478.437 398.297 478.628 398.47 478.773 398.699L478.773 398.7C478.931 398.951 479.003 399.224 479.004 399.498C479.004 399.748 478.941 399.997 478.822 400.217C478.703 400.438 478.53 400.628 478.301 400.773L478.302 400.772L478.833 401.617L479.365 402.462C479.89 402.132 480.303 401.678 480.579 401.165C480.856 400.652 481 400.079 481 399.498C481.001 398.861 480.825 398.212 480.462 397.637L480.462 397.637C480.132 397.111 479.678 396.698 479.165 396.422C478.652 396.145 478.078 396 477.497 396C476.861 396 476.212 396.175 475.637 396.537C475.11 396.868 474.698 397.321 474.422 397.834C474.145 398.347 474 398.919 474 399.501C474 400.137 474.175 400.787 474.538 401.363V401.363C474.868 401.889 475.322 402.302 475.835 402.578C476.348 402.855 476.921 403 477.503 403C478.139 403 478.788 402.825 479.364 402.463L479.365 402.462L478.833 401.617Z" fill="#FBF659"/><path d="M122.914 189.999H121.828C121.827 191.612 121.177 193.063 120.121 194.121C119.063 195.177 117.613 195.827 116 195.828C114.388 195.827 112.938 195.177 111.879 194.121C110.823 193.062 110.173 191.612 110.172 189.999C110.173 188.387 110.823 186.937 111.879 185.879C112.938 184.823 114.388 184.173 116 184.172C117.613 184.173 119.063 184.823 120.121 185.879C121.177 186.937 121.827 188.387 121.828 189.999H122.914H124C124 185.581 120.419 182 116 182C113.795 181.999 111.788 182.897 110.343 184.343C108.897 185.787 108 187.794 108 189.999C108.001 194.419 111.582 197.999 116 198C120.419 197.999 124 194.419 124 189.999H122.914Z" fill="#FBF659"/><path d="M429.833 6.61739L429.302 5.77219C429.05 5.93069 428.777 6.00337 428.503 6.00376C428.253 6.00376 428.004 5.94107 427.784 5.8221C427.564 5.70272 427.373 5.53064 427.228 5.30068V5.29988C427.07 5.04755 426.997 4.77487 426.996 4.50058C426.996 4.25106 427.059 4.00233 427.178 3.78235C427.297 3.56236 427.469 3.37192 427.699 3.22699C427.95 3.06969 428.222 2.99663 428.497 2.99623C428.747 2.99623 428.996 3.05891 429.216 3.17788C429.437 3.29726 429.628 3.46974 429.773 3.6993L429.773 3.7001C429.931 3.95123 430.003 4.22351 430.004 4.4978C430.004 4.74773 429.941 4.99686 429.822 5.21724C429.703 5.43762 429.53 5.62846 429.301 5.77299L429.302 5.77219L429.833 6.61739L430.365 7.46221C430.89 7.13163 431.303 6.67809 431.579 6.16545C431.856 5.65202 432 5.0791 432 4.4978C432.001 3.8614 431.825 3.21222 431.462 2.6365L431.462 2.63691C431.132 2.1107 430.678 1.69789 430.165 1.42161C429.652 1.14453 429.078 1 428.497 1C427.861 0.999601 427.212 1.17487 426.637 1.53738C426.11 1.86756 425.698 2.3207 425.422 2.83373C425.145 3.34676 425 3.91928 425 4.50058C425 5.13738 425.175 5.78697 425.538 6.36309V6.36268C425.868 6.88889 426.322 7.30171 426.835 7.57839C427.348 7.85547 427.921 8 428.503 8C429.139 8.0004 429.788 7.82511 430.364 7.4626L430.365 7.46221L429.833 6.61739Z" fill="#FBF659"/><path d="M1.68666 150.71L11.7104 140.687C12.0965 140.301 12.0965 139.675 11.7104 139.29C11.3247 138.903 10.6991 138.903 10.3133 139.29L0.289591 149.313C-0.0965304 149.699 -0.0965304 150.325 0.289591 150.71C0.675317 151.097 1.30093 151.097 1.68666 150.71Z" fill="#FBF659"/><path d="M308.172 7.92406C308.173 6.32647 308.823 4.89044 309.88 3.84239C310.938 2.79619 312.388 2.1523 314 2.15187C315.613 2.1523 317.063 2.79619 318.121 3.84239C319.177 4.88992 319.827 6.32647 319.828 7.92406C319.828 8.51802 320.314 9 320.914 9C321.514 9 322 8.51802 322 7.92406C322 3.54668 318.419 0.000429817 314 -4.80811e-07C311.795 -0.000861076 309.788 0.888295 308.344 2.32058C306.898 3.75076 306 5.73858 306 7.92406C306 8.51802 306.487 9 307.086 9C307.686 9 308.172 8.51802 308.172 7.92406Z" fill="#FBF659"/><path d="M387.979 176H402.021C402.562 176 403 175.552 403 175C403 174.448 402.562 174 402.021 174H387.979C387.438 174 387 174.448 387 175C387 175.552 387.438 176 387.979 176Z" fill="#FBF659"/><path d="M491.043 125.001L491.945 125.256L493.968 117.244C494.055 116.902 493.962 116.538 493.726 116.289C493.49 116.039 493.146 115.942 492.824 116.034L485.259 118.188V118.187L477.692 120.339C477.369 120.431 477.118 120.697 477.032 121.039C476.945 121.38 477.038 121.743 477.274 121.993L482.818 127.85L482.818 127.85L488.361 133.711C488.597 133.96 488.941 134.058 489.263 133.966C489.585 133.874 489.836 133.608 489.923 133.267L491.945 125.256L491.043 125.001L490.141 124.746L488.536 131.102L484.138 126.452L484.137 126.451L479.739 121.804L485.744 120.096H485.744L491.746 118.388L490.141 124.746L491.043 125.001Z" fill="#FBF659"/><path d="M445.649 298.867L438.871 292.51C438.424 292.09 437.72 292.112 437.301 292.56C436.881 293.008 436.903 293.711 437.351 294.13L444.129 300.488C444.576 300.907 445.279 300.885 445.699 300.437C446.119 299.99 446.097 299.286 445.649 298.867Z" fill="#FBF659"/><path d="M439.131 300.649L445.489 293.871C445.909 293.423 445.886 292.72 445.438 292.301C444.991 291.881 444.288 291.903 443.868 292.351L437.51 299.129C437.091 299.577 437.113 300.28 437.561 300.699C438.008 301.119 438.711 301.097 439.131 300.649Z" fill="#FBF659"/><path d="M192.739 330.996L193.615 330.511L189.365 323.483C189.184 323.184 188.85 323 188.488 323C188.126 323 187.793 323.185 187.612 323.484L183.375 330.516L179.135 337.55C178.955 337.849 178.955 338.218 179.136 338.517C179.317 338.816 179.651 339 180.012 339L188.5 338.993L196.989 338.99C197.35 338.989 197.684 338.805 197.865 338.505C198.045 338.206 198.045 337.837 197.864 337.538L193.615 330.511L192.739 330.996L191.863 331.48L195.235 337.055L188.499 337.059L181.764 337.064L185.129 331.482L188.49 325.903L191.863 331.48L192.739 330.996Z" fill="#FBF659"/><path d="M229.091 117.091V118.183H241.817V129.817H230.183V117.091H229.091H228V130.909C228 131.196 228.117 131.477 228.32 131.68C228.523 131.884 228.804 132 229.091 132H242.909C243.196 132 243.477 131.884 243.68 131.68C243.883 131.477 244 131.196 244 130.909V117.091C244 116.804 243.883 116.522 243.68 116.32C243.477 116.116 243.196 116 242.909 116H229.091C228.804 116 228.523 116.116 228.32 116.32C228.117 116.522 228 116.804 228 117.091H229.091Z" fill="#FBF659"/><path d="M123.102 17.9722C122.896 17.9706 122.772 17.9341 122.646 17.8724C122.536 17.8177 122.423 17.7333 122.298 17.6031C122.078 17.3776 121.84 17.0078 121.59 16.5621C121.208 15.8953 120.808 15.0643 120.126 14.3279C119.784 13.9612 119.36 13.6206 118.838 13.3789C118.318 13.1359 117.708 13.0009 117.042 13.0021C116.467 13.0021 116 13.4563 116 14.016C116 14.576 116.467 15.0299 117.042 15.0299C117.381 15.0307 117.633 15.085 117.848 15.169C118.035 15.2432 118.198 15.3434 118.357 15.4764C118.636 15.7071 118.899 16.0511 119.156 16.4716C119.548 17.1006 119.897 17.8797 120.443 18.5996C120.719 18.9577 121.057 19.3081 121.507 19.5745C121.954 19.8426 122.512 20.0032 123.102 20C123.678 20 124.145 19.5461 124.145 18.9861C124.145 18.426 123.678 17.9722 123.102 17.9722Z" fill="#FBF659"/><path d="M135.006 17.97C134.799 17.9684 134.675 17.9319 134.549 17.8702C134.44 17.8154 134.327 17.7311 134.201 17.6009C133.982 17.3754 133.743 17.0055 133.493 16.5598C133.111 15.893 132.712 15.0624 132.03 14.3254C131.688 13.9592 131.264 13.6185 130.742 13.3768C130.221 13.1338 129.611 12.9988 128.946 13C128.37 13 127.904 13.4542 127.904 14.0139C127.904 14.5741 128.37 15.0279 128.946 15.0279C129.285 15.0287 129.537 15.0831 129.751 15.167C129.939 15.2412 130.101 15.3414 130.261 15.4744C130.539 15.7052 130.803 16.0491 131.06 16.4697C131.451 17.0988 131.8 17.8779 132.346 18.5974C132.622 18.9555 132.96 19.306 133.41 19.5724C133.857 19.8405 134.416 20.0011 135.006 19.9979C135.582 19.9979 136.048 19.544 136.048 18.9839C136.048 18.4238 135.582 17.97 135.006 17.97Z" fill="#FBF659"/><path d="M122.994 19.9979C123.508 19.9999 123.998 19.8807 124.411 19.6706C124.773 19.4877 125.073 19.2447 125.322 18.9852C125.758 18.5277 126.057 18.0215 126.333 17.5368C126.74 16.808 127.102 16.1218 127.512 15.6902C127.716 15.4724 127.921 15.3163 128.155 15.2072C128.391 15.0993 128.664 15.0291 129.054 15.0279C129.63 15.0279 130.096 14.5741 130.096 14.0139C130.096 13.4542 129.63 13 129.054 13C128.474 12.9992 127.938 13.1006 127.464 13.2884C127.05 13.4518 126.688 13.6785 126.381 13.9357C125.842 14.3879 125.465 14.92 125.151 15.4298C124.686 16.1964 124.336 16.9341 123.984 17.3831C123.811 17.609 123.65 17.7554 123.507 17.8398C123.361 17.9225 123.231 17.9667 122.994 17.97C122.418 17.97 121.952 18.4238 121.952 18.9839C121.952 19.544 122.418 19.9979 122.994 19.9979Z" fill="#FBF659"/><path d="M134.898 19.9979C135.411 19.9995 135.902 19.8807 136.314 19.6702C136.677 19.4877 136.976 19.2447 137.225 18.9848C137.661 18.5277 137.96 18.0211 138.236 17.5364C138.643 16.808 139.005 16.1214 139.415 15.6902C139.62 15.4724 139.825 15.3163 140.059 15.2072C140.294 15.0993 140.568 15.0291 140.957 15.0279V14.0168L140.871 15.0247C140.913 15.0279 140.943 15.0279 140.957 15.0279V14.0168L140.871 15.0247C141.445 15.0709 141.949 14.6564 141.996 14.0983C142.044 13.5402 141.618 13.0499 141.045 13.0036C141.002 13.0004 140.972 13 140.957 13C140.378 12.9996 139.841 13.1006 139.367 13.2884C138.953 13.4514 138.591 13.6785 138.284 13.9357C137.745 14.3879 137.368 14.92 137.054 15.4298C136.589 16.196 136.239 16.9341 135.887 17.3827C135.714 17.609 135.554 17.7554 135.41 17.8398C135.264 17.9225 135.134 17.9667 134.897 17.97C134.322 17.97 133.855 18.4242 133.855 18.9844C133.856 19.5441 134.322 19.9979 134.898 19.9979Z" fill="#FBF659"/><path d="M349.972 336.898C349.971 337.104 349.934 337.228 349.872 337.354C349.818 337.464 349.733 337.577 349.603 337.702C349.378 337.922 349.008 338.16 348.562 338.41C347.895 338.792 347.064 339.192 346.328 339.874C345.961 340.216 345.621 340.64 345.379 341.162C345.136 341.682 345.001 342.292 345.002 342.958C345.002 343.533 345.456 344 346.016 344C346.576 344 347.03 343.533 347.03 342.958C347.031 342.619 347.085 342.367 347.169 342.152C347.243 341.965 347.343 341.802 347.476 341.643C347.707 341.364 348.051 341.101 348.472 340.844C349.101 340.452 349.88 340.103 350.6 339.557C350.958 339.281 351.308 338.943 351.575 338.493C351.843 338.046 352.003 337.488 352 336.898C352 336.322 351.546 335.855 350.986 335.855C350.426 335.855 349.972 336.322 349.972 336.898Z" fill="#FBF659"/><path d="M349.97 324.994C349.968 325.201 349.932 325.325 349.87 325.451C349.815 325.56 349.731 325.673 349.601 325.799C349.375 326.018 349.006 326.257 348.56 326.507C347.893 326.889 347.062 327.288 346.325 327.97C345.959 328.312 345.619 328.736 345.377 329.258C345.134 329.779 344.999 330.389 345 331.054C345 331.63 345.454 332.096 346.014 332.096C346.574 332.096 347.028 331.63 347.028 331.054C347.029 330.715 347.083 330.463 347.167 330.249C347.241 330.061 347.341 329.899 347.474 329.739C347.705 329.461 348.049 329.197 348.47 328.94C349.099 328.549 349.878 328.2 350.597 327.654C350.956 327.378 351.306 327.04 351.572 326.59C351.841 326.143 352.001 325.584 351.998 324.994C351.998 324.418 351.544 323.952 350.984 323.952C350.424 323.952 349.97 324.418 349.97 324.994Z" fill="#FBF659"/><path d="M351.998 337.006C352 336.492 351.881 336.002 351.671 335.589C351.488 335.227 351.245 334.927 350.985 334.678C350.528 334.242 350.022 333.943 349.537 333.667C348.808 333.26 348.122 332.898 347.69 332.488C347.472 332.284 347.316 332.079 347.207 331.845C347.099 331.609 347.029 331.336 347.028 330.946C347.028 330.37 346.574 329.904 346.014 329.904C345.454 329.904 345 330.37 345 330.946C344.999 331.526 345.101 332.062 345.288 332.536C345.452 332.95 345.679 333.312 345.936 333.619C346.388 334.158 346.92 334.535 347.43 334.849C348.196 335.314 348.934 335.664 349.383 336.016C349.609 336.189 349.755 336.35 349.84 336.493C349.923 336.639 349.967 336.769 349.97 337.006C349.97 337.582 350.424 338.048 350.984 338.048C351.544 338.048 351.998 337.582 351.998 337.006Z" fill="#FBF659"/><path d="M351.998 325.102C352 324.589 351.881 324.098 351.67 323.686C351.488 323.323 351.245 323.024 350.985 322.775C350.528 322.339 350.021 322.04 349.536 321.764C348.808 321.357 348.121 320.995 347.69 320.585C347.472 320.38 347.316 320.175 347.207 319.941C347.099 319.706 347.029 319.432 347.028 319.043H346.017L347.025 319.129C347.028 319.087 347.028 319.057 347.028 319.043H346.017L347.025 319.129C347.071 318.555 346.656 318.051 346.098 318.004C345.54 317.956 345.05 318.382 345.004 318.955C345 318.998 345 319.028 345 319.043C345 319.622 345.101 320.159 345.288 320.633C345.451 321.047 345.679 321.409 345.936 321.716C346.388 322.255 346.92 322.632 347.43 322.946C348.196 323.411 348.934 323.761 349.383 324.113C349.609 324.286 349.755 324.446 349.84 324.59C349.923 324.736 349.967 324.866 349.97 325.103C349.97 325.678 350.424 326.145 350.984 326.145C351.544 326.144 351.998 325.678 351.998 325.102Z" fill="#FBF659"/><path d="M277.833 218.617L277.302 217.772C277.05 217.931 276.777 218.003 276.503 218.004C276.253 218.004 276.004 217.941 275.784 217.822C275.564 217.703 275.373 217.531 275.228 217.301V217.3C275.07 217.048 274.997 216.775 274.996 216.501C274.996 216.251 275.059 216.002 275.178 215.782C275.297 215.562 275.469 215.372 275.699 215.227C275.95 215.07 276.222 214.997 276.497 214.996C276.747 214.996 276.996 215.059 277.216 215.178C277.437 215.297 277.628 215.47 277.773 215.699L277.773 215.7C277.931 215.951 278.003 216.224 278.004 216.498C278.004 216.748 277.941 216.997 277.822 217.217C277.703 217.438 277.53 217.628 277.301 217.773L277.302 217.772L277.833 218.617L278.365 219.462C278.89 219.132 279.303 218.678 279.579 218.165C279.856 217.652 280 217.079 280 216.498C280.001 215.861 279.825 215.212 279.462 214.637L279.462 214.637C279.132 214.111 278.678 213.698 278.165 213.422C277.652 213.145 277.078 213 276.497 213C275.861 213 275.212 213.175 274.637 213.537C274.11 213.868 273.698 214.321 273.422 214.834C273.145 215.347 273 215.919 273 216.501C273 217.137 273.175 217.787 273.538 218.363V218.363C273.868 218.889 274.322 219.302 274.835 219.578C275.348 219.855 275.921 220 276.503 220C277.139 220 277.788 219.825 278.364 219.463L278.365 219.462L277.833 218.617Z" fill="#FBF659"/></svg>