<svg width="543" height="248" viewBox="0 0 543 248" fill="none" xmlns="http://www.w3.org/2000/svg"><path d="M518.479 172.175L517.948 171.33C517.695 171.489 517.423 171.561 517.148 171.562C516.898 171.562 516.649 171.499 516.43 171.38C516.209 171.261 516.019 171.089 515.874 170.859V170.858C515.715 170.606 515.642 170.333 515.642 170.059C515.642 169.809 515.705 169.56 515.824 169.34C515.943 169.12 516.115 168.93 516.345 168.785C516.596 168.628 516.868 168.555 517.143 168.554C517.393 168.554 517.642 168.617 517.862 168.736C518.083 168.855 518.273 169.028 518.418 169.257L518.419 169.258C518.576 169.509 518.649 169.782 518.65 170.056C518.65 170.306 518.587 170.555 518.468 170.775C518.348 170.996 518.176 171.187 517.947 171.331L517.948 171.33L518.479 172.175L519.01 173.02C519.536 172.69 519.948 172.236 520.225 171.724C520.502 171.21 520.646 170.637 520.646 170.056C520.647 169.42 520.471 168.77 520.108 168.195L520.108 168.195C519.777 167.669 519.324 167.256 518.811 166.98C518.297 166.703 517.724 166.558 517.143 166.558C516.507 166.558 515.858 166.733 515.282 167.095C514.756 167.426 514.344 167.879 514.067 168.392C513.79 168.905 513.646 169.477 513.646 170.059C513.645 170.695 513.821 171.345 514.184 171.921V171.921C514.514 172.447 514.968 172.86 515.48 173.136C515.994 173.414 516.567 173.558 517.148 173.558C517.784 173.559 518.434 173.383 519.01 173.021L519.01 173.02L518.479 172.175Z" fill="#FBF659"/><path d="M253.833 246.617L253.302 245.772C253.05 245.931 252.777 246.003 252.503 246.004C252.253 246.004 252.004 245.941 251.784 245.822C251.564 245.703 251.373 245.531 251.228 245.301V245.3C251.07 245.048 250.997 244.775 250.996 244.501C250.996 244.251 251.059 244.002 251.178 243.782C251.297 243.562 251.469 243.372 251.699 243.227C251.95 243.07 252.222 242.997 252.497 242.996C252.747 242.996 252.996 243.059 253.216 243.178C253.437 243.297 253.628 243.47 253.773 243.699L253.773 243.7C253.931 243.951 254.003 244.224 254.004 244.498C254.004 244.748 253.941 244.997 253.822 245.217C253.703 245.438 253.53 245.628 253.301 245.773L253.302 245.772L253.833 246.617L254.365 247.462C254.89 247.132 255.303 246.678 255.579 246.165C255.856 245.652 256 245.079 256 244.498C256.001 243.861 255.825 243.212 255.462 242.637L255.462 242.637C255.132 242.111 254.678 241.698 254.165 241.422C253.652 241.145 253.078 241 252.497 241C251.861 241 251.212 241.175 250.637 241.537C250.11 241.868 249.698 242.321 249.422 242.834C249.145 243.347 249 243.919 249 244.501C249 245.137 249.175 245.787 249.538 246.363V246.363C249.868 246.889 250.322 247.302 250.835 247.578C251.348 247.855 251.921 248 252.503 248C253.139 248 253.788 247.825 254.364 247.463L254.365 247.462L253.833 246.617Z" fill="#FBF659"/><path d="M219.833 67.6174L219.302 66.7722C219.05 66.9307 218.777 67.0034 218.503 67.0038C218.253 67.0038 218.004 66.9411 217.784 66.8221C217.564 66.7027 217.373 66.5306 217.228 66.3007V66.2999C217.07 66.0476 216.997 65.7749 216.996 65.5006C216.996 65.2511 217.059 65.0023 217.178 64.7823C217.297 64.5624 217.469 64.3719 217.699 64.227C217.95 64.0697 218.222 63.9966 218.497 63.9962C218.747 63.9962 218.996 64.0589 219.216 64.1779C219.437 64.2973 219.628 64.4697 219.773 64.6993L219.773 64.7001C219.931 64.9512 220.003 65.2235 220.004 65.4978C220.004 65.7477 219.941 65.9969 219.822 66.2172C219.703 66.4376 219.53 66.6285 219.301 66.773L219.302 66.7722L219.833 67.6174L220.365 68.4622C220.89 68.1316 221.303 67.6781 221.579 67.1655C221.856 66.652 222 66.0791 222 65.4978C222.001 64.8614 221.825 64.2122 221.462 63.6365L221.462 63.6369C221.132 63.1107 220.678 62.6979 220.165 62.4216C219.652 62.1445 219.078 62 218.497 62C217.861 61.9996 217.212 62.1749 216.637 62.5374C216.11 62.8676 215.698 63.3207 215.422 63.8337C215.145 64.3468 215 64.9193 215 65.5006C215 66.1374 215.175 66.787 215.538 67.3631V67.3627C215.868 67.8889 216.322 68.3017 216.835 68.5784C217.348 68.8555 217.921 69 218.503 69C219.139 69.0004 219.788 68.8251 220.364 68.4626L220.365 68.4622L219.833 67.6174Z" fill="#FBF659"/><path d="M457.091 1.09129V2.18258H469.817V13.8174H458.183V1.09129H457.091H456V14.9087C456 15.196 456.117 15.477 456.32 15.6804C456.523 15.8835 456.804 16 457.091 16H470.909C471.196 16 471.477 15.8835 471.68 15.6804C471.883 15.477 472 15.196 472 14.9087V1.09129C472 0.803625 471.883 0.522422 471.68 0.31953C471.477 0.116114 471.196 -6.35782e-08 470.909 -6.35782e-08H457.091C456.804 -6.35782e-08 456.523 0.116114 456.32 0.31953C456.117 0.522422 456 0.803625 456 1.09129H457.091Z" fill="#FBF659"/><path d="M315.624 170.558H329.667C330.208 170.558 330.646 170.11 330.646 169.558C330.646 169.006 330.208 168.558 329.667 168.558H315.624C315.084 168.558 314.646 169.006 314.646 169.558C314.646 170.11 315.084 170.558 315.624 170.558Z" fill="#FBF659"/><path d="M0.978737 147H15.0213C15.5619 147 16 146.552 16 146C16 145.448 15.5619 145 15.0213 145H0.978737C0.438083 145 0 145.448 0 146C0 146.552 0.438083 147 0.978737 147Z" fill="#FBF659"/><path d="M315 23.0213V8.97874C315 8.43808 314.552 8 314 8C313.448 8 313 8.43808 313 8.97874V23.0213C313 23.5619 313.448 24 314 24C314.552 24 315 23.5619 315 23.0213Z" fill="#FBF659"/><path d="M409.56 110.558H408.473C408.473 112.17 407.823 113.621 406.766 114.679C405.709 115.735 404.259 116.385 402.646 116.386C401.034 116.385 399.583 115.735 398.525 114.679C397.469 113.62 396.819 112.17 396.818 110.558C396.819 108.945 397.469 107.495 398.525 106.437C399.583 105.381 401.034 104.731 402.646 104.73C404.259 104.731 405.709 105.381 406.767 106.437C407.823 107.495 408.473 108.945 408.473 110.558H409.56H410.646C410.645 106.139 407.064 102.558 402.646 102.558C400.441 102.557 398.434 103.455 396.989 104.901C395.543 106.345 394.645 108.352 394.646 110.558C394.647 114.977 398.228 118.557 402.646 118.558C407.064 118.557 410.645 114.977 410.646 110.558H409.56Z" fill="#FBF659"/><path d="M72.9138 174.999H71.8277C71.8272 176.612 71.1773 178.063 70.1207 179.121C69.0628 180.177 67.613 180.827 66.0002 180.828C64.3879 180.827 62.9377 180.177 61.8793 179.121C60.8231 178.062 60.1732 176.612 60.1723 174.999C60.1732 173.387 60.8231 171.937 61.8793 170.879C62.9377 169.823 64.3879 169.173 66.0002 169.172C67.613 169.173 69.0632 169.823 70.1211 170.879C71.1773 171.937 71.8272 173.387 71.8277 174.999H72.9138H74C73.9996 170.581 70.4187 167 66.0002 167C63.7949 166.999 61.7881 167.897 60.3435 169.343C58.8972 170.787 57.9996 172.794 58 174.999C58.0009 179.419 61.5822 182.999 66.0002 183C70.4187 182.999 73.9996 179.419 74 174.999H72.9138Z" fill="#FBF659"/><path d="M541.618 84.4558C541.616 84.6623 541.58 84.7865 541.518 84.9126C541.463 85.0217 541.379 85.1349 541.249 85.2603C541.023 85.4799 540.654 85.7184 540.208 85.9682C539.541 86.3502 538.71 86.75 537.974 87.4319C537.607 87.7737 537.266 88.1978 537.025 88.7197C536.782 89.2405 536.647 89.8504 536.648 90.5158C536.648 91.0915 537.102 91.5581 537.662 91.5581C538.222 91.5581 538.676 91.0915 538.676 90.5158C538.676 90.1766 538.731 89.925 538.815 89.7106C538.889 89.5232 538.989 89.3606 539.122 89.2008C539.353 88.9225 539.697 88.6587 540.117 88.4019C540.746 88.0103 541.525 87.6614 542.245 87.1153C542.603 86.8396 542.954 86.5012 543.22 86.0514C543.488 85.6044 543.649 85.0461 543.646 84.4558C543.646 83.8801 543.192 83.4135 542.632 83.4135C542.072 83.4135 541.618 83.8801 541.618 84.4558Z" fill="#FBF659"/><path d="M541.616 72.5522C541.614 72.759 541.578 72.8832 541.516 73.0091C541.461 73.1182 541.377 73.2314 541.247 73.3568C541.021 73.5765 540.651 73.8147 540.206 74.0647C539.539 74.4468 538.708 74.8466 537.971 75.5283C537.605 75.8702 537.264 76.2941 537.023 76.8161C536.78 77.3369 536.645 77.9468 536.646 78.6122C536.646 79.1879 537.1 79.6545 537.66 79.6545C538.22 79.6545 538.674 79.1879 538.674 78.6122C538.674 78.273 538.729 78.0214 538.813 77.807C538.887 77.6196 538.987 77.4571 539.12 77.2973C539.351 77.019 539.695 76.7553 540.115 76.4985C540.745 76.107 541.524 75.758 542.243 75.2119C542.601 74.9362 542.952 74.5978 543.218 74.1479C543.486 73.7009 543.647 73.1425 543.644 72.5522C543.644 71.9764 543.19 71.5099 542.63 71.5099C542.07 71.5099 541.616 71.9764 541.616 72.5522Z" fill="#FBF659"/><path d="M543.644 84.5641C543.646 84.0505 543.526 83.5602 543.316 83.1475C543.133 82.7854 542.89 82.4856 542.631 82.2363C542.173 81.8005 541.667 81.501 541.183 81.2252C540.454 80.8185 539.768 80.4565 539.336 80.046C539.118 79.8416 538.962 79.6368 538.853 79.4026C538.745 79.1673 538.675 78.8937 538.674 78.5039C538.674 77.9282 538.22 77.4617 537.66 77.4617C537.1 77.4617 536.646 77.9282 536.646 78.5039C536.645 79.0836 536.746 79.6205 536.934 80.0937C537.098 80.5082 537.324 80.8698 537.581 81.1771C538.034 81.716 538.566 82.0933 539.076 82.4076C539.842 82.8725 540.58 83.2219 541.029 83.574C541.255 83.7473 541.401 83.9077 541.486 84.0511C541.568 84.1975 541.612 84.3272 541.616 84.5641C541.616 85.1397 542.07 85.6063 542.63 85.6063C543.19 85.6063 543.644 85.1397 543.644 84.5641Z" fill="#FBF659"/><path d="M543.644 72.6604C543.645 72.1467 543.526 71.6565 543.316 71.2437C543.133 70.8814 542.89 70.5817 542.631 70.3328C542.173 69.8967 541.667 69.5978 541.182 69.3218C540.454 68.9153 539.767 68.553 539.336 68.1428C539.118 67.9381 538.962 67.7334 538.853 67.4995C538.745 67.264 538.675 66.9905 538.674 66.6007H537.663L538.67 66.687C538.674 66.6453 538.674 66.6153 538.674 66.6007H537.663L538.67 66.687C538.717 66.1133 538.302 65.6093 537.744 65.5618C537.186 65.5138 536.696 65.9399 536.649 66.5136C536.646 66.5557 536.646 66.5857 536.646 66.6007C536.645 67.1802 536.746 67.7172 536.934 68.1908C537.097 68.6047 537.324 68.9666 537.581 69.2739C538.034 69.8129 538.566 70.1902 539.076 70.5041C539.842 70.969 540.58 71.3188 541.028 71.6706C541.255 71.8441 541.401 72.0042 541.486 72.148C541.568 72.2943 541.613 72.424 541.616 72.6608C541.616 73.2363 542.07 73.7027 542.63 73.7027C543.19 73.7025 543.644 73.236 543.644 72.6604Z" fill="#FBF659"/><path d="M142.102 28.9722C141.896 28.9706 141.772 28.9341 141.646 28.8724C141.536 28.8177 141.423 28.7333 141.298 28.6031C141.078 28.3776 140.84 28.0078 140.59 27.5621C140.208 26.8953 139.808 26.0643 139.126 25.3279C138.784 24.9612 138.36 24.6206 137.838 24.3789C137.318 24.1359 136.708 24.0009 136.042 24.0021C135.467 24.0021 135 24.4563 135 25.016C135 25.576 135.467 26.0299 136.042 26.0299C136.381 26.0307 136.633 26.085 136.848 26.169C137.035 26.2432 137.198 26.3434 137.357 26.4764C137.636 26.7071 137.899 27.0511 138.156 27.4716C138.548 28.1006 138.897 28.8797 139.443 29.5996C139.719 29.9577 140.057 30.3081 140.507 30.5745C140.954 30.8426 141.512 31.0032 142.102 31C142.678 31 143.145 30.5461 143.145 29.9861C143.145 29.426 142.678 28.9722 142.102 28.9722Z" fill="#FBF659"/><path d="M154.006 28.97C153.799 28.9684 153.675 28.9319 153.549 28.8702C153.44 28.8154 153.327 28.7311 153.201 28.6009C152.982 28.3754 152.743 28.0055 152.493 27.5598C152.111 26.893 151.712 26.0624 151.03 25.3254C150.688 24.9592 150.264 24.6185 149.742 24.3768C149.221 24.1338 148.611 23.9988 147.946 24C147.37 24 146.904 24.4542 146.904 25.0139C146.904 25.5741 147.37 26.0279 147.946 26.0279C148.285 26.0287 148.537 26.0831 148.751 26.167C148.939 26.2412 149.101 26.3414 149.261 26.4744C149.539 26.7052 149.803 27.0491 150.06 27.4697C150.451 28.0988 150.8 28.8779 151.346 29.5974C151.622 29.9555 151.96 30.306 152.41 30.5724C152.857 30.8405 153.416 31.0011 154.006 30.9979C154.582 30.9979 155.048 30.544 155.048 29.9839C155.048 29.4238 154.582 28.97 154.006 28.97Z" fill="#FBF659"/><path d="M141.994 30.9979C142.508 30.9999 142.998 30.8807 143.411 30.6706C143.773 30.4877 144.073 30.2447 144.322 29.9852C144.758 29.5277 145.057 29.0215 145.333 28.5368C145.74 27.808 146.102 27.1218 146.512 26.6902C146.716 26.4724 146.921 26.3163 147.155 26.2072C147.391 26.0993 147.664 26.0291 148.054 26.0279C148.63 26.0279 149.096 25.5741 149.096 25.0139C149.096 24.4542 148.63 24 148.054 24C147.474 23.9992 146.938 24.1006 146.464 24.2884C146.05 24.4518 145.688 24.6785 145.381 24.9357C144.842 25.3879 144.465 25.92 144.151 26.4298C143.686 27.1964 143.336 27.9341 142.984 28.3831C142.811 28.609 142.65 28.7554 142.507 28.8398C142.361 28.9225 142.231 28.9667 141.994 28.97C141.418 28.97 140.952 29.4238 140.952 29.9839C140.952 30.544 141.418 30.9979 141.994 30.9979Z" fill="#FBF659"/><path d="M153.898 30.9979C154.411 30.9995 154.902 30.8807 155.314 30.6702C155.677 30.4877 155.976 30.2447 156.225 29.9848C156.661 29.5277 156.96 29.0211 157.236 28.5364C157.643 27.808 158.005 27.1214 158.415 26.6902C158.62 26.4724 158.825 26.3163 159.059 26.2072C159.294 26.0993 159.568 26.0291 159.957 26.0279V25.0168L159.871 26.0247C159.913 26.0279 159.943 26.0279 159.957 26.0279V25.0168L159.871 26.0247C160.445 26.0709 160.949 25.6564 160.996 25.0983C161.044 24.5402 160.618 24.0499 160.045 24.0036C160.002 24.0004 159.972 24 159.957 24C159.378 23.9996 158.841 24.1006 158.367 24.2884C157.953 24.4514 157.591 24.6785 157.284 24.9357C156.745 25.3879 156.368 25.92 156.054 26.4298C155.589 27.196 155.239 27.9341 154.887 28.3827C154.714 28.609 154.554 28.7554 154.41 28.8398C154.264 28.9225 154.134 28.9667 153.897 28.97C153.322 28.97 152.855 29.4242 152.855 29.9844C152.856 30.5441 153.322 30.9979 153.898 30.9979Z" fill="#FBF659"/><path d="M211.689 160.559L212.591 160.814L214.614 152.802C214.7 152.461 214.608 152.096 214.372 151.847C214.136 151.598 213.792 151.5 213.47 151.592L205.905 153.746V153.745L198.337 155.897C198.015 155.989 197.763 156.256 197.677 156.597C197.591 156.938 197.684 157.302 197.92 157.551L203.464 163.408L203.464 163.408L209.006 169.269C209.243 169.518 209.587 169.616 209.909 169.524C210.231 169.433 210.482 169.166 210.569 168.825L212.591 160.814L211.689 160.559L210.787 160.304L209.182 166.661L204.784 162.01L204.783 162.009L200.384 157.362L206.39 155.654H206.39L212.392 153.946L210.787 160.304L211.689 160.559Z" fill="#FBF659"/><path d="M426.65 205.297L427.135 206.172L434.163 201.923C434.462 201.742 434.646 201.408 434.646 201.046C434.646 200.685 434.461 200.351 434.161 200.17L427.129 195.933L427.13 195.934L420.096 191.694C419.797 191.513 419.428 191.513 419.129 191.694C418.83 191.875 418.645 192.209 418.646 192.571L418.652 201.058V201.058L418.656 209.547C418.656 209.908 418.841 210.242 419.141 210.423C419.44 210.603 419.809 210.603 420.108 210.422L427.135 206.172L426.65 205.297L426.166 204.42L420.59 207.793L420.587 201.057V201.056L420.582 194.322L426.163 197.687H426.164L431.743 201.048L426.166 204.42L426.65 205.297Z" fill="#FBF659"/><path d="M281.818 90.4822C281.819 88.8846 282.469 87.4485 283.525 86.4005C284.583 85.3543 286.034 84.7104 287.646 84.71C289.259 84.7104 290.709 85.3543 291.767 86.4005C292.823 87.448 293.473 88.8846 293.473 90.4822C293.473 91.0761 293.96 91.5581 294.56 91.5581C295.16 91.5581 295.646 91.0761 295.646 90.4822C295.645 86.1048 292.065 82.5585 287.646 82.5581C285.44 82.5572 283.434 83.4464 281.99 84.8787C280.543 86.3089 279.645 88.2967 279.646 90.4822C279.646 91.0761 280.132 91.5581 280.732 91.5581C281.332 91.5581 281.818 91.0761 281.818 90.4822Z" fill="#FBF659"/></svg>