<svg width="373" height="368" viewBox="0 0 373 368" fill="none" xmlns="http://www.w3.org/2000/svg"><g filter="url(#filter10_f)"><path d="M187.776 236.514L197.911 239.389L220.644 149.025C221.613 145.177 220.572 141.071 217.92 138.258C215.268 135.445 211.403 134.348 207.785 135.383L122.797 159.671V159.667L37.7717 183.937C34.1501 184.967 31.3216 187.977 30.3564 191.824C29.387 195.672 30.4278 199.773 33.08 202.586L95.369 268.644L95.3648 268.64L157.641 334.737C160.293 337.552 164.158 338.652 167.776 337.618C171.397 336.584 174.222 333.58 175.191 329.731L197.911 239.389L187.776 236.514L177.642 233.638L159.614 305.322L110.195 252.871L110.191 252.867L60.7687 200.455L128.24 181.196H128.245L195.678 161.927L177.642 233.634L187.776 236.514Z" fill="#303032" fill-opacity=".05"/></g><path d="M339.776 101.014L349.911 103.875L372.644 13.9558C373.613 10.1273 372.572 6.04145 369.92 3.24215C367.268 0.442851 363.403 -0.648458 359.785 0.380757L274.797 24.5497V24.5452L189.772 48.6964C186.15 49.7212 183.322 52.7157 182.356 56.5442C181.387 60.3727 182.428 64.4541 185.08 67.2534L247.369 132.986L247.365 132.981L309.641 198.754C312.293 201.554 316.158 202.649 319.776 201.62C323.397 200.591 326.222 197.601 327.191 193.772L349.911 103.875L339.776 101.014L329.642 98.1522L311.614 169.483L262.195 117.29L262.191 117.286L212.769 65.1329L280.24 45.9681H280.245L347.678 26.7944L329.642 98.1478L339.776 101.014Z" fill="#FBF659"/><defs><filter id="filter10_f" x="0" y="105" width="251" height="263" filterUnits="userSpaceOnUse" color-interpolation-filters="sRGB"><feFlood flood-opacity="0" result="BackgroundImageFix"/><feBlend in="SourceGraphic" in2="BackgroundImageFix" result="shape"/><feGaussianBlur stdDeviation="15" result="effect1_foregroundBlur"/></filter></defs></svg>