<svg width="17" height="16" viewBox="0 0 17 16" fill="none" xmlns="http://www.w3.org/2000/svg"><path d="M12.9025 8.17075C12.5455 8.17075 12.2562 8.4601 12.2562 8.81707V13.7195C12.2562 14.2642 11.813 14.7074 11.2683 14.7074H2.28047C1.73578 14.7074 1.29262 14.2642 1.29262 13.7195V4.73169C1.29262 4.187 1.73578 3.74385 2.28047 3.74385H7.18294C7.53988 3.74385 7.82925 3.45447 7.82925 3.09753C7.82925 2.7406 7.53988 2.45122 7.18294 2.45122H2.28047C1.02303 2.45122 0 3.47425 0 4.73169V13.7195C0 14.977 1.02303 16 2.28047 16H11.2683C12.5257 16 13.5488 14.977 13.5488 13.7195V8.81707C13.5488 8.4601 13.2595 8.17075 12.9025 8.17075Z" fill="#D9DADD"/><path d="M15.3539 0H10.4515C10.0945 0 9.80514 0.289375 9.80514 0.646312C9.80514 1.00325 10.0945 1.29262 10.4515 1.29262H14.7076V5.54878C14.7076 5.90572 14.997 6.19509 15.3539 6.19509C15.7109 6.19509 16.0002 5.90572 16.0002 5.54878V0.646312C16.0002 0.289375 15.7109 0 15.3539 0Z" fill="#D9DADD"/><path d="M15.8117 0.189314C15.5593 -0.063061 15.1501 -0.063061 14.8977 0.189314L5.90985 9.17713C5.65744 9.42954 5.65744 9.83876 5.90985 10.0912C6.03604 10.2174 6.20148 10.2805 6.36688 10.2805C6.53232 10.2805 6.69773 10.2174 6.82392 10.0912L15.8117 1.10335C16.0641 0.85094 16.0641 0.441721 15.8117 0.189314Z" fill="#D9DADD"/></svg>