<svg width="9" height="9" viewBox="0 0 9 9" xmlns="http://www.w3.org/2000/svg"><path d="M8.64904 6.86695L1.87111 0.509662C1.4236 0.0901392 0.720347 0.11236 0.300614 0.55988C-0.119118 1.00785 -0.0965426 1.71091 0.350964 2.13043L7.12885 8.48771C7.5764 8.90723 8.27944 8.88501 8.69935 8.43749C9.11912 7.98997 9.09655 7.28647 8.64904 6.86695Z"/><path d="M2.13098 8.64901L8.48877 1.87087C8.90851 1.42335 8.88597 0.720295 8.43842 0.300773C7.99109 -0.119195 7.28788 -0.0965295 6.86811 0.350991L0.510307 7.12913C0.0905746 7.57665 0.112928 8.2797 0.560657 8.69923C1.00799 9.11919 1.7112 9.09653 2.13098 8.64901Z"/></svg>