<svg xmlns="http://www.w3.org/2000/svg" width="32" height="32" viewBox="0 0 32 32"><path d="M29.731 0.191l-28.915 16.748c-0.583 0.292-0.854 0.75-0.812 1.375s0.354 1.062 0.937 1.312l6.62 2.75 17.924-15.811c0.167-0.125 0.333-0.104 0.5 0.063 0.167 0.125 0.187 0.271 0.063 0.437l-15.051 18.373v5c0 0.5 0.146 0.875 0.437 1.125 0.333 0.292 0.708 0.437 1.124 0.437 0.458 0 0.833-0.188 1.124-0.562l3.934-4.812 7.807 3.25c0.416 0.208 0.833 0.188 1.249-0.062 0.458-0.25 0.729-0.604 0.812-1.062l4.497-26.997c0.083-0.625-0.146-1.104-0.687-1.437-0.5-0.375-1.020-0.417-1.561-0.125z"/></svg>