<svg width="19" height="17" viewBox="0 0 19 17" fill="none" xmlns="http://www.w3.org/2000/svg"><path d="M13.7387 8.49527L14.6149 7.9805L10.3648 0.51312C10.1835 0.195298 9.84965 -0.000410974 9.48786 -3.97358e-09C9.12648 -3.97358e-09 8.7926 0.196523 8.61211 0.514756L4.37544 7.98626L0.135115 15.459C-0.0453757 15.7768 -0.0449702 16.1691 0.135925 16.4869C0.316821 16.8047 0.651099 17.0004 1.01249 17L9.50001 16.993L17.9887 16.9889C18.3501 16.9885 18.6844 16.7924 18.8649 16.4745C19.0454 16.1563 19.045 15.7645 18.8641 15.4462L14.6149 7.9805L13.7387 8.49527L12.863 9.00962L16.2348 14.9339L9.49879 14.9372L2.76357 14.943L6.12895 9.0125L9.49029 3.08407L12.863 9.00962L13.7387 8.49527Z" fill="#FBF659"/></svg>