<svg xmlns="http://www.w3.org/2000/svg" width="32" height="32" viewBox="0 0 32 32"><path d="M30.918 6.303l-9.696 9.697 9.696 9.696c1.442 1.443 1.442 3.78 0 5.223-0.721 0.721-1.665 1.081-2.61 1.081-0.946 0-1.891-0.36-2.611-1.081l-9.698-9.697-9.697 9.697c-0.721 0.721-1.665 1.081-2.61 1.081s-1.889-0.36-2.61-1.081c-1.442-1.442-1.442-3.779 0-5.223l9.696-9.696-9.696-9.697c-1.442-1.442-1.442-3.78 0-5.222 1.442-1.441 3.778-1.441 5.221 0l9.698 9.697 9.697-9.697c1.443-1.441 3.779-1.441 5.221 0 1.443 1.442 1.443 3.78 0.001 5.222z"/></svg>