<!-- Generated by IcoMoon.io -->
<svg version="1.1" xmlns="http://www.w3.org/2000/svg" width="67" height="32" viewBox="0 0 67 32">
<title>arrow-right</title>
<path d="M2.604 18.581h55.151l-9.136 9.009c-1.019 1.006-1.023 2.639-0.009 3.65s2.664 1.014 3.683 0.009l13.607-13.419c0.001-0.001 0.002-0.002 0.002-0.002 1.017-1.005 1.020-2.645 0-3.653-0.001-0.001-0.002-0.002-0.002-0.002l-13.607-13.419c-1.019-1.005-2.668-1.002-3.683 0.009s-1.011 2.644 0.009 3.65l9.136 9.010h-55.151c-1.438 0-2.604 1.155-2.604 2.581s1.166 2.581 2.604 2.581z"></path>
</svg>
