<!-- Generated by IcoMoon.io -->
<svg version="1.1" xmlns="http://www.w3.org/2000/svg" width="29" height="32" viewBox="0 0 29 32">
<title>arrow-rotate</title>
<path d="M2.469 11.573c-0.514-0.205-1.131 0-1.337 0.513s-0.411 1.026-0.617 1.642c-0.103 0.513 0.206 1.026 0.72 1.232 0.103 0 0.206 0 0.309 0 0.411 0 0.823-0.308 0.926-0.616 0.103-0.513 0.309-1.026 0.514-1.437 0.206-0.513 0-1.129-0.514-1.335z"></path>
<path d="M2.468 20.606c-0.206-0.821-0.411-1.642-0.411-2.464-0.103-0.513-0.617-0.924-1.131-0.924-0.514 0.103-0.926 0.513-0.926 1.129 0 1.027 0.206 2.053 0.411 2.977 0.206 0.411 0.617 0.718 1.029 0.718 0.103 0 0.206 0 0.309-0.205 0.514-0.103 0.823-0.719 0.72-1.232z"></path>
<path d="M6.891 27.381c-1.131-0.821-2.057-1.848-2.88-3.079-0.309-0.513-0.926-0.616-1.44-0.308s-0.617 0.924-0.309 1.437c0.926 1.334 2.057 2.566 3.394 3.593 0.206 0.103 0.411 0.205 0.617 0.205 0.309 0 0.617-0.103 0.823-0.411 0.309-0.411 0.206-1.129-0.206-1.437z"></path>
<path d="M19.439 30.050c-0.206-0.616-0.823-0.924-1.337-0.718-2.366 0.718-4.937 0.718-7.303 0-0.617-0.103-1.131 0.205-1.337 0.718-0.103 0.616 0.206 1.129 0.72 1.334 1.337 0.411 2.777 0.616 4.217 0.616s2.88-0.205 4.32-0.616c0.617-0.205 0.926-0.718 0.72-1.334z"></path>
<path d="M27.77 12.189c-1.44-3.593-4.217-6.364-7.714-7.904-2.366-1.026-4.937-1.334-7.508-1.026-0.617 0.103-1.028 0.616-0.926 1.129 0.103 0.616 0.617 1.026 1.131 0.924 2.263-0.308 4.423 0.103 6.48 0.924 2.983 1.334 5.348 3.695 6.582 6.775s1.234 6.467-0.103 9.444c-0.823 1.848-2.057 3.593-3.703 4.825-0.514 0.308-0.514 1.026-0.206 1.437 0.206 0.308 0.514 0.411 0.823 0.411 0.206 0 0.411 0 0.72-0.308 1.851-1.437 3.394-3.387 4.32-5.646 1.44-3.49 1.543-7.391 0.103-10.983z"></path>
<path d="M16.868 0.384c-0.308-0.411-1.028-0.513-1.44-0.205l-3.806 2.874c-0.514 0.308-0.514 1.026-0.206 1.437l2.983 3.901c0.206 0.308 0.514 0.411 0.823 0.411 0.206 0 0.411 0 0.514-0.103 0.514-0.308 0.514-1.027 0.206-1.437l-2.366-3.079 3.086-2.361c0.514-0.308 0.514-1.026 0.206-1.437z"></path>
</svg>
