<svg width="461" height="474" viewBox="0 0 461 474" fill="none" xmlns="http://www.w3.org/2000/svg">
<path opacity="0.3" d="M275.833 439.617L275.302 438.772C275.05 438.931 274.777 439.003 274.503 439.004C274.253 439.004 274.004 438.941 273.784 438.822C273.564 438.703 273.373 438.531 273.228 438.301V438.3C273.07 438.048 272.997 437.775 272.996 437.501C272.996 437.251 273.059 437.002 273.178 436.782C273.297 436.562 273.469 436.372 273.699 436.227C273.95 436.07 274.222 435.997 274.497 435.996C274.747 435.996 274.996 436.059 275.216 436.178C275.437 436.297 275.628 436.47 275.773 436.699L275.773 436.7C275.931 436.951 276.003 437.224 276.004 437.498C276.004 437.748 275.941 437.997 275.822 438.217C275.703 438.438 275.53 438.628 275.301 438.773L275.302 438.772L275.833 439.617L276.365 440.462C276.89 440.132 277.303 439.678 277.579 439.165C277.856 438.652 278 438.079 278 437.498C278.001 436.861 277.825 436.212 277.462 435.637L277.462 435.637C277.132 435.111 276.678 434.698 276.165 434.422C275.652 434.145 275.078 434 274.497 434C273.861 434 273.212 434.175 272.637 434.537C272.11 434.868 271.698 435.321 271.422 435.834C271.145 436.347 271 436.919 271 437.501C271 438.137 271.175 438.787 271.538 439.363V439.363C271.868 439.889 272.322 440.302 272.835 440.578C273.348 440.855 273.921 441 274.503 441C275.139 441 275.788 440.825 276.364 440.463L276.365 440.462L275.833 439.617Z" fill="#376BC7"/>
<g opacity="0.3">
<path d="M32.649 388.867L25.8711 382.51C25.4236 382.09 24.7203 382.112 24.3006 382.56C23.8809 383.008 23.9035 383.711 24.351 384.13L31.1289 390.488C31.5764 390.907 32.2794 390.885 32.6993 390.437C33.1191 389.99 33.0965 389.286 32.649 388.867Z" fill="#376BC7"/>
<path d="M26.131 390.649L32.4888 383.871C32.9085 383.423 32.886 382.72 32.4384 382.301C31.9911 381.881 31.2879 381.903 30.8681 382.351L24.5103 389.129C24.0906 389.577 24.1129 390.28 24.5607 390.699C25.008 391.119 25.7112 391.097 26.131 390.649Z" fill="#376BC7"/>
</g>
<path opacity="0.3" d="M4.83289 264.617L4.3019 263.772C4.04957 263.931 3.77688 264.003 3.5026 264.004C3.25267 264.004 3.00354 263.941 2.78396 263.822C2.56357 263.703 2.37313 263.531 2.22821 263.301V263.3C2.0697 263.048 1.99664 262.775 1.99624 262.501C1.99624 262.251 2.05891 262.002 2.17789 261.782C2.29687 261.562 2.46933 261.372 2.6989 261.227C2.95043 261.07 3.22232 260.997 3.49701 260.996C3.74694 260.996 3.99647 261.059 4.21645 261.178C4.43684 261.297 4.62768 261.47 4.77261 261.699L4.773 261.7C4.9307 261.951 5.00336 262.224 5.00376 262.498C5.00416 262.748 4.94108 262.997 4.82211 263.217C4.70273 263.438 4.53027 263.628 4.3011 263.773L4.3019 263.772L4.83289 264.617L5.36468 265.462C5.89049 265.132 6.30252 264.678 6.5788 264.165C6.85588 263.652 7 263.079 7 262.498C7.0008 261.861 6.82513 261.212 6.46181 260.637L6.46222 260.637C6.13164 260.111 5.67809 259.698 5.16506 259.422C4.65162 259.145 4.07831 259 3.49701 259C2.861 259 2.21182 259.175 1.63651 259.537C1.1103 259.868 0.697888 260.321 0.421609 260.834C0.144531 261.347 6.7898e-07 261.919 6.7898e-07 262.501C-0.000398569 263.137 0.17527 263.787 0.538186 264.363V264.363C0.868364 264.889 1.3219 265.302 1.83453 265.578C2.34797 265.855 2.9209 266 3.5026 266C4.1386 266 4.78777 265.825 5.36388 265.463L5.36468 265.462L4.83289 264.617Z" fill="#376BC7"/>
<path opacity="0.3" d="M26.0913 11.0913V12.1826H38.8174V23.8174H27.1826V11.0913H26.0913H25V24.9087C25 25.196 25.1165 25.477 25.3195 25.6804C25.523 25.8835 25.8041 26 26.0913 26H39.9087C40.1959 26 40.477 25.8835 40.68 25.6804C40.8834 25.477 41 25.196 41 24.9087V11.0913C41 10.8036 40.8834 10.5224 40.68 10.3195C40.477 10.1161 40.1959 10 39.9087 10H26.0913C25.8041 10 25.523 10.1161 25.3195 10.3195C25.1165 10.5224 25 10.8036 25 11.0913H26.0913Z" fill="#376BC7"/>
<g opacity="0.3">
<path d="M197.649 23.8669L190.871 17.5097C190.424 17.0901 189.72 17.1124 189.301 17.5599C188.881 18.0078 188.903 18.7109 189.351 19.1304L196.129 25.4877C196.576 25.9072 197.279 25.885 197.699 25.4375C198.119 24.99 198.097 24.2865 197.649 23.8669Z" fill="#376BC7"/>
<path d="M191.131 25.649L197.489 18.8709C197.909 18.4233 197.886 17.7203 197.438 17.3008C196.991 16.8808 196.288 16.9035 195.868 17.351L189.51 24.1291C189.091 24.5767 189.113 25.2797 189.561 25.6992C190.008 26.1192 190.711 26.0965 191.131 25.649Z" fill="#376BC7"/>
</g>
<path opacity="0.3" d="M320.979 2H335.021C335.562 2 336 1.55204 336 1C336 0.44768 335.562 -7.94728e-09 335.021 -7.94728e-09H320.979C320.438 -7.94728e-09 320 0.44768 320 1C320 1.55204 320.438 2 320.979 2Z" fill="#376BC7"/>
<path opacity="0.3" d="M198.979 369H213.021C213.562 369 214 368.552 214 368C214 367.448 213.562 367 213.021 367H198.979C198.438 367 198 367.448 198 368C198 368.552 198.438 369 198.979 369Z" fill="#376BC7"/>
<path opacity="0.3" d="M461 397.021V382.979C461 382.438 460.552 382 460 382C459.448 382 459 382.438 459 382.979V397.021C459 397.562 459.448 398 460 398C460.552 398 461 397.562 461 397.021Z" fill="#376BC7"/>
<path opacity="0.3" d="M357.914 72.9995H356.828C356.827 74.6123 356.177 76.0625 355.121 77.1206C354.063 78.1767 352.613 78.8273 351 78.8276C349.388 78.8273 347.938 78.1767 346.879 77.1206C345.823 76.0622 345.173 74.6123 345.172 72.9995C345.173 71.3868 345.823 69.9369 346.879 68.8789C347.938 67.8228 349.388 67.1727 351 67.1724C352.613 67.1727 354.063 67.8228 355.121 68.8789C356.177 69.9369 356.827 71.3868 356.828 72.9995H357.914H359C359 68.5805 355.419 65.0003 351 65C348.795 64.9991 346.788 65.8968 345.343 67.3426C343.897 68.7869 343 70.7936 343 72.9995C343.001 77.4186 346.582 80.9991 351 81C355.419 80.9991 359 77.4186 359 72.9995H357.914Z" fill="#376BC7"/>
<g opacity="0.3">
<path d="M325.617 329.456C325.615 329.662 325.579 329.787 325.517 329.913C325.462 330.022 325.378 330.135 325.248 330.26C325.022 330.48 324.652 330.718 324.207 330.968C323.54 331.35 322.709 331.75 321.972 332.432C321.606 332.774 321.265 333.198 321.023 333.72C320.78 334.241 320.645 334.85 320.647 335.516C320.647 336.092 321.101 336.558 321.661 336.558C322.221 336.558 322.674 336.092 322.674 335.516C322.675 335.177 322.73 334.925 322.814 334.711C322.888 334.523 322.988 334.361 323.121 334.201C323.352 333.922 323.696 333.659 324.116 333.402C324.745 333.01 325.524 332.661 326.244 332.115C326.602 331.84 326.953 331.501 327.219 331.051C327.487 330.604 327.648 330.046 327.644 329.456C327.644 328.88 327.191 328.414 326.631 328.414C326.071 328.414 325.617 328.88 325.617 329.456Z" fill="#376BC7"/>
<path d="M325.615 317.552C325.613 317.759 325.576 317.883 325.515 318.009C325.46 318.118 325.376 318.231 325.245 318.357C325.02 318.576 324.65 318.815 324.204 319.065C323.538 319.447 322.707 319.847 321.97 320.528C321.604 320.87 321.263 321.294 321.021 321.816C320.778 322.337 320.643 322.947 320.645 323.612C320.645 324.188 321.099 324.654 321.658 324.654C322.219 324.654 322.672 324.188 322.672 323.612C322.673 323.273 322.728 323.021 322.812 322.807C322.886 322.62 322.986 322.457 323.119 322.297C323.35 322.019 323.694 321.755 324.114 321.498C324.743 321.107 325.522 320.758 326.242 320.212C326.6 319.936 326.95 319.598 327.217 319.148C327.485 318.701 327.646 318.142 327.642 317.552C327.642 316.976 327.189 316.51 326.628 316.51C326.068 316.51 325.615 316.976 325.615 317.552Z" fill="#376BC7"/>
<path d="M327.642 329.564C327.644 329.05 327.525 328.56 327.315 328.148C327.132 327.785 326.889 327.486 326.63 327.236C326.172 326.8 325.666 326.501 325.181 326.225C324.453 325.819 323.766 325.457 323.335 325.046C323.117 324.842 322.961 324.637 322.852 324.403C322.744 324.167 322.674 323.894 322.672 323.504C322.672 322.928 322.219 322.462 321.658 322.462C321.099 322.462 320.645 322.928 320.645 323.504C320.644 324.084 320.745 324.621 320.933 325.094C321.096 325.508 321.323 325.87 321.58 326.177C322.032 326.716 322.565 327.093 323.074 327.408C323.841 327.872 324.579 328.222 325.028 328.574C325.254 328.747 325.4 328.908 325.484 329.051C325.567 329.198 325.611 329.327 325.615 329.564C325.615 330.14 326.068 330.606 326.628 330.606C327.189 330.606 327.642 330.14 327.642 329.564Z" fill="#376BC7"/>
<path d="M327.642 317.66C327.644 317.147 327.525 316.656 327.315 316.244C327.132 315.881 326.889 315.582 326.629 315.333C326.172 314.897 325.666 314.598 325.181 314.322C324.453 313.915 323.766 313.553 323.335 313.143C323.117 312.938 322.961 312.733 322.852 312.5C322.744 312.264 322.674 311.99 322.672 311.601H321.661L322.669 311.687C322.672 311.645 322.672 311.615 322.672 311.601H321.661L322.669 311.687C322.715 311.113 322.301 310.609 321.743 310.562C321.185 310.514 320.694 310.94 320.648 311.514C320.645 311.556 320.645 311.586 320.645 311.601C320.644 312.18 320.745 312.717 320.933 313.191C321.096 313.605 321.323 313.967 321.58 314.274C322.032 314.813 322.565 315.19 323.074 315.504C323.841 315.969 324.579 316.319 325.027 316.671C325.254 316.844 325.4 317.004 325.484 317.148C325.567 317.294 325.611 317.424 325.615 317.661C325.615 318.236 326.069 318.703 326.629 318.703C327.189 318.703 327.642 318.236 327.642 317.66Z" fill="#376BC7"/>
</g>
<g opacity="0.3">
<path d="M380.102 460.972C379.896 460.971 379.772 460.934 379.646 460.872C379.536 460.818 379.423 460.733 379.298 460.603C379.078 460.378 378.84 460.008 378.59 459.562C378.208 458.895 377.808 458.064 377.126 457.328C376.784 456.961 376.36 456.621 375.838 456.379C375.318 456.136 374.708 456.001 374.042 456.002C373.467 456.002 373 456.456 373 457.016C373 457.576 373.467 458.03 374.042 458.03C374.381 458.031 374.633 458.085 374.848 458.169C375.035 458.243 375.198 458.343 375.357 458.476C375.636 458.707 375.899 459.051 376.156 459.472C376.548 460.101 376.897 460.88 377.443 461.6C377.719 461.958 378.057 462.308 378.507 462.575C378.954 462.843 379.512 463.003 380.102 463C380.678 463 381.145 462.546 381.145 461.986C381.145 461.426 380.678 460.972 380.102 460.972Z" fill="#376BC7"/>
<path d="M392.006 460.97C391.799 460.968 391.675 460.932 391.549 460.87C391.44 460.815 391.327 460.731 391.201 460.601C390.982 460.375 390.743 460.006 390.493 459.56C390.111 458.893 389.712 458.062 389.03 457.325C388.688 456.959 388.264 456.619 387.742 456.377C387.221 456.134 386.611 455.999 385.946 456C385.37 456 384.904 456.454 384.904 457.014C384.904 457.574 385.37 458.028 385.946 458.028C386.285 458.029 386.537 458.083 386.751 458.167C386.939 458.241 387.101 458.341 387.261 458.474C387.539 458.705 387.803 459.049 388.06 459.47C388.451 460.099 388.8 460.878 389.346 461.597C389.622 461.956 389.96 462.306 390.41 462.572C390.857 462.841 391.416 463.001 392.006 462.998C392.582 462.998 393.048 462.544 393.048 461.984C393.048 461.424 392.582 460.97 392.006 460.97Z" fill="#376BC7"/>
<path d="M379.994 462.998C380.508 463 380.998 462.881 381.411 462.671C381.773 462.488 382.073 462.245 382.322 461.985C382.758 461.528 383.057 461.022 383.333 460.537C383.74 459.808 384.102 459.122 384.512 458.69C384.716 458.472 384.921 458.316 385.155 458.207C385.391 458.099 385.664 458.029 386.054 458.028C386.63 458.028 387.096 457.574 387.096 457.014C387.096 456.454 386.63 456 386.054 456C385.474 455.999 384.938 456.101 384.464 456.288C384.05 456.452 383.688 456.679 383.381 456.936C382.842 457.388 382.465 457.92 382.151 458.43C381.686 459.196 381.336 459.934 380.984 460.383C380.811 460.609 380.65 460.755 380.507 460.84C380.361 460.923 380.231 460.967 379.994 460.97C379.418 460.97 378.952 461.424 378.952 461.984C378.952 462.544 379.418 462.998 379.994 462.998Z" fill="#376BC7"/>
<path d="M391.898 462.998C392.411 463 392.902 462.881 393.314 462.67C393.677 462.488 393.976 462.245 394.225 461.985C394.661 461.528 394.96 461.021 395.236 460.536C395.643 459.808 396.005 459.121 396.415 458.69C396.62 458.472 396.825 458.316 397.059 458.207C397.294 458.099 397.568 458.029 397.957 458.028V457.017L397.871 458.025C397.913 458.028 397.943 458.028 397.957 458.028V457.017L397.871 458.025C398.445 458.071 398.949 457.656 398.996 457.098C399.044 456.54 398.618 456.05 398.045 456.004C398.002 456 397.972 456 397.957 456C397.378 456 396.841 456.101 396.367 456.288C395.953 456.451 395.591 456.679 395.284 456.936C394.745 457.388 394.368 457.92 394.054 458.43C393.589 459.196 393.239 459.934 392.887 460.383C392.714 460.609 392.554 460.755 392.41 460.84C392.264 460.923 392.134 460.967 391.897 460.97C391.322 460.97 390.855 461.424 390.855 461.984C390.856 462.544 391.322 462.998 391.898 462.998Z" fill="#376BC7"/>
</g>
<path opacity="0.3" d="M117.043 465.001L117.945 465.256L119.968 457.244C120.055 456.902 119.962 456.538 119.726 456.289C119.49 456.039 119.146 455.942 118.824 456.034L111.259 458.188V458.187L103.692 460.339C103.369 460.431 103.118 460.697 103.032 461.039C102.945 461.38 103.038 461.743 103.274 461.993L108.818 467.85L108.818 467.85L114.361 473.711C114.597 473.96 114.941 474.058 115.263 473.966C115.585 473.874 115.836 473.608 115.923 473.267L117.945 465.256L117.043 465.001L116.141 464.746L114.536 471.102L110.138 466.452L110.137 466.451L105.739 461.804L111.744 460.096H111.744L117.746 458.388L116.141 464.746L117.043 465.001Z" fill="#376BC7"/>
<path opacity="0.3" d="M144.004 292.739L144.489 293.614L151.517 289.365C151.816 289.184 152 288.85 152 288.488C152 288.127 151.815 287.792 151.516 287.612L144.484 283.375L144.484 283.376L137.45 279.135C137.151 278.955 136.782 278.955 136.483 279.136C136.184 279.317 136 279.651 136 280.012L136.007 288.5V288.499L136.01 296.989C136.01 297.35 136.195 297.684 136.495 297.865C136.794 298.045 137.163 298.045 137.462 297.864L144.489 293.614L144.004 292.739L143.52 291.862L137.945 295.235L137.941 288.499V288.498L137.936 281.763L143.518 285.129H143.518L149.097 288.49L143.52 291.862L144.004 292.739Z" fill="#376BC7"/>
</svg>
