<svg width="410" height="384" viewBox="0 0 410 384" fill="none" xmlns="http://www.w3.org/2000/svg">
<path d="M356.833 43.6174L356.302 42.7722C356.05 42.9307 355.777 43.0034 355.503 43.0038C355.253 43.0038 355.004 42.9411 354.784 42.8221C354.564 42.7027 354.373 42.5306 354.228 42.3007V42.2999C354.07 42.0476 353.997 41.7749 353.996 41.5006C353.996 41.2511 354.059 41.0023 354.178 40.7823C354.297 40.5624 354.469 40.3719 354.699 40.227C354.95 40.0697 355.222 39.9966 355.497 39.9962C355.747 39.9962 355.996 40.0589 356.216 40.1779C356.437 40.2973 356.628 40.4697 356.773 40.6993L356.773 40.7001C356.931 40.9512 357.003 41.2235 357.004 41.4978C357.004 41.7477 356.941 41.9969 356.822 42.2172C356.703 42.4376 356.53 42.6285 356.301 42.773L356.302 42.7722L356.833 43.6174L357.365 44.4622C357.89 44.1316 358.303 43.6781 358.579 43.1655C358.856 42.652 359 42.0791 359 41.4978C359.001 40.8614 358.825 40.2122 358.462 39.6365L358.462 39.6369C358.132 39.1107 357.678 38.6979 357.165 38.4216C356.652 38.1445 356.078 38 355.497 38C354.861 37.9996 354.212 38.1749 353.637 38.5374C353.11 38.8676 352.698 39.3207 352.422 39.8337C352.145 40.3468 352 40.9193 352 41.5006C352 42.1374 352.175 42.787 352.538 43.3631V43.3627C352.868 43.8889 353.322 44.3017 353.835 44.5784C354.348 44.8555 354.921 45 355.503 45C356.139 45.0004 356.788 44.8251 357.364 44.4626L357.365 44.4622L356.833 43.6174Z" fill="#FBF659"/>
<path d="M283.687 307.71L293.71 297.687C294.097 297.301 294.097 296.675 293.71 296.29C293.325 295.903 292.699 295.903 292.313 296.29L282.29 306.313C281.903 306.699 281.903 307.325 282.29 307.71C282.675 308.097 283.301 308.097 283.687 307.71Z" fill="#FBF659"/>
<path d="M137.687 11.7104L147.71 1.68666C148.097 1.30094 148.097 0.675316 147.71 0.28959C147.325 -0.0965315 146.699 -0.0965315 146.313 0.28959L136.29 10.3133C135.903 10.6991 135.903 11.3247 136.29 11.7104C136.675 12.0965 137.301 12.0965 137.687 11.7104Z" fill="#FBF659"/>
<path d="M350.914 375.999H349.828C349.827 377.612 349.177 379.063 348.121 380.121C347.063 381.177 345.613 381.827 344 381.828C342.388 381.827 340.938 381.177 339.879 380.121C338.823 379.062 338.173 377.612 338.172 375.999C338.173 374.387 338.823 372.937 339.879 371.879C340.938 370.823 342.388 370.173 344 370.172C345.613 370.173 347.063 370.823 348.121 371.879C349.177 372.937 349.827 374.387 349.828 375.999H350.914H352C352 371.581 348.419 368 344 368C341.795 367.999 339.788 368.897 338.343 370.343C336.897 371.787 336 373.794 336 375.999C336.001 380.419 339.582 383.999 344 384C348.419 383.999 352 380.419 352 375.999H350.914Z" fill="#FBF659"/>
<path d="M233.172 105.924C233.173 104.326 233.823 102.89 234.88 101.842C235.938 100.796 237.388 100.152 239 100.152C240.613 100.152 242.063 100.796 243.121 101.842C244.177 102.89 244.827 104.326 244.828 105.924C244.828 106.518 245.314 107 245.914 107C246.514 107 247 106.518 247 105.924C247 101.547 243.419 98.0004 239 98C236.795 97.9991 234.788 98.8883 233.344 100.321C231.898 101.751 231 103.739 231 105.924C231 106.518 231.487 107 232.086 107C232.686 107 233.172 106.518 233.172 105.924Z" fill="#FBF659"/>
<path d="M400.979 121H415.021C415.562 121 416 120.552 416 120C416 119.448 415.562 119 415.021 119H400.979C400.438 119 400 119.448 400 120C400 120.552 400.438 121 400.979 121Z" fill="#FBF659"/>
<path d="M187.979 180H202.021C202.562 180 203 179.552 203 179C203 178.448 202.562 178 202.021 178H187.979C187.438 178 187 178.448 187 179C187 179.552 187.438 180 187.979 180Z" fill="#FBF659"/>
<path d="M115.043 157.001L115.945 157.256L117.968 149.244C118.055 148.902 117.962 148.538 117.726 148.289C117.49 148.039 117.146 147.942 116.824 148.034L109.259 150.188V150.187L101.692 152.339C101.369 152.431 101.118 152.697 101.032 153.039C100.945 153.38 101.038 153.743 101.274 153.993L106.818 159.85L106.818 159.85L112.361 165.711C112.597 165.96 112.941 166.058 113.263 165.966C113.585 165.874 113.836 165.608 113.923 165.267L115.945 157.256L115.043 157.001L114.141 156.746L112.536 163.102L108.138 158.452L108.137 158.451L103.739 153.804L109.744 152.096H109.744L115.746 150.388L114.141 156.746L115.043 157.001Z" fill="#FBF659"/>
<path d="M211.649 264.867L204.871 258.51C204.424 258.09 203.72 258.112 203.301 258.56C202.881 259.008 202.903 259.711 203.351 260.13L210.129 266.488C210.576 266.907 211.279 266.885 211.699 266.437C212.119 265.99 212.097 265.286 211.649 264.867Z" fill="#FBF659"/>
<path d="M205.131 266.649L211.489 259.871C211.909 259.423 211.886 258.72 211.438 258.301C210.991 257.881 210.288 257.903 209.868 258.351L203.51 265.129C203.091 265.577 203.113 266.28 203.561 266.699C204.008 267.119 204.711 267.097 205.131 266.649Z" fill="#FBF659"/>
<path d="M281.649 35.8669L274.871 29.5097C274.424 29.0901 273.72 29.1124 273.301 29.5599C272.881 30.0078 272.903 30.7109 273.351 31.1304L280.129 37.4877C280.576 37.9072 281.279 37.885 281.699 37.4375C282.119 36.99 282.097 36.2865 281.649 35.8669Z" fill="#FBF659"/>
<path d="M275.131 37.649L281.489 30.8709C281.909 30.4233 281.886 29.7203 281.438 29.3008C280.991 28.8808 280.288 28.9035 279.868 29.351L273.51 36.1291C273.091 36.5767 273.113 37.2797 273.561 37.6992C274.008 38.1192 274.711 38.0965 275.131 37.649Z" fill="#FBF659"/>
<path d="M410.739 320.996L411.615 320.511L407.365 313.483C407.184 313.184 406.85 313 406.488 313C406.126 313 405.793 313.185 405.612 313.484L401.375 320.516L397.135 327.55C396.955 327.849 396.955 328.218 397.136 328.517C397.317 328.816 397.651 329 398.012 329L406.5 328.993L414.989 328.99C415.35 328.989 415.684 328.805 415.865 328.505C416.045 328.206 416.045 327.837 415.864 327.538L411.615 320.511L410.739 320.996L409.863 321.48L413.235 327.055L406.499 327.059L399.764 327.064L403.129 321.482L406.49 315.903L409.863 321.48L410.739 320.996Z" fill="#FBF659"/>
<path d="M313.091 188.091V189.183H325.817V200.817H314.183V188.091H313.091H312V201.909C312 202.196 312.117 202.477 312.32 202.68C312.523 202.884 312.804 203 313.091 203H326.909C327.196 203 327.477 202.884 327.68 202.68C327.883 202.477 328 202.196 328 201.909V188.091C328 187.804 327.883 187.522 327.68 187.32C327.477 187.116 327.196 187 326.909 187H313.091C312.804 187 312.523 187.116 312.32 187.32C312.117 187.522 312 187.804 312 188.091H313.091Z" fill="#FBF659"/>
<path d="M7.10232 178.972C6.89583 178.971 6.77159 178.934 6.64552 178.872C6.53642 178.818 6.42323 178.733 6.29782 178.603C6.07816 178.378 5.83973 178.008 5.58992 177.562C5.20787 176.895 4.80806 176.064 4.12622 175.328C3.78436 174.961 3.36032 174.621 2.83836 174.379C2.31757 174.136 1.70768 174.001 1.04226 174.002C0.466556 174.002 0 174.456 0 175.016C0 175.576 0.466556 176.03 1.04226 176.03C1.38149 176.031 1.63309 176.085 1.84755 176.169C2.03486 176.243 2.19754 176.343 2.3573 176.476C2.63562 176.707 2.89944 177.051 3.15625 177.472C3.54776 178.101 3.89675 178.88 4.44277 179.6C4.71851 179.958 5.05691 180.308 5.50671 180.575C5.95375 180.843 6.51199 181.003 7.10232 181C7.67802 181 8.14458 180.546 8.14458 179.986C8.14458 179.426 7.67802 178.972 7.10232 178.972Z" fill="#FBF659"/>
<path d="M19.0059 178.97C18.7991 178.968 18.6749 178.932 18.549 178.87C18.4399 178.815 18.3267 178.731 18.2013 178.601C17.9816 178.375 17.7434 178.006 17.4934 177.56C17.1113 176.893 16.7115 176.062 16.0298 175.325C15.6879 174.959 15.264 174.619 14.742 174.377C14.2212 174.134 13.6113 173.999 12.9459 174C12.3702 174 11.9036 174.454 11.9036 175.014C11.9036 175.574 12.3702 176.028 12.9459 176.028C13.2851 176.029 13.5368 176.083 13.7511 176.167C13.9385 176.241 14.101 176.341 14.2608 176.474C14.5391 176.705 14.8028 177.049 15.0597 177.47C15.4511 178.099 15.8001 178.878 16.3462 179.597C16.6219 179.956 16.9603 180.306 17.4102 180.572C17.8572 180.841 18.4156 181.001 19.0059 180.998C19.5817 180.998 20.0482 180.544 20.0482 179.984C20.0482 179.424 19.5817 178.97 19.0059 178.97Z" fill="#FBF659"/>
<path d="M6.994 180.998C7.50764 181 7.99793 180.881 8.41059 180.671C8.77274 180.488 9.07255 180.245 9.32185 179.985C9.75761 179.528 10.0571 179.022 10.3329 178.537C10.7396 177.808 11.1016 177.122 11.5121 176.69C11.7165 176.472 11.9213 176.316 12.1555 176.207C12.3908 176.099 12.6644 176.029 13.0542 176.028C13.6299 176.028 14.0964 175.574 14.0964 175.014C14.0964 174.454 13.6299 174 13.0542 174C12.4745 173.999 11.9376 174.101 11.4644 174.288C11.0499 174.452 10.6883 174.679 10.381 174.936C9.84215 175.388 9.46484 175.92 9.15055 176.43C8.68561 177.196 8.33618 177.934 7.98409 178.383C7.81083 178.609 7.65042 178.755 7.50697 178.84C7.36056 178.923 7.23095 178.967 6.994 178.97C6.41838 178.97 5.95181 179.424 5.95181 179.984C5.95181 180.544 6.41838 180.998 6.994 180.998Z" fill="#FBF659"/>
<path d="M18.8978 180.998C19.4114 181 19.9017 180.881 20.3144 180.67C20.6767 180.488 20.9764 180.245 21.2253 179.985C21.6614 179.528 21.9603 179.021 22.2363 178.536C22.6428 177.808 23.0051 177.121 23.4153 176.69C23.62 176.472 23.8247 176.316 24.0586 176.207C24.2941 176.099 24.5676 176.029 24.9574 176.028V175.017L24.8711 176.025C24.9128 176.028 24.9428 176.028 24.9574 176.028V175.017L24.8711 176.025C25.4448 176.071 25.9488 175.656 25.9963 175.098C26.0443 174.54 25.6182 174.05 25.0445 174.004C25.0024 174 24.9724 174 24.9574 174C24.3779 174 23.8409 174.101 23.3673 174.288C22.9534 174.451 22.5915 174.679 22.2842 174.936C21.7452 175.388 21.3679 175.92 21.054 176.43C20.5891 177.196 20.2393 177.934 19.8875 178.383C19.714 178.609 19.554 178.755 19.4101 178.84C19.2638 178.923 19.1341 178.967 18.8973 178.97C18.3218 178.97 17.8554 179.424 17.8554 179.984C17.8556 180.544 18.3221 180.998 18.8978 180.998Z" fill="#FBF659"/>
<path d="M118.972 307.898C118.971 308.104 118.934 308.228 118.872 308.354C118.818 308.464 118.733 308.577 118.603 308.702C118.378 308.922 118.008 309.16 117.562 309.41C116.895 309.792 116.064 310.192 115.328 310.874C114.961 311.216 114.621 311.64 114.379 312.162C114.136 312.682 114.001 313.292 114.002 313.958C114.002 314.533 114.456 315 115.016 315C115.576 315 116.03 314.533 116.03 313.958C116.031 313.619 116.085 313.367 116.169 313.152C116.243 312.965 116.343 312.802 116.476 312.643C116.707 312.364 117.051 312.101 117.472 311.844C118.101 311.452 118.88 311.103 119.6 310.557C119.958 310.281 120.308 309.943 120.575 309.493C120.843 309.046 121.003 308.488 121 307.898C121 307.322 120.546 306.855 119.986 306.855C119.426 306.855 118.972 307.322 118.972 307.898Z" fill="#FBF659"/>
<path d="M118.97 295.994C118.968 296.201 118.932 296.325 118.87 296.451C118.815 296.56 118.731 296.673 118.601 296.799C118.375 297.018 118.006 297.257 117.56 297.507C116.893 297.889 116.062 298.288 115.325 298.97C114.959 299.312 114.619 299.736 114.377 300.258C114.134 300.779 113.999 301.389 114 302.054C114 302.63 114.454 303.096 115.014 303.096C115.574 303.096 116.028 302.63 116.028 302.054C116.029 301.715 116.083 301.463 116.167 301.249C116.241 301.061 116.341 300.899 116.474 300.739C116.705 300.461 117.049 300.197 117.47 299.94C118.099 299.549 118.878 299.2 119.597 298.654C119.956 298.378 120.306 298.04 120.572 297.59C120.841 297.143 121.001 296.584 120.998 295.994C120.998 295.418 120.544 294.952 119.984 294.952C119.424 294.952 118.97 295.418 118.97 295.994Z" fill="#FBF659"/>
<path d="M120.998 308.006C121 307.492 120.881 307.002 120.671 306.589C120.488 306.227 120.245 305.927 119.985 305.678C119.528 305.242 119.022 304.943 118.537 304.667C117.808 304.26 117.122 303.898 116.69 303.488C116.472 303.284 116.316 303.079 116.207 302.845C116.099 302.609 116.029 302.336 116.028 301.946C116.028 301.37 115.574 300.904 115.014 300.904C114.454 300.904 114 301.37 114 301.946C113.999 302.526 114.101 303.062 114.288 303.536C114.452 303.95 114.679 304.312 114.936 304.619C115.388 305.158 115.92 305.535 116.43 305.849C117.196 306.314 117.934 306.664 118.383 307.016C118.609 307.189 118.755 307.35 118.84 307.493C118.923 307.639 118.967 307.769 118.97 308.006C118.97 308.582 119.424 309.048 119.984 309.048C120.544 309.048 120.998 308.582 120.998 308.006Z" fill="#FBF659"/>
<path d="M120.998 296.102C121 295.589 120.881 295.098 120.67 294.686C120.488 294.323 120.245 294.024 119.985 293.775C119.528 293.339 119.021 293.04 118.536 292.764C117.808 292.357 117.121 291.995 116.69 291.585C116.472 291.38 116.316 291.175 116.207 290.941C116.099 290.706 116.029 290.432 116.028 290.043H115.017L116.025 290.129C116.028 290.087 116.028 290.057 116.028 290.043H115.017L116.025 290.129C116.071 289.555 115.656 289.051 115.098 289.004C114.54 288.956 114.05 289.382 114.004 289.955C114 289.998 114 290.028 114 290.043C114 290.622 114.101 291.159 114.288 291.633C114.451 292.047 114.679 292.409 114.936 292.716C115.388 293.255 115.92 293.632 116.43 293.946C117.196 294.411 117.934 294.761 118.383 295.113C118.609 295.286 118.755 295.446 118.84 295.59C118.923 295.736 118.967 295.866 118.97 296.103C118.97 296.678 119.424 297.145 119.984 297.145C120.544 297.144 120.998 296.678 120.998 296.102Z" fill="#FBF659"/>
</svg>
