<svg width="304" height="304" viewBox="0 0 304 304" fill="none" xmlns="http://www.w3.org/2000/svg">
<path d="M273.833 289.617L273.302 288.772C273.05 288.931 272.777 289.003 272.503 289.004C272.253 289.004 272.004 288.941 271.784 288.822C271.564 288.703 271.373 288.531 271.228 288.301V288.3C271.07 288.048 270.997 287.775 270.996 287.501C270.996 287.251 271.059 287.002 271.178 286.782C271.297 286.562 271.469 286.372 271.699 286.227C271.95 286.07 272.222 285.997 272.497 285.996C272.747 285.996 272.996 286.059 273.216 286.178C273.437 286.297 273.628 286.47 273.773 286.699L273.773 286.7C273.931 286.951 274.003 287.224 274.004 287.498C274.004 287.748 273.941 287.997 273.822 288.217C273.703 288.438 273.53 288.628 273.301 288.773L273.302 288.772L273.833 289.617L274.365 290.462C274.89 290.132 275.303 289.678 275.579 289.165C275.856 288.652 276 288.079 276 287.498C276.001 286.861 275.825 286.212 275.462 285.637L275.462 285.637C275.132 285.111 274.678 284.698 274.165 284.422C273.652 284.145 273.078 284 272.497 284C271.861 284 271.212 284.175 270.637 284.537C270.11 284.868 269.698 285.321 269.422 285.834C269.145 286.347 269 286.919 269 287.501C269 288.137 269.175 288.787 269.538 289.363V289.363C269.868 289.889 270.322 290.302 270.835 290.578C271.348 290.855 271.921 291 272.503 291C273.139 291 273.788 290.825 274.364 290.463L274.365 290.462L273.833 289.617Z" fill="#FBF659"/>
<path d="M186.833 8.61739L186.302 7.77219C186.05 7.93069 185.777 8.00337 185.503 8.00376C185.253 8.00376 185.004 7.94107 184.784 7.8221C184.564 7.70272 184.373 7.53064 184.228 7.30068V7.29988C184.07 7.04755 183.997 6.77487 183.996 6.50058C183.996 6.25106 184.059 6.00233 184.178 5.78235C184.297 5.56236 184.469 5.37192 184.699 5.22699C184.95 5.06969 185.222 4.99663 185.497 4.99623C185.747 4.99623 185.996 5.05891 186.216 5.17788C186.437 5.29726 186.628 5.46974 186.773 5.6993L186.773 5.7001C186.931 5.95123 187.003 6.22351 187.004 6.4978C187.004 6.74773 186.941 6.99686 186.822 7.21724C186.703 7.43763 186.53 7.62846 186.301 7.77299L186.302 7.77219L186.833 8.61739L187.365 9.46221C187.89 9.13163 188.303 8.67809 188.579 8.16545C188.856 7.65202 189 7.0791 189 6.4978C189.001 5.8614 188.825 5.21222 188.462 4.6365L188.462 4.63691C188.132 4.1107 187.678 3.69789 187.165 3.42161C186.652 3.14453 186.078 3 185.497 3C184.861 2.9996 184.212 3.17487 183.637 3.53738C183.11 3.86756 182.698 4.3207 182.422 4.83373C182.145 5.34676 182 5.91928 182 6.50058C182 7.13738 182.175 7.78697 182.538 8.36309V8.36268C182.868 8.88889 183.322 9.30171 183.835 9.57839C184.348 9.85547 184.921 10 185.503 10C186.139 10.0004 186.788 9.82511 187.364 9.4626L187.365 9.46221L186.833 8.61739Z" fill="#FBF659"/>
<path d="M47.6867 124.71L57.7104 114.687C58.0965 114.301 58.0965 113.675 57.7104 113.29C57.3247 112.903 56.6991 112.903 56.3133 113.29L46.2896 123.313C45.9035 123.699 45.9035 124.325 46.2896 124.71C46.6753 125.097 47.3009 125.097 47.6867 124.71Z" fill="#FBF659"/>
<path d="M302.914 295.999H301.828C301.827 297.612 301.177 299.063 300.121 300.121C299.063 301.177 297.613 301.827 296 301.828C294.388 301.827 292.938 301.177 291.879 300.121C290.823 299.062 290.173 297.612 290.172 295.999C290.173 294.387 290.823 292.937 291.879 291.879C292.938 290.823 294.388 290.173 296 290.172C297.613 290.173 299.063 290.823 300.121 291.879C301.177 292.937 301.827 294.387 301.828 295.999H302.914H304C304 291.581 300.419 288 296 288C293.795 287.999 291.788 288.897 290.343 290.343C288.897 291.787 288 293.794 288 295.999C288.001 300.419 291.582 303.999 296 304C300.419 303.999 304 300.419 304 295.999H302.914Z" fill="#FBF659"/>
<path d="M210.172 54.9241C210.173 53.3265 210.823 51.8904 211.88 50.8424C212.938 49.7962 214.388 49.1523 216 49.1519C217.613 49.1523 219.063 49.7962 220.121 50.8424C221.177 51.8899 221.827 53.3265 221.828 54.9241C221.828 55.518 222.314 56 222.914 56C223.514 56 224 55.518 224 54.9241C224 50.5467 220.419 47.0004 216 47C213.795 46.9991 211.788 47.8883 210.344 49.3206C208.898 50.7508 208 52.7386 208 54.9241C208 55.518 208.487 56 209.086 56C209.686 56 210.172 55.518 210.172 54.9241Z" fill="#FBF659"/>
<path d="M224.979 141H239.021C239.562 141 240 140.552 240 140C240 139.448 239.562 139 239.021 139H224.979C224.438 139 224 139.448 224 140C224 140.552 224.438 141 224.979 141Z" fill="#FBF659"/>
<path d="M107.043 43.0012L107.945 43.2562L109.968 35.2436C110.055 34.9024 109.962 34.5383 109.726 34.2889C109.49 34.0395 109.146 33.9422 108.824 34.0339L101.259 36.1876V36.1872L93.6917 38.3393C93.3694 38.4306 93.1176 38.6974 93.0317 39.0386C92.9454 39.3797 93.0381 39.7434 93.2741 39.9929L98.8182 45.8502L98.8178 45.8498L104.361 51.7107C104.597 51.9603 104.941 52.0578 105.263 51.9661C105.585 51.8744 105.836 51.608 105.923 51.2668L107.945 43.2562L107.043 43.0012L106.141 42.7462L104.536 49.1024L100.138 44.4516L100.137 44.4512L95.7386 39.8039L101.744 38.0962H101.744L107.746 36.3876L106.141 42.7458L107.043 43.0012Z" fill="#FBF659"/>
<path d="M220.649 203.867L213.871 197.51C213.424 197.09 212.72 197.112 212.301 197.56C211.881 198.008 211.903 198.711 212.351 199.13L219.129 205.488C219.576 205.907 220.279 205.885 220.699 205.437C221.119 204.99 221.097 204.286 220.649 203.867Z" fill="#FBF659"/>
<path d="M214.131 205.649L220.489 198.871C220.909 198.423 220.886 197.72 220.438 197.301C219.991 196.881 219.288 196.903 218.868 197.351L212.51 204.129C212.091 204.577 212.113 205.28 212.561 205.699C213.008 206.119 213.711 206.097 214.131 205.649Z" fill="#FBF659"/>
<path d="M71.7387 231.996L72.6149 231.511L68.3648 224.483C68.1835 224.184 67.8497 224 67.4879 224C67.1265 224 66.7926 224.185 66.6121 224.484L62.3754 231.516L58.1351 238.55C57.9546 238.849 57.955 239.218 58.1359 239.517C58.3168 239.816 58.6511 240 59.0125 240L67.5 239.993L75.9887 239.99C76.3501 239.989 76.6844 239.805 76.8649 239.505C77.0454 239.206 77.045 238.837 76.8641 238.538L72.6149 231.511L71.7387 231.996L70.863 232.48L74.2348 238.055L67.4988 238.059L60.7636 238.064L64.129 232.482L67.4903 226.903L70.863 232.48L71.7387 231.996Z" fill="#FBF659"/>
<path d="M128.091 126.091V127.183H140.817V138.817H129.183V126.091H128.091H127V139.909C127 140.196 127.117 140.477 127.32 140.68C127.523 140.884 127.804 141 128.091 141H141.909C142.196 141 142.477 140.884 142.68 140.68C142.883 140.477 143 140.196 143 139.909V126.091C143 125.804 142.883 125.522 142.68 125.32C142.477 125.116 142.196 125 141.909 125H128.091C127.804 125 127.523 125.116 127.32 125.32C127.117 125.522 127 125.804 127 126.091H128.091Z" fill="#FBF659"/>
<path d="M7.10232 4.97217C6.89583 4.97055 6.77159 4.93405 6.64552 4.87241C6.53642 4.81766 6.42323 4.73331 6.29782 4.60312C6.07816 4.37764 5.83973 4.00776 5.58992 3.56206C5.20787 2.89532 4.80806 2.06435 4.12622 1.32786C3.78436 0.961235 3.36032 0.620562 2.83836 0.378851C2.31757 0.135923 1.70768 0.000871472 1.04226 0.00208814C0.466556 0.00208814 0 0.45631 0 1.01598C0 1.57605 0.466556 2.02987 1.04226 2.02987C1.38149 2.03068 1.63309 2.08503 1.84755 2.16898C2.03486 2.2432 2.19754 2.34336 2.3573 2.47638C2.63562 2.70714 2.89944 3.05106 3.15625 3.47162C3.54776 4.10063 3.89675 4.87971 4.44277 5.59957C4.71851 5.95767 5.05691 6.30807 5.50671 6.57452C5.95375 6.8426 6.51199 7.0032 7.10232 6.99995C7.67802 6.99995 8.14458 6.54613 8.14458 5.98606C8.14458 5.42599 7.67802 4.97217 7.10232 4.97217Z" fill="#FBF659"/>
<path d="M19.0059 4.96997C18.7991 4.96835 18.6749 4.93185 18.549 4.8702C18.4399 4.81545 18.3267 4.73109 18.2013 4.6009C17.9816 4.3754 17.7434 4.0055 17.4934 3.55977C17.1113 2.893 16.7115 2.06238 16.0298 1.32544C15.6879 0.959201 15.264 0.618509 14.742 0.376783C14.2212 0.133841 13.6113 -0.00120859 12.9459 8.15083e-06C12.3702 8.15083e-06 11.9036 0.454248 11.9036 1.01395C11.9036 1.57405 12.3702 2.0279 12.9459 2.0279C13.2851 2.02871 13.5368 2.08306 13.7511 2.16702C13.9385 2.24124 14.101 2.34141 14.2608 2.47444C14.5391 2.70521 14.8028 3.04915 15.0597 3.46973C15.4511 4.09879 15.8001 4.8779 16.3462 5.5974C16.6219 5.95553 16.9603 6.30595 17.4102 6.57242C17.8572 6.84051 18.4156 7.00112 19.0059 6.99787C19.5817 6.99787 20.0482 6.54403 20.0482 5.98392C20.0482 5.42382 19.5817 4.96997 19.0059 4.96997Z" fill="#FBF659"/>
<path d="M6.994 6.99789C7.50764 6.99992 7.99793 6.88068 8.41059 6.67059C8.77274 6.48767 9.07255 6.24473 9.32185 5.98516C9.75761 5.52766 10.0571 5.0215 10.3329 4.53683C10.7396 3.808 11.1016 3.12176 11.5121 2.69022C11.7165 2.47242 11.9213 2.31628 12.1555 2.20717C12.3908 2.09929 12.6644 2.02912 13.0542 2.0279C13.6299 2.0279 14.0964 1.57406 14.0964 1.01395C14.0964 0.454246 13.6299 5.18207e-06 13.0542 5.18207e-06C12.4745 -0.00080598 11.9376 0.100584 11.4644 0.288368C11.0499 0.451817 10.6883 0.678535 10.381 0.935674C9.84215 1.3879 9.46484 1.92002 9.15055 2.42984C8.68561 3.19639 8.33618 3.93414 7.98409 4.38311C7.81083 4.60902 7.65042 4.75544 7.50697 4.8398C7.36056 4.92254 7.23095 4.96674 6.994 4.96999C6.41838 4.96999 5.95181 5.42383 5.95181 5.98394C5.95181 6.54405 6.41838 6.99789 6.994 6.99789Z" fill="#FBF659"/>
<path d="M18.8978 6.9979C19.4114 6.99953 19.9017 6.88069 20.3144 6.67019C20.6767 6.48768 20.9764 6.24474 21.2253 5.98476C21.6614 5.52767 21.9603 5.0211 22.2363 4.53643C22.6428 3.808 23.0051 3.12135 23.4153 2.69022C23.62 2.47242 23.8247 2.31628 24.0586 2.20717C24.2941 2.09929 24.5676 2.02912 24.9574 2.0279V1.01679L24.8711 2.02466C24.9128 2.02791 24.9428 2.0279 24.9574 2.0279V1.01679L24.8711 2.02466C25.4448 2.0709 25.9488 1.65639 25.9963 1.09831C26.0443 0.54023 25.6182 0.0498818 25.0445 0.00364543C25.0024 0.000400776 24.9724 1.53171e-06 24.9574 1.53171e-06C24.3779 -0.00040405 23.8409 0.10058 23.3673 0.288365C22.9534 0.451409 22.5915 0.678533 22.2842 0.935672C21.7452 1.3879 21.3679 1.92002 21.054 2.42984C20.5891 3.19598 20.2393 3.93414 19.8875 4.38271C19.714 4.60903 19.554 4.75544 19.4101 4.8398C19.2638 4.92254 19.1341 4.96675 18.8973 4.96999C18.3218 4.96999 17.8554 5.42425 17.8554 5.98435C17.8556 6.54406 18.3221 6.9979 18.8978 6.9979Z" fill="#FBF659"/>
<path d="M166.972 262.898C166.971 263.104 166.934 263.228 166.872 263.354C166.818 263.464 166.733 263.577 166.603 263.702C166.378 263.922 166.008 264.16 165.562 264.41C164.895 264.792 164.064 265.192 163.328 265.874C162.961 266.216 162.621 266.64 162.379 267.162C162.136 267.682 162.001 268.292 162.002 268.958C162.002 269.533 162.456 270 163.016 270C163.576 270 164.03 269.533 164.03 268.958C164.031 268.619 164.085 268.367 164.169 268.152C164.243 267.965 164.343 267.802 164.476 267.643C164.707 267.364 165.051 267.101 165.472 266.844C166.101 266.452 166.88 266.103 167.6 265.557C167.958 265.281 168.308 264.943 168.575 264.493C168.843 264.046 169.003 263.488 169 262.898C169 262.322 168.546 261.855 167.986 261.855C167.426 261.855 166.972 262.322 166.972 262.898Z" fill="#FBF659"/>
<path d="M166.97 250.994C166.968 251.201 166.932 251.325 166.87 251.451C166.815 251.56 166.731 251.673 166.601 251.799C166.375 252.018 166.006 252.257 165.56 252.507C164.893 252.889 164.062 253.288 163.325 253.97C162.959 254.312 162.619 254.736 162.377 255.258C162.134 255.779 161.999 256.389 162 257.054C162 257.63 162.454 258.096 163.014 258.096C163.574 258.096 164.028 257.63 164.028 257.054C164.029 256.715 164.083 256.463 164.167 256.249C164.241 256.061 164.341 255.899 164.474 255.739C164.705 255.461 165.049 255.197 165.47 254.94C166.099 254.549 166.878 254.2 167.597 253.654C167.956 253.378 168.306 253.04 168.572 252.59C168.841 252.143 169.001 251.584 168.998 250.994C168.998 250.418 168.544 249.952 167.984 249.952C167.424 249.952 166.97 250.418 166.97 250.994Z" fill="#FBF659"/>
<path d="M168.998 263.006C169 262.492 168.881 262.002 168.671 261.589C168.488 261.227 168.245 260.927 167.985 260.678C167.528 260.242 167.022 259.943 166.537 259.667C165.808 259.26 165.122 258.898 164.69 258.488C164.472 258.284 164.316 258.079 164.207 257.845C164.099 257.609 164.029 257.336 164.028 256.946C164.028 256.37 163.574 255.904 163.014 255.904C162.454 255.904 162 256.37 162 256.946C161.999 257.526 162.101 258.062 162.288 258.536C162.452 258.95 162.679 259.312 162.936 259.619C163.388 260.158 163.92 260.535 164.43 260.849C165.196 261.314 165.934 261.664 166.383 262.016C166.609 262.189 166.755 262.35 166.84 262.493C166.923 262.639 166.967 262.769 166.97 263.006C166.97 263.582 167.424 264.048 167.984 264.048C168.544 264.048 168.998 263.582 168.998 263.006Z" fill="#FBF659"/>
<path d="M168.998 251.102C169 250.589 168.881 250.098 168.67 249.686C168.488 249.323 168.245 249.024 167.985 248.775C167.528 248.339 167.021 248.04 166.536 247.764C165.808 247.357 165.121 246.995 164.69 246.585C164.472 246.38 164.316 246.175 164.207 245.941C164.099 245.706 164.029 245.432 164.028 245.043H163.017L164.025 245.129C164.028 245.087 164.028 245.057 164.028 245.043H163.017L164.025 245.129C164.071 244.555 163.656 244.051 163.098 244.004C162.54 243.956 162.05 244.382 162.004 244.955C162 244.998 162 245.028 162 245.043C162 245.622 162.101 246.159 162.288 246.633C162.451 247.047 162.679 247.409 162.936 247.716C163.388 248.255 163.92 248.632 164.43 248.946C165.196 249.411 165.934 249.761 166.383 250.113C166.609 250.286 166.755 250.446 166.84 250.59C166.923 250.736 166.967 250.866 166.97 251.103C166.97 251.678 167.424 252.145 167.984 252.145C168.544 252.144 168.998 251.678 168.998 251.102Z" fill="#FBF659"/>
</svg>
