<svg width="517" height="467" viewBox="0 0 517 467" fill="none" xmlns="http://www.w3.org/2000/svg">
<path d="M379.833 5.61739L379.302 4.77219C379.05 4.93069 378.777 5.00337 378.503 5.00376C378.253 5.00376 378.004 4.94107 377.784 4.8221C377.564 4.70272 377.373 4.53064 377.228 4.30068V4.29988C377.07 4.04755 376.997 3.77487 376.996 3.50058C376.996 3.25106 377.059 3.00233 377.178 2.78235C377.297 2.56236 377.469 2.37192 377.699 2.22699C377.95 2.06969 378.222 1.99663 378.497 1.99623C378.747 1.99623 378.996 2.05891 379.216 2.17788C379.437 2.29726 379.628 2.46974 379.773 2.6993L379.773 2.7001C379.931 2.95123 380.003 3.22351 380.004 3.4978C380.004 3.74773 379.941 3.99686 379.822 4.21724C379.703 4.43763 379.53 4.62846 379.301 4.77299L379.302 4.77219L379.833 5.61739L380.365 6.46221C380.89 6.13163 381.303 5.67809 381.579 5.16545C381.856 4.65202 382 4.0791 382 3.4978C382.001 2.8614 381.825 2.21222 381.462 1.6365L381.462 1.63691C381.132 1.1107 380.678 0.697886 380.165 0.421607C379.652 0.14453 379.078 4.17233e-07 378.497 4.17233e-07C377.861 -0.000398854 377.212 0.174869 376.637 0.537385C376.11 0.867562 375.698 1.3207 375.422 1.83373C375.145 2.34676 375 2.91928 375 3.50058C375 4.13738 375.175 4.78697 375.538 5.36309V5.36268C375.868 5.88889 376.322 6.30171 376.835 6.57839C377.348 6.85547 377.921 7 378.503 7C379.139 7.0004 379.788 6.82511 380.364 6.4626L380.365 6.46221L379.833 5.61739Z" fill="#FBF659"/>
<path d="M119.687 19.7104L129.71 9.68666C130.097 9.30094 130.097 8.67532 129.71 8.28959C129.325 7.90347 128.699 7.90347 128.313 8.28959L118.29 18.3133C117.903 18.6991 117.903 19.3247 118.29 19.7104C118.675 20.0965 119.301 20.0965 119.687 19.7104Z" fill="#FBF659"/>
<path d="M195.172 92.9241C195.173 91.3265 195.823 89.8904 196.88 88.8424C197.938 87.7962 199.388 87.1523 201 87.1519C202.613 87.1523 204.063 87.7962 205.121 88.8424C206.177 89.8899 206.827 91.3265 206.828 92.9241C206.828 93.518 207.314 94 207.914 94C208.514 94 209 93.518 209 92.9241C209 88.5467 205.419 85.0004 201 85C198.795 84.9991 196.788 85.8883 195.344 87.3206C193.898 88.7508 193 90.7386 193 92.9241C193 93.518 193.487 94 194.086 94C194.686 94 195.172 93.518 195.172 92.9241Z" fill="#FBF659"/>
<path d="M42.9787 327H57.0213C57.5619 327 58 326.552 58 326C58 325.448 57.5619 325 57.0213 325H42.9787C42.4381 325 42 325.448 42 326C42 326.552 42.4381 327 42.9787 327Z" fill="#FBF659"/>
<path d="M116.979 110H131.021C131.562 110 132 109.552 132 109C132 108.448 131.562 108 131.021 108H116.979C116.438 108 116 108.448 116 109C116 109.552 116.438 110 116.979 110Z" fill="#FBF659"/>
<path d="M127.043 177.001L127.945 177.256L129.968 169.244C130.055 168.902 129.962 168.538 129.726 168.289C129.49 168.039 129.146 167.942 128.824 168.034L121.259 170.188V170.187L113.692 172.339C113.369 172.431 113.118 172.697 113.032 173.039C112.945 173.38 113.038 173.743 113.274 173.993L118.818 179.85L118.818 179.85L124.361 185.711C124.597 185.96 124.941 186.058 125.263 185.966C125.585 185.874 125.836 185.608 125.923 185.267L127.945 177.256L127.043 177.001L126.141 176.746L124.536 183.102L120.138 178.452L120.137 178.451L115.739 173.804L121.744 172.096H121.744L127.746 170.388L126.141 176.746L127.043 177.001Z" fill="#FBF659"/>
<path d="M183.649 225.867L176.871 219.51C176.424 219.09 175.72 219.112 175.301 219.56C174.881 220.008 174.903 220.711 175.351 221.13L182.129 227.488C182.576 227.907 183.279 227.885 183.699 227.437C184.119 226.99 184.097 226.286 183.649 225.867Z" fill="#FBF659"/>
<path d="M177.131 227.649L183.489 220.871C183.909 220.423 183.886 219.72 183.438 219.301C182.991 218.881 182.288 218.903 181.868 219.351L175.51 226.129C175.091 226.577 175.113 227.28 175.561 227.699C176.008 228.119 176.711 228.097 177.131 227.649Z" fill="#FBF659"/>
<path d="M320.649 417.867L313.871 411.51C313.424 411.09 312.72 411.112 312.301 411.56C311.881 412.008 311.903 412.711 312.351 413.13L319.129 419.488C319.576 419.907 320.279 419.885 320.699 419.437C321.119 418.99 321.097 418.286 320.649 417.867Z" fill="#FBF659"/>
<path d="M314.131 419.649L320.489 412.871C320.909 412.423 320.886 411.72 320.438 411.301C319.991 410.881 319.288 410.903 318.868 411.351L312.51 418.129C312.091 418.577 312.113 419.28 312.561 419.699C313.008 420.119 313.711 420.097 314.131 419.649Z" fill="#FBF659"/>
<path d="M259.649 13.8669L252.871 7.50966C252.424 7.09014 251.72 7.11236 251.301 7.55988C250.881 8.00785 250.903 8.71091 251.351 9.13043L258.129 15.4877C258.576 15.9072 259.279 15.885 259.699 15.4375C260.119 14.99 260.097 14.2865 259.649 13.8669Z" fill="#FBF659"/>
<path d="M253.131 15.649L259.489 8.87087C259.909 8.42335 259.886 7.7203 259.438 7.30077C258.991 6.88081 258.288 6.90347 257.868 7.35099L251.51 14.1291C251.091 14.5767 251.113 15.2797 251.561 15.6992C252.008 16.1192 252.711 16.0965 253.131 15.649Z" fill="#FBF659"/>
<path d="M149.091 371.091V372.183H161.817V383.817H150.183V371.091H149.091H148V384.909C148 385.196 148.117 385.477 148.32 385.68C148.523 385.884 148.804 386 149.091 386H162.909C163.196 386 163.477 385.884 163.68 385.68C163.883 385.477 164 385.196 164 384.909V371.091C164 370.804 163.883 370.522 163.68 370.32C163.477 370.116 163.196 370 162.909 370H149.091C148.804 370 148.523 370.116 148.32 370.32C148.117 370.522 148 370.804 148 371.091H149.091Z" fill="#FBF659"/>
<path d="M412.091 452.091V453.183H424.817V464.817H413.183V452.091H412.091H411V465.909C411 466.196 411.117 466.477 411.32 466.68C411.523 466.884 411.804 467 412.091 467H425.909C426.196 467 426.477 466.884 426.68 466.68C426.883 466.477 427 466.196 427 465.909V452.091C427 451.804 426.883 451.522 426.68 451.32C426.477 451.116 426.196 451 425.909 451H412.091C411.804 451 411.523 451.116 411.32 451.32C411.117 451.522 411 451.804 411 452.091H412.091Z" fill="#FBF659"/>
<path d="M7.10232 77.9722C6.89583 77.9706 6.77159 77.9341 6.64552 77.8724C6.53642 77.8177 6.42323 77.7333 6.29782 77.6031C6.07816 77.3776 5.83973 77.0078 5.58992 76.5621C5.20787 75.8953 4.80806 75.0643 4.12622 74.3279C3.78436 73.9612 3.36032 73.6206 2.83836 73.3789C2.31757 73.1359 1.70768 73.0009 1.04226 73.0021C0.466556 73.0021 0 73.4563 0 74.016C0 74.576 0.466556 75.0299 1.04226 75.0299C1.38149 75.0307 1.63309 75.085 1.84755 75.169C2.03486 75.2432 2.19754 75.3434 2.3573 75.4764C2.63562 75.7071 2.89944 76.0511 3.15625 76.4716C3.54776 77.1006 3.89675 77.8797 4.44277 78.5996C4.71851 78.9577 5.05691 79.3081 5.50671 79.5745C5.95375 79.8426 6.51199 80.0032 7.10232 80C7.67802 80 8.14458 79.5461 8.14458 78.9861C8.14458 78.426 7.67802 77.9722 7.10232 77.9722Z" fill="#FBF659"/>
<path d="M19.0059 77.97C18.7991 77.9684 18.6749 77.9319 18.549 77.8702C18.4399 77.8154 18.3267 77.7311 18.2013 77.6009C17.9816 77.3754 17.7434 77.0055 17.4934 76.5598C17.1113 75.893 16.7115 75.0624 16.0298 74.3254C15.6879 73.9592 15.264 73.6185 14.742 73.3768C14.2212 73.1338 13.6113 72.9988 12.9459 73C12.3702 73 11.9036 73.4542 11.9036 74.0139C11.9036 74.5741 12.3702 75.0279 12.9459 75.0279C13.2851 75.0287 13.5368 75.0831 13.7511 75.167C13.9385 75.2412 14.101 75.3414 14.2608 75.4744C14.5391 75.7052 14.8028 76.0491 15.0597 76.4697C15.4511 77.0988 15.8001 77.8779 16.3462 78.5974C16.6219 78.9555 16.9603 79.306 17.4102 79.5724C17.8572 79.8405 18.4156 80.0011 19.0059 79.9979C19.5817 79.9979 20.0482 79.544 20.0482 78.9839C20.0482 78.4238 19.5817 77.97 19.0059 77.97Z" fill="#FBF659"/>
<path d="M6.994 79.9979C7.50764 79.9999 7.99793 79.8807 8.41059 79.6706C8.77274 79.4877 9.07255 79.2447 9.32185 78.9852C9.75761 78.5277 10.0571 78.0215 10.3329 77.5368C10.7396 76.808 11.1016 76.1218 11.5121 75.6902C11.7165 75.4724 11.9213 75.3163 12.1555 75.2072C12.3908 75.0993 12.6644 75.0291 13.0542 75.0279C13.6299 75.0279 14.0964 74.5741 14.0964 74.0139C14.0964 73.4542 13.6299 73 13.0542 73C12.4745 72.9992 11.9376 73.1006 11.4644 73.2884C11.0499 73.4518 10.6883 73.6785 10.381 73.9357C9.84215 74.3879 9.46484 74.92 9.15055 75.4298C8.68561 76.1964 8.33618 76.9341 7.98409 77.3831C7.81083 77.609 7.65042 77.7554 7.50697 77.8398C7.36056 77.9225 7.23095 77.9667 6.994 77.97C6.41838 77.97 5.95181 78.4238 5.95181 78.9839C5.95181 79.544 6.41838 79.9979 6.994 79.9979Z" fill="#FBF659"/>
<path d="M18.8978 79.9979C19.4114 79.9995 19.9017 79.8807 20.3144 79.6702C20.6767 79.4877 20.9764 79.2447 21.2253 78.9848C21.6614 78.5277 21.9603 78.0211 22.2363 77.5364C22.6428 76.808 23.0051 76.1214 23.4153 75.6902C23.62 75.4724 23.8247 75.3163 24.0586 75.2072C24.2941 75.0993 24.5676 75.0291 24.9574 75.0279V74.0168L24.8711 75.0247C24.9128 75.0279 24.9428 75.0279 24.9574 75.0279V74.0168L24.8711 75.0247C25.4448 75.0709 25.9488 74.6564 25.9963 74.0983C26.0443 73.5402 25.6182 73.0499 25.0445 73.0036C25.0024 73.0004 24.9724 73 24.9574 73C24.3779 72.9996 23.8409 73.1006 23.3673 73.2884C22.9534 73.4514 22.5915 73.6785 22.2842 73.9357C21.7452 74.3879 21.3679 74.92 21.054 75.4298C20.5891 76.196 20.2393 76.9341 19.8875 77.3827C19.714 77.609 19.554 77.7554 19.4101 77.8398C19.2638 77.9225 19.1341 77.9667 18.8973 77.97C18.3218 77.97 17.8554 78.4242 17.8554 78.9844C17.8556 79.5441 18.3221 79.9979 18.8978 79.9979Z" fill="#FBF659"/>
<path d="M261.102 464.972C260.896 464.971 260.772 464.934 260.646 464.872C260.536 464.818 260.423 464.733 260.298 464.603C260.078 464.378 259.84 464.008 259.59 463.562C259.208 462.895 258.808 462.064 258.126 461.328C257.784 460.961 257.36 460.621 256.838 460.379C256.318 460.136 255.708 460.001 255.042 460.002C254.467 460.002 254 460.456 254 461.016C254 461.576 254.467 462.03 255.042 462.03C255.381 462.031 255.633 462.085 255.848 462.169C256.035 462.243 256.198 462.343 256.357 462.476C256.636 462.707 256.899 463.051 257.156 463.472C257.548 464.101 257.897 464.88 258.443 465.6C258.719 465.958 259.057 466.308 259.507 466.575C259.954 466.843 260.512 467.003 261.102 467C261.678 467 262.145 466.546 262.145 465.986C262.145 465.426 261.678 464.972 261.102 464.972Z" fill="#FBF659"/>
<path d="M273.006 464.97C272.799 464.968 272.675 464.932 272.549 464.87C272.44 464.815 272.327 464.731 272.201 464.601C271.982 464.375 271.743 464.006 271.493 463.56C271.111 462.893 270.712 462.062 270.03 461.325C269.688 460.959 269.264 460.619 268.742 460.377C268.221 460.134 267.611 459.999 266.946 460C266.37 460 265.904 460.454 265.904 461.014C265.904 461.574 266.37 462.028 266.946 462.028C267.285 462.029 267.537 462.083 267.751 462.167C267.939 462.241 268.101 462.341 268.261 462.474C268.539 462.705 268.803 463.049 269.06 463.47C269.451 464.099 269.8 464.878 270.346 465.597C270.622 465.956 270.96 466.306 271.41 466.572C271.857 466.841 272.416 467.001 273.006 466.998C273.582 466.998 274.048 466.544 274.048 465.984C274.048 465.424 273.582 464.97 273.006 464.97Z" fill="#FBF659"/>
<path d="M260.994 466.998C261.508 467 261.998 466.881 262.411 466.671C262.773 466.488 263.073 466.245 263.322 465.985C263.758 465.528 264.057 465.022 264.333 464.537C264.74 463.808 265.102 463.122 265.512 462.69C265.716 462.472 265.921 462.316 266.155 462.207C266.391 462.099 266.664 462.029 267.054 462.028C267.63 462.028 268.096 461.574 268.096 461.014C268.096 460.454 267.63 460 267.054 460C266.474 459.999 265.938 460.101 265.464 460.288C265.05 460.452 264.688 460.679 264.381 460.936C263.842 461.388 263.465 461.92 263.151 462.43C262.686 463.196 262.336 463.934 261.984 464.383C261.811 464.609 261.65 464.755 261.507 464.84C261.361 464.923 261.231 464.967 260.994 464.97C260.418 464.97 259.952 465.424 259.952 465.984C259.952 466.544 260.418 466.998 260.994 466.998Z" fill="#FBF659"/>
<path d="M272.898 466.998C273.411 467 273.902 466.881 274.314 466.67C274.677 466.488 274.976 466.245 275.225 465.985C275.661 465.528 275.96 465.021 276.236 464.536C276.643 463.808 277.005 463.121 277.415 462.69C277.62 462.472 277.825 462.316 278.059 462.207C278.294 462.099 278.568 462.029 278.957 462.028V461.017L278.871 462.025C278.913 462.028 278.943 462.028 278.957 462.028V461.017L278.871 462.025C279.445 462.071 279.949 461.656 279.996 461.098C280.044 460.54 279.618 460.05 279.045 460.004C279.002 460 278.972 460 278.957 460C278.378 460 277.841 460.101 277.367 460.288C276.953 460.451 276.591 460.679 276.284 460.936C275.745 461.388 275.368 461.92 275.054 462.43C274.589 463.196 274.239 463.934 273.887 464.383C273.714 464.609 273.554 464.755 273.41 464.84C273.264 464.923 273.134 464.967 272.897 464.97C272.322 464.97 271.855 465.424 271.855 465.984C271.856 466.544 272.322 466.998 272.898 466.998Z" fill="#FBF659"/>
<path d="M514.972 59.8977C514.971 60.1042 514.934 60.2284 514.872 60.3545C514.818 60.4636 514.733 60.5768 514.603 60.7022C514.378 60.9218 514.008 61.1603 513.562 61.4101C512.895 61.7921 512.064 62.1919 511.328 62.8738C510.961 63.2156 510.621 63.6397 510.379 64.1616C510.136 64.6824 510.001 65.2923 510.002 65.9577C510.002 66.5334 510.456 67 511.016 67C511.576 67 512.03 66.5334 512.03 65.9577C512.031 65.6185 512.085 65.3669 512.169 65.1525C512.243 64.9651 512.343 64.8025 512.476 64.6427C512.707 64.3644 513.051 64.1006 513.472 63.8438C514.101 63.4522 514.88 63.1032 515.6 62.5572C515.958 62.2815 516.308 61.9431 516.575 61.4933C516.843 61.0462 517.003 60.488 517 59.8977C517 59.322 516.546 58.8554 515.986 58.8554C515.426 58.8554 514.972 59.322 514.972 59.8977Z" fill="#FBF659"/>
<path d="M514.97 47.9941C514.968 48.2009 514.932 48.3251 514.87 48.451C514.815 48.5601 514.731 48.6733 514.601 48.7987C514.375 49.0184 514.006 49.2566 513.56 49.5066C512.893 49.8887 512.062 50.2885 511.325 50.9702C510.959 51.3121 510.619 51.736 510.377 52.258C510.134 52.7788 509.999 53.3887 510 54.0541C510 54.6298 510.454 55.0964 511.014 55.0964C511.574 55.0964 512.028 54.6298 512.028 54.0541C512.029 53.7149 512.083 53.4632 512.167 53.2489C512.241 53.0615 512.341 52.899 512.474 52.7392C512.705 52.4609 513.049 52.1972 513.47 51.9403C514.099 51.5489 514.878 51.1999 515.597 50.6538C515.956 50.3781 516.306 50.0397 516.572 49.5898C516.841 49.1428 517.001 48.5844 516.998 47.9941C516.998 47.4183 516.544 46.9518 515.984 46.9518C515.424 46.9518 514.97 47.4183 514.97 47.9941Z" fill="#FBF659"/>
<path d="M516.998 60.006C517 59.4924 516.881 59.0021 516.671 58.5894C516.488 58.2273 516.245 57.9274 515.985 57.6782C515.528 57.2424 515.022 56.9429 514.537 56.6671C513.808 56.2604 513.122 55.8984 512.69 55.4879C512.472 55.2835 512.316 55.0787 512.207 54.8445C512.099 54.6092 512.029 54.3356 512.028 53.9458C512.028 53.3701 511.574 52.9036 511.014 52.9036C510.454 52.9036 510 53.3701 510 53.9458C509.999 54.5255 510.101 55.0624 510.288 55.5356C510.452 55.9501 510.679 56.3117 510.936 56.619C511.388 57.1579 511.92 57.5352 512.43 57.8494C513.196 58.3144 513.934 58.6638 514.383 59.0159C514.609 59.1892 514.755 59.3496 514.84 59.493C514.923 59.6394 514.967 59.769 514.97 60.006C514.97 60.5816 515.424 61.0482 515.984 61.0482C516.544 61.0482 516.998 60.5816 516.998 60.006Z" fill="#FBF659"/>
<path d="M516.998 48.1022C517 47.5886 516.881 47.0983 516.67 46.6856C516.488 46.3233 516.245 46.0236 515.985 45.7747C515.528 45.3386 515.021 45.0397 514.536 44.7637C513.808 44.3572 513.121 43.9949 512.69 43.5847C512.472 43.38 512.316 43.1753 512.207 42.9414C512.099 42.7059 512.029 42.4324 512.028 42.0426H511.017L512.025 42.1289C512.028 42.0872 512.028 42.0572 512.028 42.0426H511.017L512.025 42.1289C512.071 41.5552 511.656 41.0512 511.098 41.0037C510.54 40.9557 510.05 41.3818 510.004 41.9555C510 41.9976 510 42.0276 510 42.0426C510 42.6221 510.101 43.1591 510.288 43.6327C510.451 44.0466 510.679 44.4085 510.936 44.7158C511.388 45.2548 511.92 45.6321 512.43 45.946C513.196 46.4109 513.934 46.7607 514.383 47.1125C514.609 47.286 514.755 47.446 514.84 47.5899C514.923 47.7362 514.967 47.8659 514.97 48.1027C514.97 48.6782 515.424 49.1446 515.984 49.1446C516.544 49.1444 516.998 48.6779 516.998 48.1022Z" fill="#FBF659"/>
</svg>
