<svg width="1010" height="648" viewBox="0 0 1010 648" fill="none" xmlns="http://www.w3.org/2000/svg">
<g opacity="0.3">
<path d="M509.833 646.617L509.302 645.772C509.05 645.931 508.777 646.003 508.503 646.004C508.253 646.004 508.004 645.941 507.784 645.822C507.564 645.703 507.373 645.531 507.228 645.301V645.3C507.07 645.048 506.997 644.775 506.996 644.501C506.996 644.251 507.059 644.002 507.178 643.782C507.297 643.562 507.469 643.372 507.699 643.227C507.95 643.07 508.222 642.997 508.497 642.996C508.747 642.996 508.996 643.059 509.216 643.178C509.437 643.297 509.628 643.47 509.773 643.699L509.773 643.7C509.931 643.951 510.003 644.224 510.004 644.498C510.004 644.748 509.941 644.997 509.822 645.217C509.703 645.438 509.53 645.628 509.301 645.773L509.302 645.772L509.833 646.617L510.365 647.462C510.89 647.132 511.303 646.678 511.579 646.165C511.856 645.652 512 645.079 512 644.498C512.001 643.861 511.825 643.212 511.462 642.637L511.462 642.637C511.132 642.111 510.678 641.698 510.165 641.422C509.652 641.145 509.078 641 508.497 641C507.861 641 507.212 641.175 506.637 641.537C506.11 641.868 505.698 642.321 505.422 642.834C505.145 643.347 505 643.919 505 644.501C505 645.137 505.175 645.787 505.538 646.363V646.363C505.868 646.889 506.322 647.302 506.835 647.578C507.348 647.855 507.921 648 508.503 648C509.139 648 509.788 647.825 510.364 647.463L510.365 647.462L509.833 646.617Z" fill="#FBF659"/>
<path d="M902.914 576.999H901.828C901.827 578.612 901.177 580.063 900.121 581.121C899.063 582.177 897.613 582.827 896 582.828C894.388 582.827 892.938 582.177 891.879 581.121C890.823 580.062 890.173 578.612 890.172 576.999C890.173 575.387 890.823 573.937 891.879 572.879C892.938 571.823 894.388 571.173 896 571.172C897.613 571.173 899.063 571.823 900.121 572.879C901.177 573.937 901.827 575.387 901.828 576.999H902.914H904C904 572.581 900.419 569 896 569C893.795 568.999 891.788 569.897 890.343 571.343C888.897 572.787 888 574.794 888 576.999C888.001 581.419 891.582 584.999 896 585C900.419 584.999 904 581.419 904 576.999H902.914Z" fill="#FBF659"/>
<path d="M14.9138 133.999H13.8277C13.8272 135.612 13.1773 137.063 12.1207 138.121C11.0628 139.177 9.61295 139.827 8.00022 139.828C6.38793 139.827 4.93768 139.177 3.87933 138.121C2.82315 137.062 2.17319 135.612 2.17232 133.999C2.17319 132.387 2.82315 130.937 3.87933 129.879C4.93768 128.823 6.38793 128.173 8.00022 128.172C9.61295 128.173 11.0632 128.823 12.1211 129.879C13.1773 130.937 13.8272 132.387 13.8277 133.999H14.9138H16C15.9996 129.581 12.4187 126 8.00022 126C5.79488 125.999 3.78809 126.897 2.3435 128.343C0.897165 129.787 -0.000434306 131.794 1.57648e-07 133.999C0.000869085 138.419 3.58216 141.999 8.00022 142C12.4187 141.999 15.9996 138.419 16 133.999H14.9138Z" fill="#FBF659"/>
<path d="M887.043 147.001L887.945 147.256L889.968 139.244C890.055 138.902 889.962 138.538 889.726 138.289C889.49 138.039 889.146 137.942 888.824 138.034L881.259 140.188V140.187L873.692 142.339C873.369 142.431 873.118 142.697 873.032 143.039C872.945 143.38 873.038 143.743 873.274 143.993L878.818 149.85L878.818 149.85L884.361 155.711C884.597 155.96 884.941 156.058 885.263 155.966C885.585 155.874 885.836 155.608 885.923 155.267L887.945 147.256L887.043 147.001L886.141 146.746L884.536 153.102L880.138 148.452L880.137 148.451L875.739 143.804L881.744 142.096H881.744L887.746 140.388L886.141 146.746L887.043 147.001Z" fill="#FBF659"/>
<path d="M657.649 188.867L650.871 182.51C650.424 182.09 649.72 182.112 649.301 182.56C648.881 183.008 648.903 183.711 649.351 184.13L656.129 190.488C656.576 190.907 657.279 190.885 657.699 190.437C658.119 189.99 658.097 189.286 657.649 188.867Z" fill="#FBF659"/>
<path d="M651.131 190.649L657.489 183.871C657.909 183.423 657.886 182.72 657.438 182.301C656.991 181.881 656.288 181.903 655.868 182.351L649.51 189.129C649.091 189.577 649.113 190.28 649.561 190.699C650.008 191.119 650.711 191.097 651.131 190.649Z" fill="#FBF659"/>
<path d="M623.649 539.867L616.871 533.51C616.424 533.09 615.72 533.112 615.301 533.56C614.881 534.008 614.903 534.711 615.351 535.13L622.129 541.488C622.576 541.907 623.279 541.885 623.699 541.437C624.119 540.99 624.097 540.286 623.649 539.867Z" fill="#FBF659"/>
<path d="M617.131 541.649L623.489 534.871C623.909 534.423 623.886 533.72 623.438 533.301C622.991 532.881 622.288 532.903 621.868 533.351L615.51 540.129C615.091 540.577 615.113 541.28 615.561 541.699C616.008 542.119 616.711 542.097 617.131 541.649Z" fill="#FBF659"/>
<path d="M986.972 355.898C986.971 356.104 986.934 356.228 986.872 356.354C986.818 356.464 986.733 356.577 986.603 356.702C986.378 356.922 986.008 357.16 985.562 357.41C984.895 357.792 984.064 358.192 983.328 358.874C982.961 359.216 982.621 359.64 982.379 360.162C982.136 360.682 982.001 361.292 982.002 361.958C982.002 362.533 982.456 363 983.016 363C983.576 363 984.03 362.533 984.03 361.958C984.031 361.619 984.085 361.367 984.169 361.152C984.243 360.965 984.343 360.802 984.476 360.643C984.707 360.364 985.051 360.101 985.472 359.844C986.101 359.452 986.88 359.103 987.6 358.557C987.958 358.281 988.308 357.943 988.575 357.493C988.843 357.046 989.003 356.488 989 355.898C989 355.322 988.546 354.855 987.986 354.855C987.426 354.855 986.972 355.322 986.972 355.898Z" fill="#FBF659"/>
<path d="M986.97 343.994C986.968 344.201 986.932 344.325 986.87 344.451C986.815 344.56 986.731 344.673 986.601 344.799C986.375 345.018 986.006 345.257 985.56 345.507C984.893 345.889 984.062 346.288 983.325 346.97C982.959 347.312 982.619 347.736 982.377 348.258C982.134 348.779 981.999 349.389 982 350.054C982 350.63 982.454 351.096 983.014 351.096C983.574 351.096 984.028 350.63 984.028 350.054C984.029 349.715 984.083 349.463 984.167 349.249C984.241 349.061 984.341 348.899 984.474 348.739C984.705 348.461 985.049 348.197 985.47 347.94C986.099 347.549 986.878 347.2 987.597 346.654C987.956 346.378 988.306 346.04 988.572 345.59C988.841 345.143 989.001 344.584 988.998 343.994C988.998 343.418 988.544 342.952 987.984 342.952C987.424 342.952 986.97 343.418 986.97 343.994Z" fill="#FBF659"/>
<path d="M988.998 356.006C989 355.492 988.881 355.002 988.671 354.589C988.488 354.227 988.245 353.927 987.985 353.678C987.528 353.242 987.022 352.943 986.537 352.667C985.808 352.26 985.122 351.898 984.69 351.488C984.472 351.284 984.316 351.079 984.207 350.845C984.099 350.609 984.029 350.336 984.028 349.946C984.028 349.37 983.574 348.904 983.014 348.904C982.454 348.904 982 349.37 982 349.946C981.999 350.526 982.101 351.062 982.288 351.536C982.452 351.95 982.679 352.312 982.936 352.619C983.388 353.158 983.92 353.535 984.43 353.849C985.196 354.314 985.934 354.664 986.383 355.016C986.609 355.189 986.755 355.35 986.84 355.493C986.923 355.639 986.967 355.769 986.97 356.006C986.97 356.582 987.424 357.048 987.984 357.048C988.544 357.048 988.998 356.582 988.998 356.006Z" fill="#FBF659"/>
<path d="M988.998 344.102C989 343.589 988.881 343.098 988.67 342.686C988.488 342.323 988.245 342.024 987.985 341.775C987.528 341.339 987.021 341.04 986.536 340.764C985.808 340.357 985.121 339.995 984.69 339.585C984.472 339.38 984.316 339.175 984.207 338.941C984.099 338.706 984.029 338.432 984.028 338.043H983.017L984.025 338.129C984.028 338.087 984.028 338.057 984.028 338.043H983.017L984.025 338.129C984.071 337.555 983.656 337.051 983.098 337.004C982.54 336.956 982.05 337.382 982.004 337.955C982 337.998 982 338.028 982 338.043C982 338.622 982.101 339.159 982.288 339.633C982.451 340.047 982.679 340.409 982.936 340.716C983.388 341.255 983.92 341.632 984.43 341.946C985.196 342.411 985.934 342.761 986.383 343.113C986.609 343.286 986.755 343.446 986.84 343.59C986.923 343.736 986.967 343.866 986.97 344.103C986.97 344.678 987.424 345.145 987.984 345.145C988.544 345.144 988.998 344.678 988.998 344.102Z" fill="#FBF659"/>
<path d="M414.972 18.8977C414.971 19.1042 414.934 19.2284 414.872 19.3545C414.818 19.4636 414.733 19.5768 414.603 19.7022C414.378 19.9218 414.008 20.1603 413.562 20.4101C412.895 20.7921 412.064 21.1919 411.328 21.8738C410.961 22.2156 410.621 22.6397 410.379 23.1616C410.136 23.6824 410.001 24.2923 410.002 24.9577C410.002 25.5334 410.456 26 411.016 26C411.576 26 412.03 25.5334 412.03 24.9577C412.031 24.6185 412.085 24.3669 412.169 24.1525C412.243 23.9651 412.343 23.8025 412.476 23.6427C412.707 23.3644 413.051 23.1006 413.472 22.8438C414.101 22.4522 414.88 22.1032 415.6 21.5572C415.958 21.2815 416.308 20.9431 416.575 20.4933C416.843 20.0462 417.003 19.488 417 18.8977C417 18.322 416.546 17.8554 415.986 17.8554C415.426 17.8554 414.972 18.322 414.972 18.8977Z" fill="#FBF659"/>
<path d="M414.97 6.99409C414.968 7.20088 414.932 7.32512 414.87 7.45103C414.815 7.56009 414.731 7.67329 414.601 7.79869C414.375 8.01837 414.006 8.25663 413.56 8.50661C412.893 8.88867 412.062 9.28849 411.325 9.97023C410.959 10.3121 410.619 10.736 410.377 11.258C410.134 11.7788 409.999 12.3887 410 13.0541C410 13.6298 410.454 14.0964 411.014 14.0964C411.574 14.0964 412.028 13.6298 412.028 13.0541C412.029 12.7149 412.083 12.4632 412.167 12.2489C412.241 12.0615 412.341 11.899 412.474 11.7392C412.705 11.4609 413.049 11.1972 413.47 10.9403C414.099 10.5489 414.878 10.1999 415.597 9.6538C415.956 9.37809 416.306 9.03968 416.572 8.58983C416.841 8.14281 417.001 7.58436 416.998 6.99409C416.998 6.41834 416.544 5.95181 415.984 5.95181C415.424 5.95181 414.97 6.41834 414.97 6.99409Z" fill="#FBF659"/>
<path d="M416.998 19.006C417 18.4924 416.881 18.0021 416.671 17.5894C416.488 17.2273 416.245 16.9274 415.985 16.6782C415.528 16.2424 415.022 15.9429 414.537 15.6671C413.808 15.2604 413.122 14.8984 412.69 14.4879C412.472 14.2835 412.316 14.0787 412.207 13.8445C412.099 13.6092 412.029 13.3356 412.028 12.9458C412.028 12.3701 411.574 11.9036 411.014 11.9036C410.454 11.9036 410 12.3701 410 12.9458C409.999 13.5255 410.101 14.0624 410.288 14.5356C410.452 14.9501 410.679 15.3117 410.936 15.619C411.388 16.1579 411.92 16.5352 412.43 16.8494C413.196 17.3144 413.934 17.6638 414.383 18.0159C414.609 18.1892 414.755 18.3496 414.84 18.493C414.923 18.6394 414.967 18.769 414.97 19.006C414.97 19.5816 415.424 20.0482 415.984 20.0482C416.544 20.0482 416.998 19.5816 416.998 19.006Z" fill="#FBF659"/>
<path d="M416.998 7.10225C417 6.58862 416.881 6.09834 416.67 5.68561C416.488 5.32333 416.245 5.02358 415.985 4.77469C415.528 4.33861 415.021 4.03969 414.536 3.7637C413.808 3.35723 413.121 2.99494 412.69 2.58471C412.472 2.38001 412.316 2.17532 412.207 1.94143C412.099 1.70588 412.029 1.43239 412.028 1.04259H411.017L412.025 1.12889C412.028 1.0872 412.028 1.05718 412.028 1.04259H411.017L412.025 1.12889C412.071 0.555239 411.656 0.0512066 411.098 0.00367928C410.54 -0.0442638 410.05 0.381807 410.004 0.955463C410 0.99757 410 1.02758 410 1.04259C410 1.62208 410.101 2.15905 410.288 2.63265C410.451 3.04663 410.679 3.4085 410.936 3.71576C411.388 4.25481 411.92 4.63211 412.43 4.94603C413.196 5.41088 413.934 5.76066 414.383 6.11252C414.609 6.28595 414.755 6.44604 414.84 6.58988C414.923 6.73621 414.967 6.86586 414.97 7.10266C414.97 7.67819 415.424 8.14458 415.984 8.14458C416.544 8.14441 416.998 7.67786 416.998 7.10225Z" fill="#FBF659"/>
<path d="M209.102 158.972C208.896 158.971 208.772 158.934 208.646 158.872C208.536 158.818 208.423 158.733 208.298 158.603C208.078 158.378 207.84 158.008 207.59 157.562C207.208 156.895 206.808 156.064 206.126 155.328C205.784 154.961 205.36 154.621 204.838 154.379C204.318 154.136 203.708 154.001 203.042 154.002C202.467 154.002 202 154.456 202 155.016C202 155.576 202.467 156.03 203.042 156.03C203.381 156.031 203.633 156.085 203.848 156.169C204.035 156.243 204.198 156.343 204.357 156.476C204.636 156.707 204.899 157.051 205.156 157.472C205.548 158.101 205.897 158.88 206.443 159.6C206.719 159.958 207.057 160.308 207.507 160.575C207.954 160.843 208.512 161.003 209.102 161C209.678 161 210.145 160.546 210.145 159.986C210.145 159.426 209.678 158.972 209.102 158.972Z" fill="#FBF659"/>
<path d="M221.006 158.97C220.799 158.968 220.675 158.932 220.549 158.87C220.44 158.815 220.327 158.731 220.201 158.601C219.982 158.375 219.743 158.006 219.493 157.56C219.111 156.893 218.712 156.062 218.03 155.325C217.688 154.959 217.264 154.619 216.742 154.377C216.221 154.134 215.611 153.999 214.946 154C214.37 154 213.904 154.454 213.904 155.014C213.904 155.574 214.37 156.028 214.946 156.028C215.285 156.029 215.537 156.083 215.751 156.167C215.939 156.241 216.101 156.341 216.261 156.474C216.539 156.705 216.803 157.049 217.06 157.47C217.451 158.099 217.8 158.878 218.346 159.597C218.622 159.956 218.96 160.306 219.41 160.572C219.857 160.841 220.416 161.001 221.006 160.998C221.582 160.998 222.048 160.544 222.048 159.984C222.048 159.424 221.582 158.97 221.006 158.97Z" fill="#FBF659"/>
<path d="M208.994 160.998C209.508 161 209.998 160.881 210.411 160.671C210.773 160.488 211.073 160.245 211.322 159.985C211.758 159.528 212.057 159.022 212.333 158.537C212.74 157.808 213.102 157.122 213.512 156.69C213.716 156.472 213.921 156.316 214.155 156.207C214.391 156.099 214.664 156.029 215.054 156.028C215.63 156.028 216.096 155.574 216.096 155.014C216.096 154.454 215.63 154 215.054 154C214.474 153.999 213.938 154.101 213.464 154.288C213.05 154.452 212.688 154.679 212.381 154.936C211.842 155.388 211.465 155.92 211.151 156.43C210.686 157.196 210.336 157.934 209.984 158.383C209.811 158.609 209.65 158.755 209.507 158.84C209.361 158.923 209.231 158.967 208.994 158.97C208.418 158.97 207.952 159.424 207.952 159.984C207.952 160.544 208.418 160.998 208.994 160.998Z" fill="#FBF659"/>
<path d="M220.898 160.998C221.411 161 221.902 160.881 222.314 160.67C222.677 160.488 222.976 160.245 223.225 159.985C223.661 159.528 223.96 159.021 224.236 158.536C224.643 157.808 225.005 157.121 225.415 156.69C225.62 156.472 225.825 156.316 226.059 156.207C226.294 156.099 226.568 156.029 226.957 156.028V155.017L226.871 156.025C226.913 156.028 226.943 156.028 226.957 156.028V155.017L226.871 156.025C227.445 156.071 227.949 155.656 227.996 155.098C228.044 154.54 227.618 154.05 227.045 154.004C227.002 154 226.972 154 226.957 154C226.378 154 225.841 154.101 225.367 154.288C224.953 154.451 224.591 154.679 224.284 154.936C223.745 155.388 223.368 155.92 223.054 156.43C222.589 157.196 222.239 157.934 221.887 158.383C221.714 158.609 221.554 158.755 221.41 158.84C221.264 158.923 221.134 158.967 220.897 158.97C220.322 158.97 219.855 159.424 219.855 159.984C219.856 160.544 220.322 160.998 220.898 160.998Z" fill="#FBF659"/>
<path d="M96.1023 583.972C95.8958 583.971 95.7716 583.934 95.6455 583.872C95.5364 583.818 95.4232 583.733 95.2978 583.603C95.0782 583.378 94.8397 583.008 94.5899 582.562C94.2079 581.895 93.8081 581.064 93.1262 580.328C92.7844 579.961 92.3603 579.621 91.8384 579.379C91.3176 579.136 90.7077 579.001 90.0423 579.002C89.4666 579.002 89 579.456 89 580.016C89 580.576 89.4666 581.03 90.0423 581.03C90.3815 581.031 90.6331 581.085 90.8475 581.169C91.0349 581.243 91.1975 581.343 91.3573 581.476C91.6356 581.707 91.8994 582.051 92.1562 582.472C92.5478 583.101 92.8968 583.88 93.4428 584.6C93.7185 584.958 94.0569 585.308 94.5067 585.575C94.9538 585.843 95.512 586.003 96.1023 586C96.678 586 97.1446 585.546 97.1446 584.986C97.1446 584.426 96.678 583.972 96.1023 583.972Z" fill="#FBF659"/>
<path d="M108.006 583.97C107.799 583.968 107.675 583.932 107.549 583.87C107.44 583.815 107.327 583.731 107.201 583.601C106.982 583.375 106.743 583.006 106.493 582.56C106.111 581.893 105.712 581.062 105.03 580.325C104.688 579.959 104.264 579.619 103.742 579.377C103.221 579.134 102.611 578.999 101.946 579C101.37 579 100.904 579.454 100.904 580.014C100.904 580.574 101.37 581.028 101.946 581.028C102.285 581.029 102.537 581.083 102.751 581.167C102.939 581.241 103.101 581.341 103.261 581.474C103.539 581.705 103.803 582.049 104.06 582.47C104.451 583.099 104.8 583.878 105.346 584.597C105.622 584.956 105.96 585.306 106.41 585.572C106.857 585.841 107.416 586.001 108.006 585.998C108.582 585.998 109.048 585.544 109.048 584.984C109.048 584.424 108.582 583.97 108.006 583.97Z" fill="#FBF659"/>
<path d="M95.994 585.998C96.5076 586 96.9979 585.881 97.4106 585.671C97.7727 585.488 98.0726 585.245 98.3218 584.985C98.7576 584.528 99.0571 584.022 99.3329 583.537C99.7396 582.808 100.102 582.122 100.512 581.69C100.716 581.472 100.921 581.316 101.155 581.207C101.391 581.099 101.664 581.029 102.054 581.028C102.63 581.028 103.096 580.574 103.096 580.014C103.096 579.454 102.63 579 102.054 579C101.474 578.999 100.938 579.101 100.464 579.288C100.05 579.452 99.6883 579.679 99.381 579.936C98.8421 580.388 98.4648 580.92 98.1506 581.43C97.6856 582.196 97.3362 582.934 96.9841 583.383C96.8108 583.609 96.6504 583.755 96.507 583.84C96.3606 583.923 96.231 583.967 95.994 583.97C95.4184 583.97 94.9518 584.424 94.9518 584.984C94.9518 585.544 95.4184 585.998 95.994 585.998Z" fill="#FBF659"/>
<path d="M107.898 585.998C108.411 586 108.902 585.881 109.314 585.67C109.677 585.488 109.976 585.245 110.225 584.985C110.661 584.528 110.96 584.021 111.236 583.536C111.643 582.808 112.005 582.121 112.415 581.69C112.62 581.472 112.825 581.316 113.059 581.207C113.294 581.099 113.568 581.029 113.957 581.028V580.017L113.871 581.025C113.913 581.028 113.943 581.028 113.957 581.028V580.017L113.871 581.025C114.445 581.071 114.949 580.656 114.996 580.098C115.044 579.54 114.618 579.05 114.045 579.004C114.002 579 113.972 579 113.957 579C113.378 579 112.841 579.101 112.367 579.288C111.953 579.451 111.591 579.679 111.284 579.936C110.745 580.388 110.368 580.92 110.054 581.43C109.589 582.196 109.239 582.934 108.887 583.383C108.714 583.609 108.554 583.755 108.41 583.84C108.264 583.923 108.134 583.967 107.897 583.97C107.322 583.97 106.855 584.424 106.855 584.984C106.856 585.544 107.322 585.998 107.898 585.998Z" fill="#FBF659"/>
<path d="M348.739 538.996L349.615 538.511L345.365 531.483C345.184 531.184 344.85 531 344.488 531C344.126 531 343.793 531.185 343.612 531.484L339.375 538.516L335.135 545.55C334.955 545.849 334.955 546.218 335.136 546.517C335.317 546.816 335.651 547 336.012 547L344.5 546.993L352.989 546.99C353.35 546.989 353.684 546.805 353.865 546.505C354.045 546.206 354.045 545.837 353.864 545.538L349.615 538.511L348.739 538.996L347.863 539.48L351.235 545.055L344.499 545.059L337.764 545.064L341.129 539.482L344.49 533.903L347.863 539.48L348.739 538.996Z" fill="#FBF659"/>
<path d="M792.687 528.71L802.71 518.687C803.097 518.301 803.097 517.675 802.71 517.29C802.325 516.903 801.699 516.903 801.313 517.29L791.29 527.313C790.903 527.699 790.903 528.325 791.29 528.71C791.675 529.097 792.301 529.097 792.687 528.71Z" fill="#FBF659"/>
<path d="M481.687 135.71L491.71 125.687C492.097 125.301 492.097 124.675 491.71 124.29C491.325 123.903 490.699 123.903 490.313 124.29L480.29 134.313C479.903 134.699 479.903 135.325 480.29 135.71C480.675 136.097 481.301 136.097 481.687 135.71Z" fill="#FBF659"/>
<path d="M19.0913 415.091V416.183H31.8174V427.817H20.1826V415.091H19.0913H18V428.909C18 429.196 18.1165 429.477 18.3195 429.68C18.523 429.884 18.8041 430 19.0913 430H32.9087C33.1959 430 33.477 429.884 33.68 429.68C33.8834 429.477 34 429.196 34 428.909V415.091C34 414.804 33.8834 414.522 33.68 414.32C33.477 414.116 33.1959 414 32.9087 414H19.0913C18.8041 414 18.523 414.116 18.3195 414.32C18.1165 414.522 18 414.804 18 415.091H19.0913Z" fill="#FBF659"/>
</g>
</svg>
