<svg width="962" height="206" viewBox="0 0 962 206" fill="none" xmlns="http://www.w3.org/2000/svg">
<path d="M594.477 126.175L593.946 125.33C593.694 125.489 593.421 125.561 593.147 125.562C592.897 125.562 592.648 125.499 592.428 125.38C592.208 125.261 592.018 125.089 591.873 124.859V124.858C591.714 124.606 591.641 124.333 591.641 124.059C591.641 123.809 591.703 123.56 591.822 123.34C591.941 123.12 592.114 122.93 592.343 122.785C592.595 122.628 592.867 122.555 593.142 122.554C593.391 122.554 593.641 122.617 593.861 122.736C594.081 122.855 594.272 123.028 594.417 123.257L594.418 123.258C594.575 123.509 594.648 123.782 594.648 124.056C594.649 124.306 594.586 124.555 594.467 124.775C594.347 124.996 594.175 125.187 593.946 125.331L593.946 125.33L594.477 126.175L595.009 127.02C595.535 126.69 595.947 126.236 596.223 125.724C596.5 125.21 596.645 124.637 596.645 124.056C596.645 123.42 596.47 122.77 596.106 122.195L596.107 122.195C595.776 121.669 595.323 121.256 594.81 120.98C594.296 120.703 593.723 120.558 593.142 120.558C592.506 120.558 591.856 120.733 591.281 121.095C590.755 121.426 590.342 121.879 590.066 122.392C589.789 122.905 589.645 123.477 589.645 124.059C589.644 124.695 589.82 125.345 590.183 125.921V125.921C590.513 126.447 590.966 126.86 591.479 127.136C591.992 127.414 592.565 127.558 593.147 127.558C593.783 127.559 594.432 127.383 595.008 127.021L595.009 127.02L594.477 126.175Z" fill="#FBF659"/>
<path d="M423.649 124.867L416.871 118.51C416.424 118.09 415.72 118.112 415.301 118.56C414.881 119.008 414.903 119.711 415.351 120.13L422.129 126.488C422.576 126.907 423.279 126.885 423.699 126.437C424.119 125.99 424.097 125.286 423.649 124.867Z" fill="#FBF659"/>
<path d="M417.131 126.649L423.489 119.871C423.909 119.423 423.886 118.72 423.438 118.301C422.991 117.881 422.288 117.903 421.868 118.351L415.51 125.129C415.091 125.577 415.113 126.28 415.561 126.699C416.008 127.119 416.711 127.097 417.131 126.649Z" fill="#FBF659"/>
<path d="M323.833 24.6174L323.302 23.7722C323.05 23.9307 322.777 24.0034 322.503 24.0038C322.253 24.0038 322.004 23.9411 321.784 23.8221C321.564 23.7027 321.373 23.5306 321.228 23.3007V23.2999C321.07 23.0476 320.997 22.7749 320.996 22.5006C320.996 22.2511 321.059 22.0023 321.178 21.7823C321.297 21.5624 321.469 21.3719 321.699 21.227C321.95 21.0697 322.222 20.9966 322.497 20.9962C322.747 20.9962 322.996 21.0589 323.216 21.1779C323.437 21.2973 323.628 21.4697 323.773 21.6993L323.773 21.7001C323.931 21.9512 324.003 22.2235 324.004 22.4978C324.004 22.7477 323.941 22.9969 323.822 23.2172C323.703 23.4376 323.53 23.6285 323.301 23.773L323.302 23.7722L323.833 24.6174L324.365 25.4622C324.89 25.1316 325.303 24.6781 325.579 24.1655C325.856 23.652 326 23.0791 326 22.4978C326.001 21.8614 325.825 21.2122 325.462 20.6365L325.462 20.6369C325.132 20.1107 324.678 19.6979 324.165 19.4216C323.652 19.1445 323.078 19 322.497 19C321.861 18.9996 321.212 19.1749 320.637 19.5374C320.11 19.8676 319.698 20.3207 319.422 20.8337C319.145 21.3468 319 21.9193 319 22.5006C319 23.1374 319.175 23.787 319.538 24.3631V24.3627C319.868 24.8889 320.322 25.3017 320.835 25.5784C321.348 25.8555 321.921 26 322.503 26C323.139 26.0004 323.788 25.8251 324.364 25.4626L324.365 25.4622L323.833 24.6174Z" fill="#FBF659"/>
<path d="M531.091 178.091V179.183H543.817V190.817H532.183V178.091H531.091H530V191.909C530 192.196 530.117 192.477 530.32 192.68C530.523 192.884 530.804 193 531.091 193H544.909C545.196 193 545.477 192.884 545.68 192.68C545.883 192.477 546 192.196 546 191.909V178.091C546 177.804 545.883 177.522 545.68 177.32C545.477 177.116 545.196 177 544.909 177H531.091C530.804 177 530.523 177.116 530.32 177.32C530.117 177.522 530 177.804 530 178.091H531.091Z" fill="#FBF659"/>
<path d="M913.649 59.8669L906.871 53.5097C906.424 53.0901 905.72 53.1124 905.301 53.5599C904.881 54.0078 904.903 54.7109 905.351 55.1304L912.129 61.4877C912.576 61.9072 913.279 61.885 913.699 61.4375C914.119 60.99 914.097 60.2865 913.649 59.8669Z" fill="#FBF659"/>
<path d="M907.131 61.649L913.489 54.8709C913.909 54.4233 913.886 53.7203 913.438 53.3008C912.991 52.8808 912.288 52.9035 911.868 53.351L905.51 60.1291C905.091 60.5767 905.113 61.2797 905.561 61.6992C906.008 62.1192 906.711 62.0965 907.131 61.649Z" fill="#FBF659"/>
<path d="M272.979 116H287.021C287.562 116 288 115.552 288 115C288 114.448 287.562 114 287.021 114H272.979C272.438 114 272 114.448 272 115C272 115.552 272.438 116 272.979 116Z" fill="#FBF659"/>
<path d="M133.914 90.9995H132.828C132.827 92.6123 132.177 94.0625 131.121 95.1206C130.063 96.1767 128.613 96.8273 127 96.8276C125.388 96.8273 123.938 96.1767 122.879 95.1206C121.823 94.0622 121.173 92.6123 121.172 90.9995C121.173 89.3868 121.823 87.9369 122.879 86.8789C123.938 85.8228 125.388 85.1727 127 85.1724C128.613 85.1727 130.063 85.8228 131.121 86.8789C132.177 87.9369 132.827 89.3868 132.828 90.9995H133.914H135C135 86.5805 131.419 83.0003 127 83C124.795 82.9991 122.788 83.8968 121.343 85.3426C119.897 86.7869 119 88.7936 119 90.9995C119.001 95.4186 122.582 98.9991 127 99C131.419 98.9991 135 95.4186 135 90.9995H133.914Z" fill="#FBF659"/>
<path d="M736.972 104.898C736.971 105.104 736.934 105.228 736.872 105.354C736.818 105.464 736.733 105.577 736.603 105.702C736.378 105.922 736.008 106.16 735.562 106.41C734.895 106.792 734.064 107.192 733.328 107.874C732.961 108.216 732.621 108.64 732.379 109.162C732.136 109.682 732.001 110.292 732.002 110.958C732.002 111.533 732.456 112 733.016 112C733.576 112 734.03 111.533 734.03 110.958C734.031 110.619 734.085 110.367 734.169 110.152C734.243 109.965 734.343 109.802 734.476 109.643C734.707 109.364 735.051 109.101 735.472 108.844C736.101 108.452 736.88 108.103 737.6 107.557C737.958 107.281 738.308 106.943 738.575 106.493C738.843 106.046 739.003 105.488 739 104.898C739 104.322 738.546 103.855 737.986 103.855C737.426 103.855 736.972 104.322 736.972 104.898Z" fill="#FBF659"/>
<path d="M736.97 92.9941C736.968 93.2009 736.932 93.3251 736.87 93.451C736.815 93.5601 736.731 93.6733 736.601 93.7987C736.375 94.0184 736.006 94.2566 735.56 94.5066C734.893 94.8887 734.062 95.2885 733.325 95.9702C732.959 96.3121 732.619 96.736 732.377 97.258C732.134 97.7788 731.999 98.3887 732 99.0541C732 99.6298 732.454 100.096 733.014 100.096C733.574 100.096 734.028 99.6298 734.028 99.0541C734.029 98.7149 734.083 98.4632 734.167 98.2489C734.241 98.0615 734.341 97.899 734.474 97.7392C734.705 97.4609 735.049 97.1972 735.47 96.9403C736.099 96.5489 736.878 96.1999 737.597 95.6538C737.956 95.3781 738.306 95.0397 738.572 94.5898C738.841 94.1428 739.001 93.5844 738.998 92.9941C738.998 92.4183 738.544 91.9518 737.984 91.9518C737.424 91.9518 736.97 92.4183 736.97 92.9941Z" fill="#FBF659"/>
<path d="M738.998 105.006C739 104.492 738.881 104.002 738.671 103.589C738.488 103.227 738.245 102.927 737.985 102.678C737.528 102.242 737.022 101.943 736.537 101.667C735.808 101.26 735.122 100.898 734.69 100.488C734.472 100.284 734.316 100.079 734.207 99.8445C734.099 99.6092 734.029 99.3356 734.028 98.9458C734.028 98.3701 733.574 97.9036 733.014 97.9036C732.454 97.9036 732 98.3701 732 98.9458C731.999 99.5255 732.101 100.062 732.288 100.536C732.452 100.95 732.679 101.312 732.936 101.619C733.388 102.158 733.92 102.535 734.43 102.849C735.196 103.314 735.934 103.664 736.383 104.016C736.609 104.189 736.755 104.35 736.84 104.493C736.923 104.639 736.967 104.769 736.97 105.006C736.97 105.582 737.424 106.048 737.984 106.048C738.544 106.048 738.998 105.582 738.998 105.006Z" fill="#FBF659"/>
<path d="M738.998 93.1022C739 92.5886 738.881 92.0983 738.67 91.6856C738.488 91.3233 738.245 91.0236 737.985 90.7747C737.528 90.3386 737.021 90.0397 736.536 89.7637C735.808 89.3572 735.121 88.9949 734.69 88.5847C734.472 88.38 734.316 88.1753 734.207 87.9414C734.099 87.7059 734.029 87.4324 734.028 87.0426H733.017L734.025 87.1289C734.028 87.0872 734.028 87.0572 734.028 87.0426H733.017L734.025 87.1289C734.071 86.5552 733.656 86.0512 733.098 86.0037C732.54 85.9557 732.05 86.3818 732.004 86.9555C732 86.9976 732 87.0276 732 87.0426C732 87.6221 732.101 88.1591 732.288 88.6327C732.451 89.0466 732.679 89.4085 732.936 89.7158C733.388 90.2548 733.92 90.6321 734.43 90.946C735.196 91.4109 735.934 91.7607 736.383 92.1125C736.609 92.286 736.755 92.446 736.84 92.5899C736.923 92.7362 736.967 92.8659 736.97 93.1027C736.97 93.6782 737.424 94.1446 737.984 94.1446C738.544 94.1444 738.998 93.6779 738.998 93.1022Z" fill="#FBF659"/>
<path d="M220.102 197.972C219.896 197.971 219.772 197.934 219.646 197.872C219.536 197.818 219.423 197.733 219.298 197.603C219.078 197.378 218.84 197.008 218.59 196.562C218.208 195.895 217.808 195.064 217.126 194.328C216.784 193.961 216.36 193.621 215.838 193.379C215.318 193.136 214.708 193.001 214.042 193.002C213.467 193.002 213 193.456 213 194.016C213 194.576 213.467 195.03 214.042 195.03C214.381 195.031 214.633 195.085 214.848 195.169C215.035 195.243 215.198 195.343 215.357 195.476C215.636 195.707 215.899 196.051 216.156 196.472C216.548 197.101 216.897 197.88 217.443 198.6C217.719 198.958 218.057 199.308 218.507 199.575C218.954 199.843 219.512 200.003 220.102 200C220.678 200 221.145 199.546 221.145 198.986C221.145 198.426 220.678 197.972 220.102 197.972Z" fill="#FBF659"/>
<path d="M232.006 197.97C231.799 197.968 231.675 197.932 231.549 197.87C231.44 197.815 231.327 197.731 231.201 197.601C230.982 197.375 230.743 197.006 230.493 196.56C230.111 195.893 229.712 195.062 229.03 194.325C228.688 193.959 228.264 193.619 227.742 193.377C227.221 193.134 226.611 192.999 225.946 193C225.37 193 224.904 193.454 224.904 194.014C224.904 194.574 225.37 195.028 225.946 195.028C226.285 195.029 226.537 195.083 226.751 195.167C226.939 195.241 227.101 195.341 227.261 195.474C227.539 195.705 227.803 196.049 228.06 196.47C228.451 197.099 228.8 197.878 229.346 198.597C229.622 198.956 229.96 199.306 230.41 199.572C230.857 199.841 231.416 200.001 232.006 199.998C232.582 199.998 233.048 199.544 233.048 198.984C233.048 198.424 232.582 197.97 232.006 197.97Z" fill="#FBF659"/>
<path d="M219.994 199.998C220.508 200 220.998 199.881 221.411 199.671C221.773 199.488 222.073 199.245 222.322 198.985C222.758 198.528 223.057 198.022 223.333 197.537C223.74 196.808 224.102 196.122 224.512 195.69C224.716 195.472 224.921 195.316 225.155 195.207C225.391 195.099 225.664 195.029 226.054 195.028C226.63 195.028 227.096 194.574 227.096 194.014C227.096 193.454 226.63 193 226.054 193C225.474 192.999 224.938 193.101 224.464 193.288C224.05 193.452 223.688 193.679 223.381 193.936C222.842 194.388 222.465 194.92 222.151 195.43C221.686 196.196 221.336 196.934 220.984 197.383C220.811 197.609 220.65 197.755 220.507 197.84C220.361 197.923 220.231 197.967 219.994 197.97C219.418 197.97 218.952 198.424 218.952 198.984C218.952 199.544 219.418 199.998 219.994 199.998Z" fill="#FBF659"/>
<path d="M231.898 199.998C232.411 200 232.902 199.881 233.314 199.67C233.677 199.488 233.976 199.245 234.225 198.985C234.661 198.528 234.96 198.021 235.236 197.536C235.643 196.808 236.005 196.121 236.415 195.69C236.62 195.472 236.825 195.316 237.059 195.207C237.294 195.099 237.568 195.029 237.957 195.028V194.017L237.871 195.025C237.913 195.028 237.943 195.028 237.957 195.028V194.017L237.871 195.025C238.445 195.071 238.949 194.656 238.996 194.098C239.044 193.54 238.618 193.05 238.045 193.004C238.002 193 237.972 193 237.957 193C237.378 193 236.841 193.101 236.367 193.288C235.953 193.451 235.591 193.679 235.284 193.936C234.745 194.388 234.368 194.92 234.054 195.43C233.589 196.196 233.239 196.934 232.887 197.383C232.714 197.609 232.554 197.755 232.41 197.84C232.264 197.923 232.134 197.967 231.897 197.97C231.322 197.97 230.855 198.424 230.855 198.984C230.856 199.544 231.322 199.998 231.898 199.998Z" fill="#FBF659"/>
<path d="M817.004 200.739L817.489 201.614L824.517 197.365C824.816 197.184 825 196.85 825 196.488C825 196.127 824.815 195.792 824.516 195.612L817.484 191.375L817.484 191.376L810.45 187.135C810.151 186.955 809.782 186.955 809.483 187.136C809.184 187.317 809 187.651 809 188.012L809.007 196.5V196.499L809.01 204.989C809.01 205.35 809.195 205.684 809.495 205.865C809.794 206.045 810.163 206.045 810.462 205.864L817.489 201.614L817.004 200.739L816.52 199.862L810.945 203.235L810.941 196.499V196.498L810.936 189.763L816.518 193.129H816.518L822.097 196.49L816.52 199.862L817.004 200.739Z" fill="#FBF659"/>
<path d="M8.00446 13.7386L8.48895 14.6143L15.5171 10.3647C15.8162 10.1838 16.0004 9.84953 16 9.48774C16 9.12676 15.815 8.79249 15.5155 8.612L8.48352 4.37535L8.4839 4.37575L1.45036 0.135473C1.15123 -0.0454212 0.782064 -0.0450265 0.482937 0.135867C0.18381 0.316761 -0.000386361 0.651039 6.08525e-07 1.01242L0.00657606 9.49987V9.49948L0.0104495 17.9889C0.0104495 18.3503 0.195421 18.6842 0.494936 18.8647C0.794063 19.0452 1.16323 19.0452 1.46236 18.8643L8.48895 14.6143L8.00446 13.7386L7.52035 12.8624L1.94452 16.235L1.94142 9.49867V9.49825L1.936 2.76349L7.51765 6.12886H7.51803L13.0974 9.49017L7.52035 12.8624L8.00446 13.7386Z" fill="#FBF659"/>
</svg>
