<svg width="478" height="537" viewBox="0 0 478 537" fill="none" xmlns="http://www.w3.org/2000/svg">
<path d="M418.833 43.6174L418.302 42.7722C418.05 42.9307 417.777 43.0034 417.503 43.0038C417.253 43.0038 417.004 42.9411 416.784 42.8221C416.564 42.7027 416.373 42.5306 416.228 42.3007V42.2999C416.07 42.0476 415.997 41.7749 415.996 41.5006C415.996 41.2511 416.059 41.0023 416.178 40.7823C416.297 40.5624 416.469 40.3719 416.699 40.227C416.95 40.0697 417.222 39.9966 417.497 39.9962C417.747 39.9962 417.996 40.0589 418.216 40.1779C418.437 40.2973 418.628 40.4697 418.773 40.6993L418.773 40.7001C418.931 40.9512 419.003 41.2235 419.004 41.4978C419.004 41.7477 418.941 41.9969 418.822 42.2172C418.703 42.4376 418.53 42.6285 418.301 42.773L418.302 42.7722L418.833 43.6174L419.365 44.4622C419.89 44.1316 420.303 43.6781 420.579 43.1655C420.856 42.652 421 42.0791 421 41.4978C421.001 40.8614 420.825 40.2122 420.462 39.6365L420.462 39.6369C420.132 39.1107 419.678 38.6979 419.165 38.4216C418.652 38.1445 418.078 38 417.497 38C416.861 37.9996 416.212 38.1749 415.637 38.5374C415.11 38.8676 414.698 39.3207 414.422 39.8337C414.145 40.3468 414 40.9193 414 41.5006C414 42.1374 414.175 42.787 414.538 43.3631V43.3627C414.868 43.8889 415.322 44.3017 415.835 44.5784C416.348 44.8555 416.921 45 417.503 45C418.139 45.0004 418.788 44.8251 419.364 44.4626L419.365 44.4622L418.833 43.6174Z" fill="#FBF659"/>
<path d="M345.687 307.71L355.71 297.687C356.097 297.301 356.097 296.675 355.71 296.29C355.325 295.903 354.699 295.903 354.313 296.29L344.29 306.313C343.903 306.699 343.903 307.325 344.29 307.71C344.675 308.097 345.301 308.097 345.687 307.71Z" fill="#FBF659"/>
<path d="M199.687 11.7104L209.71 1.68666C210.097 1.30094 210.097 0.675316 209.71 0.28959C209.325 -0.0965315 208.699 -0.0965315 208.313 0.28959L198.29 10.3133C197.903 10.6991 197.903 11.3247 198.29 11.7104C198.675 12.0965 199.301 12.0965 199.687 11.7104Z" fill="#FBF659"/>
<path d="M379.687 536.71L389.71 526.687C390.097 526.301 390.097 525.675 389.71 525.29C389.325 524.903 388.699 524.903 388.313 525.29L378.29 535.313C377.903 535.699 377.903 536.325 378.29 536.71C378.675 537.097 379.301 537.097 379.687 536.71Z" fill="#FBF659"/>
<path d="M412.914 375.999H411.828C411.827 377.612 411.177 379.063 410.121 380.121C409.063 381.177 407.613 381.827 406 381.828C404.388 381.827 402.938 381.177 401.879 380.121C400.823 379.062 400.173 377.612 400.172 375.999C400.173 374.387 400.823 372.937 401.879 371.879C402.938 370.823 404.388 370.173 406 370.172C407.613 370.173 409.063 370.823 410.121 371.879C411.177 372.937 411.827 374.387 411.828 375.999H412.914H414C414 371.581 410.419 368 406 368C403.795 367.999 401.788 368.897 400.343 370.343C398.897 371.787 398 373.794 398 375.999C398.001 380.419 401.582 383.999 406 384C410.419 383.999 414 380.419 414 375.999H412.914Z" fill="#FBF659"/>
<path d="M295.172 105.924C295.173 104.326 295.823 102.89 296.88 101.842C297.938 100.796 299.388 100.152 301 100.152C302.613 100.152 304.063 100.796 305.121 101.842C306.177 102.89 306.827 104.326 306.828 105.924C306.828 106.518 307.314 107 307.914 107C308.514 107 309 106.518 309 105.924C309 101.547 305.419 98.0004 301 98C298.795 97.9991 296.788 98.8883 295.344 100.321C293.898 101.751 293 103.739 293 105.924C293 106.518 293.487 107 294.086 107C294.686 107 295.172 106.518 295.172 105.924Z" fill="#FBF659"/>
<path d="M0.978737 315H15.0213C15.5619 315 16 314.552 16 314C16 313.448 15.5619 313 15.0213 313H0.978737C0.438083 313 0 313.448 0 314C0 314.552 0.438083 315 0.978737 315Z" fill="#FBF659"/>
<path d="M462.979 121H477.021C477.562 121 478 120.552 478 120C478 119.448 477.562 119 477.021 119H462.979C462.438 119 462 119.448 462 120C462 120.552 462.438 121 462.979 121Z" fill="#FBF659"/>
<path d="M249.979 180H264.021C264.562 180 265 179.552 265 179C265 178.448 264.562 178 264.021 178H249.979C249.438 178 249 178.448 249 179C249 179.552 249.438 180 249.979 180Z" fill="#FBF659"/>
<path d="M185.043 233.001L185.945 233.256L187.968 225.244C188.055 224.902 187.962 224.538 187.726 224.289C187.49 224.039 187.146 223.942 186.824 224.034L179.259 226.188V226.187L171.692 228.339C171.369 228.431 171.118 228.697 171.032 229.039C170.945 229.38 171.038 229.743 171.274 229.993L176.818 235.85L176.818 235.85L182.361 241.711C182.597 241.96 182.941 242.058 183.263 241.966C183.585 241.874 183.836 241.608 183.923 241.267L185.945 233.256L185.043 233.001L184.141 232.746L182.536 239.102L178.138 234.452L178.137 234.451L173.739 229.804L179.744 228.096H179.744L185.746 226.388L184.141 232.746L185.043 233.001Z" fill="#FBF659"/>
<path d="M268.649 255.867L261.871 249.51C261.424 249.09 260.72 249.112 260.301 249.56C259.881 250.008 259.903 250.711 260.351 251.13L267.129 257.488C267.576 257.907 268.279 257.885 268.699 257.437C269.119 256.99 269.097 256.286 268.649 255.867Z" fill="#FBF659"/>
<path d="M262.131 257.649L268.489 250.871C268.909 250.423 268.886 249.72 268.438 249.301C267.991 248.881 267.288 248.903 266.868 249.351L260.51 256.129C260.091 256.577 260.113 257.28 260.561 257.699C261.008 258.119 261.711 258.097 262.131 257.649Z" fill="#FBF659"/>
<path d="M358.649 441.867L351.871 435.51C351.424 435.09 350.72 435.112 350.301 435.56C349.881 436.008 349.903 436.711 350.351 437.13L357.129 443.488C357.576 443.907 358.279 443.885 358.699 443.437C359.119 442.99 359.097 442.286 358.649 441.867Z" fill="#FBF659"/>
<path d="M352.131 443.649L358.489 436.871C358.909 436.423 358.886 435.72 358.438 435.301C357.991 434.881 357.288 434.903 356.868 435.351L350.51 442.129C350.091 442.577 350.113 443.28 350.561 443.699C351.008 444.119 351.711 444.097 352.131 443.649Z" fill="#FBF659"/>
<path d="M343.649 35.8669L336.871 29.5097C336.424 29.0901 335.72 29.1124 335.301 29.5599C334.881 30.0078 334.903 30.7109 335.351 31.1304L342.129 37.4877C342.576 37.9072 343.279 37.885 343.699 37.4375C344.119 36.99 344.097 36.2865 343.649 35.8669Z" fill="#FBF659"/>
<path d="M337.131 37.649L343.489 30.8709C343.909 30.4233 343.886 29.7203 343.438 29.3008C342.991 28.8808 342.288 28.9035 341.868 29.351L335.51 36.1291C335.091 36.5767 335.113 37.2797 335.561 37.6992C336.008 38.1192 336.711 38.0965 337.131 37.649Z" fill="#FBF659"/>
<path d="M472.739 320.996L473.615 320.511L469.365 313.483C469.184 313.184 468.85 313 468.488 313C468.126 313 467.793 313.185 467.612 313.484L463.375 320.516L459.135 327.55C458.955 327.849 458.955 328.218 459.136 328.517C459.317 328.816 459.651 329 460.012 329L468.5 328.993L476.989 328.99C477.35 328.989 477.684 328.805 477.865 328.505C478.045 328.206 478.045 327.837 477.864 327.538L473.615 320.511L472.739 320.996L471.863 321.48L475.235 327.055L468.499 327.059L461.764 327.064L465.129 321.482L468.49 315.903L471.863 321.48L472.739 320.996Z" fill="#FBF659"/>
<path d="M375.091 188.091V189.183H387.817V200.817H376.183V188.091H375.091H374V201.909C374 202.196 374.117 202.477 374.32 202.68C374.523 202.884 374.804 203 375.091 203H388.909C389.196 203 389.477 202.884 389.68 202.68C389.883 202.477 390 202.196 390 201.909V188.091C390 187.804 389.883 187.522 389.68 187.32C389.477 187.116 389.196 187 388.909 187H375.091C374.804 187 374.523 187.116 374.32 187.32C374.117 187.522 374 187.804 374 188.091H375.091Z" fill="#FBF659"/>
<path d="M248.091 392.091V393.183H260.817V404.817H249.183V392.091H248.091H247V405.909C247 406.196 247.117 406.477 247.32 406.68C247.523 406.884 247.804 407 248.091 407H261.909C262.196 407 262.477 406.884 262.68 406.68C262.883 406.477 263 406.196 263 405.909V392.091C263 391.804 262.883 391.522 262.68 391.32C262.477 391.116 262.196 391 261.909 391H248.091C247.804 391 247.523 391.116 247.32 391.32C247.117 391.522 247 391.804 247 392.091H248.091Z" fill="#FBF659"/>
<path d="M460.091 496.091V497.183H472.817V508.817H461.183V496.091H460.091H459V509.909C459 510.196 459.117 510.477 459.32 510.68C459.523 510.884 459.804 511 460.091 511H473.909C474.196 511 474.477 510.884 474.68 510.68C474.883 510.477 475 510.196 475 509.909V496.091C475 495.804 474.883 495.522 474.68 495.32C474.477 495.116 474.196 495 473.909 495H460.091C459.804 495 459.523 495.116 459.32 495.32C459.117 495.522 459 495.804 459 496.091H460.091Z" fill="#FBF659"/>
<path d="M69.1023 178.972C68.8958 178.971 68.7716 178.934 68.6455 178.872C68.5364 178.818 68.4232 178.733 68.2978 178.603C68.0782 178.378 67.8397 178.008 67.5899 177.562C67.2079 176.895 66.8081 176.064 66.1262 175.328C65.7844 174.961 65.3603 174.621 64.8384 174.379C64.3176 174.136 63.7077 174.001 63.0423 174.002C62.4666 174.002 62 174.456 62 175.016C62 175.576 62.4666 176.03 63.0423 176.03C63.3815 176.031 63.6331 176.085 63.8475 176.169C64.0349 176.243 64.1975 176.343 64.3573 176.476C64.6356 176.707 64.8994 177.051 65.1562 177.472C65.5478 178.101 65.8968 178.88 66.4428 179.6C66.7185 179.958 67.0569 180.308 67.5067 180.575C67.9538 180.843 68.512 181.003 69.1023 181C69.678 181 70.1446 180.546 70.1446 179.986C70.1446 179.426 69.678 178.972 69.1023 178.972Z" fill="#FBF659"/>
<path d="M81.0059 178.97C80.7991 178.968 80.6749 178.932 80.549 178.87C80.4399 178.815 80.3267 178.731 80.2013 178.601C79.9816 178.375 79.7434 178.006 79.4934 177.56C79.1113 176.893 78.7115 176.062 78.0298 175.325C77.6879 174.959 77.264 174.619 76.742 174.377C76.2212 174.134 75.6113 173.999 74.9459 174C74.3702 174 73.9036 174.454 73.9036 175.014C73.9036 175.574 74.3702 176.028 74.9459 176.028C75.2851 176.029 75.5368 176.083 75.7511 176.167C75.9385 176.241 76.101 176.341 76.2608 176.474C76.5391 176.705 76.8028 177.049 77.0597 177.47C77.4511 178.099 77.8001 178.878 78.3462 179.597C78.6219 179.956 78.9603 180.306 79.4102 180.572C79.8572 180.841 80.4156 181.001 81.0059 180.998C81.5817 180.998 82.0482 180.544 82.0482 179.984C82.0482 179.424 81.5817 178.97 81.0059 178.97Z" fill="#FBF659"/>
<path d="M68.994 180.998C69.5076 181 69.9979 180.881 70.4106 180.671C70.7727 180.488 71.0726 180.245 71.3218 179.985C71.7576 179.528 72.0571 179.022 72.3329 178.537C72.7396 177.808 73.1016 177.122 73.5121 176.69C73.7165 176.472 73.9213 176.316 74.1555 176.207C74.3908 176.099 74.6644 176.029 75.0542 176.028C75.6299 176.028 76.0964 175.574 76.0964 175.014C76.0964 174.454 75.6299 174 75.0542 174C74.4745 173.999 73.9376 174.101 73.4644 174.288C73.0499 174.452 72.6883 174.679 72.381 174.936C71.8421 175.388 71.4648 175.92 71.1506 176.43C70.6856 177.196 70.3362 177.934 69.9841 178.383C69.8108 178.609 69.6504 178.755 69.507 178.84C69.3606 178.923 69.231 178.967 68.994 178.97C68.4184 178.97 67.9518 179.424 67.9518 179.984C67.9518 180.544 68.4184 180.998 68.994 180.998Z" fill="#FBF659"/>
<path d="M80.8978 180.998C81.4114 181 81.9017 180.881 82.3144 180.67C82.6767 180.488 82.9764 180.245 83.2253 179.985C83.6614 179.528 83.9603 179.021 84.2363 178.536C84.6428 177.808 85.0051 177.121 85.4153 176.69C85.62 176.472 85.8247 176.316 86.0586 176.207C86.2941 176.099 86.5676 176.029 86.9574 176.028V175.017L86.8711 176.025C86.9128 176.028 86.9428 176.028 86.9574 176.028V175.017L86.8711 176.025C87.4448 176.071 87.9488 175.656 87.9963 175.098C88.0443 174.54 87.6182 174.05 87.0445 174.004C87.0024 174 86.9724 174 86.9574 174C86.3779 174 85.8409 174.101 85.3673 174.288C84.9534 174.451 84.5915 174.679 84.2842 174.936C83.7452 175.388 83.3679 175.92 83.054 176.43C82.5891 177.196 82.2393 177.934 81.8875 178.383C81.714 178.609 81.554 178.755 81.4101 178.84C81.2638 178.923 81.1341 178.967 80.8973 178.97C80.3218 178.97 79.8554 179.424 79.8554 179.984C79.8556 180.544 80.3221 180.998 80.8978 180.998Z" fill="#FBF659"/>
<path d="M276.102 489.972C275.896 489.971 275.772 489.934 275.646 489.872C275.536 489.818 275.423 489.733 275.298 489.603C275.078 489.378 274.84 489.008 274.59 488.562C274.208 487.895 273.808 487.064 273.126 486.328C272.784 485.961 272.36 485.621 271.838 485.379C271.318 485.136 270.708 485.001 270.042 485.002C269.467 485.002 269 485.456 269 486.016C269 486.576 269.467 487.03 270.042 487.03C270.381 487.031 270.633 487.085 270.848 487.169C271.035 487.243 271.198 487.343 271.357 487.476C271.636 487.707 271.899 488.051 272.156 488.472C272.548 489.101 272.897 489.88 273.443 490.6C273.719 490.958 274.057 491.308 274.507 491.575C274.954 491.843 275.512 492.003 276.102 492C276.678 492 277.145 491.546 277.145 490.986C277.145 490.426 276.678 489.972 276.102 489.972Z" fill="#FBF659"/>
<path d="M288.006 489.97C287.799 489.968 287.675 489.932 287.549 489.87C287.44 489.815 287.327 489.731 287.201 489.601C286.982 489.375 286.743 489.006 286.493 488.56C286.111 487.893 285.712 487.062 285.03 486.325C284.688 485.959 284.264 485.619 283.742 485.377C283.221 485.134 282.611 484.999 281.946 485C281.37 485 280.904 485.454 280.904 486.014C280.904 486.574 281.37 487.028 281.946 487.028C282.285 487.029 282.537 487.083 282.751 487.167C282.939 487.241 283.101 487.341 283.261 487.474C283.539 487.705 283.803 488.049 284.06 488.47C284.451 489.099 284.8 489.878 285.346 490.597C285.622 490.956 285.96 491.306 286.41 491.572C286.857 491.841 287.416 492.001 288.006 491.998C288.582 491.998 289.048 491.544 289.048 490.984C289.048 490.424 288.582 489.97 288.006 489.97Z" fill="#FBF659"/>
<path d="M275.994 491.998C276.508 492 276.998 491.881 277.411 491.671C277.773 491.488 278.073 491.245 278.322 490.985C278.758 490.528 279.057 490.022 279.333 489.537C279.74 488.808 280.102 488.122 280.512 487.69C280.716 487.472 280.921 487.316 281.155 487.207C281.391 487.099 281.664 487.029 282.054 487.028C282.63 487.028 283.096 486.574 283.096 486.014C283.096 485.454 282.63 485 282.054 485C281.474 484.999 280.938 485.101 280.464 485.288C280.05 485.452 279.688 485.679 279.381 485.936C278.842 486.388 278.465 486.92 278.151 487.43C277.686 488.196 277.336 488.934 276.984 489.383C276.811 489.609 276.65 489.755 276.507 489.84C276.361 489.923 276.231 489.967 275.994 489.97C275.418 489.97 274.952 490.424 274.952 490.984C274.952 491.544 275.418 491.998 275.994 491.998Z" fill="#FBF659"/>
<path d="M287.898 491.998C288.411 492 288.902 491.881 289.314 491.67C289.677 491.488 289.976 491.245 290.225 490.985C290.661 490.528 290.96 490.021 291.236 489.536C291.643 488.808 292.005 488.121 292.415 487.69C292.62 487.472 292.825 487.316 293.059 487.207C293.294 487.099 293.568 487.029 293.957 487.028V486.017L293.871 487.025C293.913 487.028 293.943 487.028 293.957 487.028V486.017L293.871 487.025C294.445 487.071 294.949 486.656 294.996 486.098C295.044 485.54 294.618 485.05 294.045 485.004C294.002 485 293.972 485 293.957 485C293.378 485 292.841 485.101 292.367 485.288C291.953 485.451 291.591 485.679 291.284 485.936C290.745 486.388 290.368 486.92 290.054 487.43C289.589 488.196 289.239 488.934 288.887 489.383C288.714 489.609 288.554 489.755 288.41 489.84C288.264 489.923 288.134 489.967 287.897 489.97C287.322 489.97 286.855 490.424 286.855 490.984C286.856 491.544 287.322 491.998 287.898 491.998Z" fill="#FBF659"/>
<path d="M192.972 339.898C192.971 340.104 192.934 340.228 192.872 340.354C192.818 340.464 192.733 340.577 192.603 340.702C192.378 340.922 192.008 341.16 191.562 341.41C190.895 341.792 190.064 342.192 189.328 342.874C188.961 343.216 188.621 343.64 188.379 344.162C188.136 344.682 188.001 345.292 188.002 345.958C188.002 346.533 188.456 347 189.016 347C189.576 347 190.03 346.533 190.03 345.958C190.031 345.619 190.085 345.367 190.169 345.152C190.243 344.965 190.343 344.802 190.476 344.643C190.707 344.364 191.051 344.101 191.472 343.844C192.101 343.452 192.88 343.103 193.6 342.557C193.958 342.281 194.308 341.943 194.575 341.493C194.843 341.046 195.003 340.488 195 339.898C195 339.322 194.546 338.855 193.986 338.855C193.426 338.855 192.972 339.322 192.972 339.898Z" fill="#FBF659"/>
<path d="M192.97 327.994C192.968 328.201 192.932 328.325 192.87 328.451C192.815 328.56 192.731 328.673 192.601 328.799C192.375 329.018 192.006 329.257 191.56 329.507C190.893 329.889 190.062 330.288 189.325 330.97C188.959 331.312 188.619 331.736 188.377 332.258C188.134 332.779 187.999 333.389 188 334.054C188 334.63 188.454 335.096 189.014 335.096C189.574 335.096 190.028 334.63 190.028 334.054C190.029 333.715 190.083 333.463 190.167 333.249C190.241 333.061 190.341 332.899 190.474 332.739C190.705 332.461 191.049 332.197 191.47 331.94C192.099 331.549 192.878 331.2 193.597 330.654C193.956 330.378 194.306 330.04 194.572 329.59C194.841 329.143 195.001 328.584 194.998 327.994C194.998 327.418 194.544 326.952 193.984 326.952C193.424 326.952 192.97 327.418 192.97 327.994Z" fill="#FBF659"/>
<path d="M194.998 340.006C195 339.492 194.881 339.002 194.671 338.589C194.488 338.227 194.245 337.927 193.985 337.678C193.528 337.242 193.022 336.943 192.537 336.667C191.808 336.26 191.122 335.898 190.69 335.488C190.472 335.284 190.316 335.079 190.207 334.845C190.099 334.609 190.029 334.336 190.028 333.946C190.028 333.37 189.574 332.904 189.014 332.904C188.454 332.904 188 333.37 188 333.946C187.999 334.526 188.101 335.062 188.288 335.536C188.452 335.95 188.679 336.312 188.936 336.619C189.388 337.158 189.92 337.535 190.43 337.849C191.196 338.314 191.934 338.664 192.383 339.016C192.609 339.189 192.755 339.35 192.84 339.493C192.923 339.639 192.967 339.769 192.97 340.006C192.97 340.582 193.424 341.048 193.984 341.048C194.544 341.048 194.998 340.582 194.998 340.006Z" fill="#FBF659"/>
<path d="M194.998 328.102C195 327.589 194.881 327.098 194.67 326.686C194.488 326.323 194.245 326.024 193.985 325.775C193.528 325.339 193.021 325.04 192.536 324.764C191.808 324.357 191.121 323.995 190.69 323.585C190.472 323.38 190.316 323.175 190.207 322.941C190.099 322.706 190.029 322.432 190.028 322.043H189.017L190.025 322.129C190.028 322.087 190.028 322.057 190.028 322.043H189.017L190.025 322.129C190.071 321.555 189.656 321.051 189.098 321.004C188.54 320.956 188.05 321.382 188.004 321.955C188 321.998 188 322.028 188 322.043C188 322.622 188.101 323.159 188.288 323.633C188.451 324.047 188.679 324.409 188.936 324.716C189.388 325.255 189.92 325.632 190.43 325.946C191.196 326.411 191.934 326.761 192.383 327.113C192.609 327.286 192.755 327.446 192.84 327.59C192.923 327.736 192.967 327.866 192.97 328.103C192.97 328.678 193.424 329.145 193.984 329.145C194.544 329.144 194.998 328.678 194.998 328.102Z" fill="#FBF659"/>
</svg>
