<svg width="983" height="621" viewBox="0 0 983 621" fill="none" xmlns="http://www.w3.org/2000/svg">
<g opacity="0.3">
<path d="M100.833 547.617L100.302 546.772C100.05 546.931 99.7769 547.003 99.5026 547.004C99.2527 547.004 99.0035 546.941 98.784 546.822C98.5636 546.703 98.3731 546.531 98.2282 546.301V546.3C98.0697 546.048 97.9966 545.775 97.9962 545.501C97.9962 545.251 98.0589 545.002 98.1779 544.782C98.2969 544.562 98.4693 544.372 98.6989 544.227C98.9504 544.07 99.2223 543.997 99.497 543.996C99.7469 543.996 99.9965 544.059 100.216 544.178C100.437 544.297 100.628 544.47 100.773 544.699L100.773 544.7C100.931 544.951 101.003 545.224 101.004 545.498C101.004 545.748 100.941 545.997 100.822 546.217C100.703 546.438 100.53 546.628 100.301 546.773L100.302 546.772L100.833 547.617L101.365 548.462C101.89 548.132 102.303 547.678 102.579 547.165C102.856 546.652 103 546.079 103 545.498C103.001 544.861 102.825 544.212 102.462 543.637L102.462 543.637C102.132 543.111 101.678 542.698 101.165 542.422C100.652 542.145 100.078 542 99.497 542C98.861 542 98.2118 542.175 97.6365 542.537C97.1103 542.868 96.6979 543.321 96.4216 543.834C96.1445 544.347 96 544.919 96 545.501C95.9996 546.137 96.1753 546.787 96.5382 547.363V547.363C96.8684 547.889 97.3219 548.302 97.8345 548.578C98.348 548.855 98.9209 549 99.5026 549C100.139 549 100.788 548.825 101.364 548.463L101.365 548.462L100.833 547.617Z" fill="#376BC7"/>
<path d="M981.914 548.999H980.828C980.827 550.612 980.177 552.063 979.121 553.121C978.063 554.177 976.613 554.827 975 554.828C973.388 554.827 971.938 554.177 970.879 553.121C969.823 552.062 969.173 550.612 969.172 548.999C969.173 547.387 969.823 545.937 970.879 544.879C971.938 543.823 973.388 543.173 975 543.172C976.613 543.173 978.063 543.823 979.121 544.879C980.177 545.937 980.827 547.387 980.828 548.999H981.914H983C983 544.581 979.419 541 975 541C972.795 540.999 970.788 541.897 969.343 543.343C967.897 544.787 967 546.794 967 548.999C967.001 553.419 970.582 556.999 975 557C979.419 556.999 983 553.419 983 548.999H981.914Z" fill="#376BC7"/>
<path d="M883.043 91.0012L883.945 91.2562L885.968 83.2436C886.055 82.9024 885.962 82.5383 885.726 82.2889C885.49 82.0395 885.146 81.9422 884.824 82.0339L877.259 84.1876V84.1872L869.692 86.3393C869.369 86.4306 869.118 86.6974 869.032 87.0386C868.945 87.3797 869.038 87.7434 869.274 87.9929L874.818 93.8502L874.818 93.8498L880.361 99.7107C880.597 99.9603 880.941 100.058 881.263 99.9661C881.585 99.8744 881.836 99.608 881.923 99.2668L883.945 91.2562L883.043 91.0012L882.141 90.7462L880.536 97.1024L876.138 92.4516L876.137 92.4512L871.739 87.8039L877.744 86.0962H877.744L883.746 84.3876L882.141 90.7458L883.043 91.0012Z" fill="#376BC7"/>
<path d="M558.649 6.86695L551.871 0.509662C551.424 0.0901392 550.72 0.11236 550.301 0.55988C549.881 1.00785 549.903 1.71091 550.351 2.13043L557.129 8.48771C557.576 8.90723 558.279 8.88501 558.699 8.43749C559.119 7.98997 559.097 7.28647 558.649 6.86695Z" fill="#376BC7"/>
<path d="M552.131 8.64901L558.489 1.87087C558.909 1.42335 558.886 0.720295 558.438 0.300773C557.991 -0.119195 557.288 -0.0965295 556.868 0.350991L550.51 7.12913C550.091 7.57665 550.113 8.2797 550.561 8.69923C551.008 9.11919 551.711 9.09653 552.131 8.64901Z" fill="#376BC7"/>
<path d="M894.972 322.898C894.971 323.104 894.934 323.228 894.872 323.354C894.818 323.464 894.733 323.577 894.603 323.702C894.378 323.922 894.008 324.16 893.562 324.41C892.895 324.792 892.064 325.192 891.328 325.874C890.961 326.216 890.621 326.64 890.379 327.162C890.136 327.682 890.001 328.292 890.002 328.958C890.002 329.533 890.456 330 891.016 330C891.576 330 892.03 329.533 892.03 328.958C892.031 328.619 892.085 328.367 892.169 328.152C892.243 327.965 892.343 327.802 892.476 327.643C892.707 327.364 893.051 327.101 893.472 326.844C894.101 326.452 894.88 326.103 895.6 325.557C895.958 325.281 896.308 324.943 896.575 324.493C896.843 324.046 897.003 323.488 897 322.898C897 322.322 896.546 321.855 895.986 321.855C895.426 321.855 894.972 322.322 894.972 322.898Z" fill="#376BC7"/>
<path d="M894.97 310.994C894.968 311.201 894.932 311.325 894.87 311.451C894.815 311.56 894.731 311.673 894.601 311.799C894.375 312.018 894.006 312.257 893.56 312.507C892.893 312.889 892.062 313.288 891.325 313.97C890.959 314.312 890.619 314.736 890.377 315.258C890.134 315.779 889.999 316.389 890 317.054C890 317.63 890.454 318.096 891.014 318.096C891.574 318.096 892.028 317.63 892.028 317.054C892.029 316.715 892.083 316.463 892.167 316.249C892.241 316.061 892.341 315.899 892.474 315.739C892.705 315.461 893.049 315.197 893.47 314.94C894.099 314.549 894.878 314.2 895.597 313.654C895.956 313.378 896.306 313.04 896.572 312.59C896.841 312.143 897.001 311.584 896.998 310.994C896.998 310.418 896.544 309.952 895.984 309.952C895.424 309.952 894.97 310.418 894.97 310.994Z" fill="#376BC7"/>
<path d="M896.998 323.006C897 322.492 896.881 322.002 896.671 321.589C896.488 321.227 896.245 320.927 895.985 320.678C895.528 320.242 895.022 319.943 894.537 319.667C893.808 319.26 893.122 318.898 892.69 318.488C892.472 318.284 892.316 318.079 892.207 317.845C892.099 317.609 892.029 317.336 892.028 316.946C892.028 316.37 891.574 315.904 891.014 315.904C890.454 315.904 890 316.37 890 316.946C889.999 317.526 890.101 318.062 890.288 318.536C890.452 318.95 890.679 319.312 890.936 319.619C891.388 320.158 891.92 320.535 892.43 320.849C893.196 321.314 893.934 321.664 894.383 322.016C894.609 322.189 894.755 322.35 894.84 322.493C894.923 322.639 894.967 322.769 894.97 323.006C894.97 323.582 895.424 324.048 895.984 324.048C896.544 324.048 896.998 323.582 896.998 323.006Z" fill="#376BC7"/>
<path d="M896.998 311.102C897 310.589 896.881 310.098 896.67 309.686C896.488 309.323 896.245 309.024 895.985 308.775C895.528 308.339 895.021 308.04 894.536 307.764C893.808 307.357 893.121 306.995 892.69 306.585C892.472 306.38 892.316 306.175 892.207 305.941C892.099 305.706 892.029 305.432 892.028 305.043H891.017L892.025 305.129C892.028 305.087 892.028 305.057 892.028 305.043H891.017L892.025 305.129C892.071 304.555 891.656 304.051 891.098 304.004C890.54 303.956 890.05 304.382 890.004 304.955C890 304.998 890 305.028 890 305.043C890 305.622 890.101 306.159 890.288 306.633C890.451 307.047 890.679 307.409 890.936 307.716C891.388 308.255 891.92 308.632 892.43 308.946C893.196 309.411 893.934 309.761 894.383 310.113C894.609 310.286 894.755 310.446 894.84 310.59C894.923 310.736 894.967 310.866 894.97 311.103C894.97 311.678 895.424 312.145 895.984 312.145C896.544 312.144 896.998 311.678 896.998 311.102Z" fill="#376BC7"/>
<path d="M133.102 49.9722C132.896 49.9706 132.772 49.9341 132.646 49.8724C132.536 49.8177 132.423 49.7333 132.298 49.6031C132.078 49.3776 131.84 49.0078 131.59 48.5621C131.208 47.8953 130.808 47.0643 130.126 46.3279C129.784 45.9612 129.36 45.6206 128.838 45.3789C128.318 45.1359 127.708 45.0009 127.042 45.0021C126.467 45.0021 126 45.4563 126 46.016C126 46.576 126.467 47.0299 127.042 47.0299C127.381 47.0307 127.633 47.085 127.848 47.169C128.035 47.2432 128.198 47.3434 128.357 47.4764C128.636 47.7071 128.899 48.0511 129.156 48.4716C129.548 49.1006 129.897 49.8797 130.443 50.5996C130.719 50.9577 131.057 51.3081 131.507 51.5745C131.954 51.8426 132.512 52.0032 133.102 52C133.678 52 134.145 51.5461 134.145 50.9861C134.145 50.426 133.678 49.9722 133.102 49.9722Z" fill="#376BC7"/>
<path d="M145.006 49.97C144.799 49.9684 144.675 49.9319 144.549 49.8702C144.44 49.8154 144.327 49.7311 144.201 49.6009C143.982 49.3754 143.743 49.0055 143.493 48.5598C143.111 47.893 142.712 47.0624 142.03 46.3254C141.688 45.9592 141.264 45.6185 140.742 45.3768C140.221 45.1338 139.611 44.9988 138.946 45C138.37 45 137.904 45.4542 137.904 46.0139C137.904 46.5741 138.37 47.0279 138.946 47.0279C139.285 47.0287 139.537 47.0831 139.751 47.167C139.939 47.2412 140.101 47.3414 140.261 47.4744C140.539 47.7052 140.803 48.0491 141.06 48.4697C141.451 49.0988 141.8 49.8779 142.346 50.5974C142.622 50.9555 142.96 51.306 143.41 51.5724C143.857 51.8405 144.416 52.0011 145.006 51.9979C145.582 51.9979 146.048 51.544 146.048 50.9839C146.048 50.4238 145.582 49.97 145.006 49.97Z" fill="#376BC7"/>
<path d="M132.994 51.9979C133.508 51.9999 133.998 51.8807 134.411 51.6706C134.773 51.4877 135.073 51.2447 135.322 50.9852C135.758 50.5277 136.057 50.0215 136.333 49.5368C136.74 48.808 137.102 48.1218 137.512 47.6902C137.716 47.4724 137.921 47.3163 138.155 47.2072C138.391 47.0993 138.664 47.0291 139.054 47.0279C139.63 47.0279 140.096 46.5741 140.096 46.0139C140.096 45.4542 139.63 45 139.054 45C138.474 44.9992 137.938 45.1006 137.464 45.2884C137.05 45.4518 136.688 45.6785 136.381 45.9357C135.842 46.3879 135.465 46.92 135.151 47.4298C134.686 48.1964 134.336 48.9341 133.984 49.3831C133.811 49.609 133.65 49.7554 133.507 49.8398C133.361 49.9225 133.231 49.9667 132.994 49.97C132.418 49.97 131.952 50.4238 131.952 50.9839C131.952 51.544 132.418 51.9979 132.994 51.9979Z" fill="#376BC7"/>
<path d="M144.898 51.9979C145.411 51.9995 145.902 51.8807 146.314 51.6702C146.677 51.4877 146.976 51.2447 147.225 50.9848C147.661 50.5277 147.96 50.0211 148.236 49.5364C148.643 48.808 149.005 48.1214 149.415 47.6902C149.62 47.4724 149.825 47.3163 150.059 47.2072C150.294 47.0993 150.568 47.0291 150.957 47.0279V46.0168L150.871 47.0247C150.913 47.0279 150.943 47.0279 150.957 47.0279V46.0168L150.871 47.0247C151.445 47.0709 151.949 46.6564 151.996 46.0983C152.044 45.5402 151.618 45.0499 151.045 45.0036C151.002 45.0004 150.972 45 150.957 45C150.378 44.9996 149.841 45.1006 149.367 45.2884C148.953 45.4514 148.591 45.6785 148.284 45.9357C147.745 46.3879 147.368 46.92 147.054 47.4298C146.589 48.196 146.239 48.9341 145.887 49.3827C145.714 49.609 145.554 49.7554 145.41 49.8398C145.264 49.9225 145.134 49.9667 144.897 49.97C144.322 49.97 143.855 50.4242 143.855 50.9844C143.856 51.5441 144.322 51.9979 144.898 51.9979Z" fill="#376BC7"/>
<path d="M463.739 612.996L464.615 612.511L460.365 605.483C460.184 605.184 459.85 605 459.488 605C459.126 605 458.793 605.185 458.612 605.484L454.375 612.516L450.135 619.55C449.955 619.849 449.955 620.218 450.136 620.517C450.317 620.816 450.651 621 451.012 621L459.5 620.993L467.989 620.99C468.35 620.989 468.684 620.805 468.865 620.505C469.045 620.206 469.045 619.837 468.864 619.538L464.615 612.511L463.739 612.996L462.863 613.48L466.235 619.055L459.499 619.059L452.764 619.064L456.129 613.482L459.49 607.903L462.863 613.48L463.739 612.996Z" fill="#376BC7"/>
<path d="M736.687 468.71L746.71 458.687C747.097 458.301 747.097 457.675 746.71 457.29C746.325 456.903 745.699 456.903 745.313 457.29L735.29 467.313C734.903 467.699 734.903 468.325 735.29 468.71C735.675 469.097 736.301 469.097 736.687 468.71Z" fill="#376BC7"/>
<path d="M1.09132 383.091V384.183H13.8174V395.817H2.18263V383.091H1.09132H0V396.909C0 397.196 0.116545 397.477 0.31953 397.68C0.522951 397.884 0.804082 398 1.09132 398H14.9087C15.1959 398 15.477 397.884 15.68 397.68C15.8834 397.477 16 397.196 16 396.909V383.091C16 382.804 15.8834 382.522 15.68 382.32C15.477 382.116 15.1959 382 14.9087 382H1.09132C0.804082 382 0.522951 382.116 0.31953 382.32C0.116545 382.522 0 382.804 0 383.091H1.09132Z" fill="#376BC7"/>
</g>
</svg>
