<!-- Generated by IcoMoon.io -->
<svg version="1.1" xmlns="http://www.w3.org/2000/svg" width="32" height="32" viewBox="0 0 32 32">
<title>car</title>
<path d="M16 0c-8.837 0-16 7.163-16 16s7.163 16 16 16c8.837 0 16-7.163 16-16-0.010-8.832-7.168-15.99-16-16zM16 30.933c-8.247 0-14.933-6.686-14.933-14.933s6.686-14.933 14.933-14.933c8.247 0 14.933 6.686 14.933 14.933-0.009 8.243-6.69 14.924-14.933 14.933z"></path>
<path d="M16.001 2.133c-7.658 0-13.867 6.208-13.867 13.867s6.208 13.867 13.867 13.867 13.867-6.208 13.867-13.867c-0.009-7.655-6.212-13.858-13.867-13.867zM28.334 12.585l-7.558 2.929c-0.070-0.679-0.286-1.336-0.632-1.924l7.843-2.075c0.131 0.35 0.246 0.707 0.347 1.071zM16.001 3.2c4.945 0.005 9.446 2.854 11.566 7.322l-8.117 2.148c-1.829-1.905-4.856-1.966-6.76-0.137-0.046 0.045-0.092 0.090-0.137 0.137l-8.117-2.148c2.12-4.467 6.621-7.317 11.566-7.322zM19.734 16c-0.002 2.061-1.672 3.731-3.733 3.733-2.062 0-3.733-1.671-3.733-3.733s1.671-3.733 3.733-3.733c2.062 0 3.733 1.671 3.733 3.733zM4.014 11.516l7.843 2.075c-0.346 0.588-0.561 1.244-0.632 1.922l-7.558-2.926c0.101-0.364 0.213-0.721 0.347-1.071zM3.201 16c0.001-0.794 0.075-1.586 0.223-2.366l7.83 3.034c0.224 1.577 1.215 2.941 2.646 3.641l0.465 8.385c-6.38-0.83-11.156-6.26-11.164-12.693zM16.564 28.786c-0.187 0.008-0.373 0.014-0.563 0.014s-0.377-0.006-0.564-0.014l-0.45-8.095c0.668 0.147 1.359 0.147 2.027 0l-0.45 8.095zM18.395 28.573c-0.252 0.048-0.504 0.088-0.758 0.12v-0.002l0.466-8.383c1.431-0.7 2.421-2.064 2.645-3.641l7.829-3.034c1.314 6.937-3.245 13.625-10.181 14.939z"></path>
<path d="M16 13.333c-1.473 0-2.667 1.194-2.667 2.667s1.194 2.667 2.667 2.667c1.473 0 2.667-1.194 2.667-2.667-0.002-1.472-1.195-2.665-2.667-2.667zM16 17.6c-0.884 0-1.6-0.716-1.6-1.6s0.716-1.6 1.6-1.6c0.884 0 1.6 0.716 1.6 1.6s-0.716 1.6-1.6 1.6z"></path>
</svg>
