<!-- Generated by IcoMoon.io -->
<svg version="1.1" xmlns="http://www.w3.org/2000/svg" width="61" height="32" viewBox="0 0 61 32">
<title>cardealers</title>
<path d="M55.81 11.28c-0.024-0.010-0.049-0.019-0.074-0.028-0.304-0.112-0.625-0.218-0.966-0.315-3.979-1.132-12.24-1.145-12.589-1.145h-1.743l-3.436-5.76c-1.568-2.615-3.037-4.032-6.312-4.032-0 0-0.001 0-0.002 0l-13.266 0.002c-2.626 0-5.234 1.768-6.807 4.612-0.004 0.007-0.008 0.015-0.012 0.022l-1.57 3.004-5.914 0.713c-0.021 0.003-0.043 0.006-0.064 0.010-1.885 0.343-3.055 1.742-3.055 3.654v7.203c0 2.933 2.459 4.339 4.338 4.842 0.126 3.474 2.99 6.261 6.494 6.261 3.214 0 5.889-2.347 6.406-5.417h26.213c0.518 3.070 3.193 5.417 6.408 5.417s5.889-2.347 6.406-5.417h3.283c0.598 0 1.083-0.485 1.083-1.083v-6.305c0-2.070-0.871-4.754-4.822-6.238zM57.785 15.216l-2.522 0.001v-1.061c0-0.124 0.083-0.395 0.297-0.641 1.003 0.446 1.743 1.011 2.224 1.702zM37.915 9.792h-21.668c-0.194 0-0.333-0.077-0.384-0.153-0.073-0.109-0.015-0.308 0.024-0.413l1.167-2.423c0.483-0.989 1.199-1.411 2.394-1.411h15.841l2.625 4.4zM2.165 12.971h1.084c0.597 0 1.083 0.486 1.083 1.083v1.105h-2.167v-2.188zM10.832 28.157c-2.39 0-4.334-1.944-4.334-4.334s1.944-4.334 4.334-4.334c2.389 0 4.333 1.944 4.333 4.334s-1.944 4.334-4.333 4.334zM49.86 28.157c-2.39 0-4.334-1.944-4.334-4.334s1.944-4.334 4.334-4.334c2.389 0 4.333 1.944 4.333 4.334s-1.944 4.334-4.333 4.334zM58.466 22.74h-2.2c-0.517-3.070-3.192-5.417-6.407-5.417s-5.891 2.347-6.408 5.417h-26.213c-0.517-3.070-3.192-5.417-6.407-5.417-2.909 0-5.378 1.921-6.204 4.561-1.010-0.317-2.462-1.053-2.462-2.665v-1.895h3.25c0.598 0 1.083-0.485 1.083-1.083v-2.188c0-1.791-1.457-3.248-3.248-3.248h-0.576c0.192-0.146 0.437-0.249 0.739-0.307l6.373-0.768c0.377-0.020 0.722-0.237 0.901-0.58l1.829-3.5c1.192-2.148 3.071-3.483 4.906-3.483l13.266-0.002c0 0 0.001 0 0.001 0 1.41 0 2.28 0.303 3.053 1.061h-14.293c-2.029 0-3.489 0.883-4.342 2.631l-1.188 2.465c-0.010 0.021-0.020 0.043-0.029 0.065-0.358 0.887-0.295 1.762 0.178 2.463 0.468 0.693 1.282 1.107 2.179 1.107h25.933c0.077 0 7.301 0.011 11.248 0.876-0.224 0.452-0.331 0.918-0.331 1.322v2.145c0 0.287 0.114 0.563 0.317 0.766s0.478 0.317 0.765 0.317c0 0 0.001 0 0.001 0l4.282-0.002c0.001 0.046 0.003 0.091 0.003 0.137v5.222h0z"></path>
<path d="M44.458 15.217h-28.211c-0.598 0-1.083 0.485-1.083 1.083s0.485 1.083 1.083 1.083h28.211c0.598 0 1.083-0.485 1.083-1.083s-0.485-1.083-1.083-1.083z"></path>
<path d="M12.954 22.74c-0.598 0-1.083 0.485-1.083 1.083 0 0.574-0.467 1.041-1.040 1.041s-1.041-0.467-1.041-1.041c0-0.574 0.467-1.041 1.041-1.041 0.598 0 1.083-0.485 1.083-1.083s-0.485-1.083-1.083-1.083c-1.768 0-3.206 1.438-3.206 3.206s1.438 3.206 3.206 3.206c1.768 0 3.206-1.438 3.206-3.206 0-0.598-0.485-1.083-1.083-1.083z"></path>
<path d="M51.982 22.74c-0.598 0-1.083 0.485-1.083 1.083 0 0.574-0.467 1.041-1.040 1.041s-1.041-0.467-1.041-1.041c0-0.574 0.467-1.041 1.041-1.041 0.598 0 1.083-0.485 1.083-1.083s-0.485-1.083-1.083-1.083c-1.768 0-3.206 1.438-3.206 3.206s1.438 3.206 3.206 3.206c1.768 0 3.206-1.438 3.206-3.206 0-0.598-0.485-1.083-1.083-1.083z"></path>
</svg>
