<svg width="7" height="7" viewBox="0 0 7 7" fill="none" xmlns="http://www.w3.org/2000/svg">
<path opacity="0.3" d="M4.83289 5.61739L4.3019 4.77219C4.04957 4.93069 3.77688 5.00337 3.5026 5.00376C3.25267 5.00376 3.00354 4.94107 2.78396 4.8221C2.56357 4.70272 2.37313 4.53064 2.22821 4.30068V4.29988C2.0697 4.04755 1.99664 3.77487 1.99624 3.50058C1.99624 3.25106 2.05891 3.00233 2.17789 2.78235C2.29687 2.56236 2.46933 2.37192 2.6989 2.22699C2.95043 2.06969 3.22232 1.99663 3.49701 1.99623C3.74694 1.99623 3.99647 2.05891 4.21645 2.17788C4.43684 2.29726 4.62768 2.46974 4.77261 2.6993L4.773 2.7001C4.9307 2.95123 5.00336 3.22351 5.00376 3.4978C5.00416 3.74773 4.94108 3.99686 4.82211 4.21724C4.70273 4.43763 4.53027 4.62846 4.3011 4.77299L4.3019 4.77219L4.83289 5.61739L5.36468 6.46221C5.89049 6.13163 6.30252 5.67809 6.5788 5.16545C6.85588 4.65202 7 4.0791 7 3.4978C7.0008 2.8614 6.82513 2.21222 6.46181 1.6365L6.46222 1.63691C6.13164 1.1107 5.67809 0.697886 5.16506 0.421607C4.65162 0.14453 4.07831 4.17233e-07 3.49701 4.17233e-07C2.861 -0.000398854 2.21182 0.174869 1.63651 0.537385C1.1103 0.867562 0.697888 1.3207 0.421609 1.83373C0.144531 2.34676 6.7898e-07 2.91928 6.7898e-07 3.50058C-0.000398569 4.13738 0.17527 4.78697 0.538186 5.36309V5.36268C0.868364 5.88889 1.3219 6.30171 1.83453 6.57839C2.34797 6.85547 2.9209 7 3.5026 7C4.1386 7.0004 4.78777 6.82511 5.36388 6.4626L5.36468 6.46221L4.83289 5.61739Z" fill="#2792FF"/>
</svg>
