<!-- Generated by IcoMoon.io -->
<svg version="1.1" xmlns="http://www.w3.org/2000/svg" width="33" height="32" viewBox="0 0 33 32">
<title>cogwheels</title>
<path d="M8.009 13.419v-1.032c-2.65 0-4.805-2.084-4.805-4.645h-1.068c0 3.13 2.635 5.677 5.873 5.677z"></path>
<path d="M8.009 11.355c2.060 0 3.737-1.621 3.737-3.613s-1.677-3.613-3.738-3.613-3.737 1.621-3.737 3.613c0 1.992 1.677 3.613 3.737 3.613zM8.009 5.161c1.472 0 2.67 1.158 2.67 2.581s-1.198 2.581-2.67 2.581-2.67-1.158-2.67-2.581c0-1.423 1.198-2.581 2.67-2.581z"></path>
<path d="M8.009 9.29c0.883 0 1.602-0.695 1.602-1.548s-0.719-1.548-1.602-1.548c-0.883 0-1.602 0.695-1.602 1.548s0.719 1.548 1.602 1.548zM8.009 7.226c0.295 0 0.534 0.231 0.534 0.516s-0.239 0.516-0.534 0.516-0.534-0.231-0.534-0.516c0-0.285 0.239-0.516 0.534-0.516z"></path>
<path d="M33.103 24.625v-3.83l-1.445-0.487c-0.162-0.515-0.374-1.012-0.634-1.482l0.665-1.331-0.516-0.499c-0.239-0.303-0.631-0.703-0.927-0.993-0.369-0.361-0.794-0.752-1.083-0.996l-3.552-3.003 0.305-0.884 1.236 0.598 2.055-1.986-0.618-1.195 1.311-0.423v-2.808l-1.311-0.422 0.618-1.195-2.055-1.986-1.236 0.598-0.437-1.268h-2.905l-0.437 1.268-1.236-0.598-2.055 1.986 0.618 1.195-1.312 0.422v0.394l-4.395-3.715c-1.513-1.28-3.452-1.984-5.463-1.984v0.014c-0.096-0.003-0.19-0.014-0.287-0.014-4.416 0-8.009 3.473-8.009 7.742 0 0.094 0.011 0.185 0.014 0.278h-0.014c0 1.943 0.729 3.818 2.053 5.28l3.846 4.249h-0.41l-0.437 1.268-1.236-0.598-2.055 1.986 0.618 1.195-1.311 0.422v2.808l1.311 0.422-0.618 1.195 2.055 1.986 1.236-0.598 0.437 1.268h2.905l0.437-1.268 1.236 0.598 2.055-1.986-0.618-1.195 0.921-0.296 3.099 3.424c0.243 0.268 0.607 0.641 0.95 0.975 0.325 0.316 0.771 0.731 1.107 0.979l0.517 0.5 1.377-0.643c0.487 0.251 1.001 0.456 1.533 0.613l0.506 1.396h3.962l0.504-1.397c0.533-0.157 1.047-0.362 1.534-0.613l1.377 0.643 2.802-2.709-0.665-1.331c0.259-0.471 0.472-0.967 0.634-1.482l1.445-0.487zM15.961 18.825c-0.259 0.471-0.472 0.967-0.634 1.482l-1.445 0.487v3.83l1.445 0.487c0.162 0.515 0.374 1.012 0.634 1.482l-0.162 0.324-10.901-12.042c0.957 0.391 2.008 0.608 3.111 0.608 4.416 0 8.009-3.473 8.009-7.742 0-1.067-0.224-2.084-0.63-3.009l12.465 10.537-0.341 0.159c-0.487-0.251-1.001-0.456-1.533-0.613l-0.505-1.397h-3.962l-0.504 1.397c-0.533 0.157-1.046 0.362-1.534 0.613l-1.377-0.643-2.802 2.709 0.665 1.331zM19.221 6.050l1.226-0.395 0.090-0.229c0.026-0.067 0.053-0.131 0.082-0.195l0.104-0.223-0.577-1.116 0.966-0.934 1.154 0.558 0.231-0.1c0.066-0.028 0.133-0.054 0.202-0.080l0.236-0.087 0.409-1.185h1.366l0.409 1.185 0.236 0.087c0.069 0.025 0.136 0.052 0.202 0.080l0.231 0.1 1.154-0.558 0.966 0.934-0.577 1.116 0.104 0.223c0.029 0.064 0.056 0.129 0.082 0.195l0.090 0.229 1.225 0.395v1.321l-1.226 0.395-0.090 0.229c-0.026 0.067-0.053 0.131-0.082 0.195l-0.104 0.223 0.577 1.116-0.966 0.934-1.154-0.558-0.231 0.1c-0.066 0.028-0.133 0.054-0.202 0.080l-0.236 0.087-0.378 1.097-5.519-4.666v-0.552zM8.009 1.032c3.827 0 6.941 3.010 6.941 6.71s-3.114 6.71-6.941 6.71c-3.827 0-6.941-3.010-6.941-6.71s3.114-6.71 6.941-6.71zM10.521 24.281l-0.090 0.229c-0.026 0.067-0.053 0.131-0.082 0.195l-0.104 0.223 0.577 1.116-0.966 0.934-1.154-0.558-0.231 0.1c-0.066 0.028-0.133 0.054-0.202 0.080l-0.236 0.087-0.409 1.185h-1.366l-0.409-1.185-0.236-0.087c-0.069-0.025-0.136-0.052-0.202-0.080l-0.231-0.1-1.154 0.558-0.966-0.934 0.577-1.116-0.103-0.223c-0.029-0.064-0.056-0.129-0.082-0.195l-0.090-0.229-1.226-0.395v-1.321l1.226-0.395 0.090-0.229c0.026-0.067 0.053-0.131 0.082-0.195l0.103-0.223-0.577-1.115 0.966-0.934 1.154 0.558 0.231-0.1c0.066-0.028 0.133-0.054 0.202-0.080l0.236-0.087 0.409-1.185h0.575l4.828 5.333-1.14 0.367zM30.779 24.315l-0.073 0.264c-0.17 0.613-0.42 1.198-0.744 1.74l-0.142 0.237 0.578 1.157-1.729 1.671-1.197-0.559-0.245 0.137c-0.56 0.313-1.166 0.555-1.8 0.719l-0.273 0.071-0.438 1.215h-2.445l-0.438-1.215-0.273-0.071c-0.634-0.164-1.24-0.406-1.8-0.719l-0.245-0.137-1.197 0.559-1.729-1.671 0.578-1.157-0.142-0.237c-0.324-0.542-0.574-1.127-0.744-1.74l-0.073-0.264-1.257-0.424v-2.364l1.257-0.424 0.073-0.264c0.17-0.613 0.42-1.198 0.744-1.74l0.142-0.237-0.578-1.157 1.729-1.671 1.197 0.559 0.245-0.137c0.56-0.313 1.166-0.555 1.8-0.719l0.273-0.071 0.438-1.215h2.445l0.438 1.215 0.273 0.071c0.634 0.164 1.24 0.406 1.8 0.719l0.245 0.137 1.197-0.559 1.729 1.671-0.578 1.157 0.142 0.237c0.324 0.542 0.574 1.127 0.744 1.74l0.073 0.264 1.257 0.424v2.364l-1.257 0.424z"></path>
<path d="M23.493 17.548c-2.944 0-5.339 2.315-5.339 5.161s2.395 5.161 5.339 5.161c2.944 0 5.339-2.315 5.339-5.161s-2.395-5.161-5.339-5.161zM23.493 26.839c-2.355 0-4.271-1.852-4.271-4.129s1.916-4.129 4.271-4.129c2.355 0 4.271 1.852 4.271 4.129s-1.916 4.129-4.271 4.129z"></path>
<path d="M23.493 19.613c-1.767 0-3.204 1.389-3.204 3.097s1.437 3.097 3.204 3.097c1.767 0 3.204-1.389 3.204-3.097s-1.437-3.097-3.204-3.097zM23.493 24.774c-1.178 0-2.136-0.926-2.136-2.064s0.958-2.064 2.136-2.064c1.178 0 2.136 0.926 2.136 2.064s-0.958 2.064-2.136 2.064z"></path>
<path d="M26.697 6.71c0-1.423-1.198-2.581-2.67-2.581s-2.67 1.158-2.67 2.581c0 1.423 1.198 2.581 2.67 2.581s2.67-1.158 2.67-2.581zM22.425 6.71c0-0.854 0.719-1.548 1.602-1.548s1.602 0.695 1.602 1.548-0.719 1.548-1.602 1.548c-0.883 0-1.602-0.695-1.602-1.548z"></path>
<path d="M4.272 23.226c0 1.423 1.198 2.581 2.67 2.581s2.67-1.158 2.67-2.581c0-1.423-1.198-2.581-2.67-2.581s-2.67 1.158-2.67 2.581zM8.543 23.226c0 0.854-0.719 1.548-1.602 1.548s-1.602-0.695-1.602-1.548c0-0.854 0.719-1.548 1.602-1.548s1.602 0.695 1.602 1.548z"></path>
</svg>
