<svg width="344" height="154" viewBox="0 0 344 154" fill="none" xmlns="http://www.w3.org/2000/svg">
<path d="M176.101 44.0392C174.267 44.0249 173.163 43.7016 172.043 43.1556C171.074 42.6707 170.068 41.9236 168.954 40.7705C167.002 38.7733 164.884 35.4973 162.664 31.5496C159.27 25.6443 155.718 18.2842 149.66 11.761C146.623 8.51379 142.855 5.49641 138.218 3.35554C133.591 1.20389 128.172 0.00771875 122.26 0.0184949C117.145 0.0184949 113 4.04161 113 8.99865C113 13.9593 117.145 17.9788 122.26 17.9788C125.274 17.986 127.509 18.4674 129.415 19.211C131.079 19.8683 132.524 20.7555 133.944 21.9337C136.416 23.9776 138.76 27.0236 141.042 30.7486C144.521 36.3199 147.621 43.2202 152.472 49.5962C154.922 52.768 157.929 55.8715 161.925 58.2315C165.897 60.6059 170.856 62.0283 176.101 61.9996C181.216 61.9996 185.361 57.9801 185.361 53.0194C185.361 48.0588 181.216 44.0392 176.101 44.0392Z" fill="#FBF659"/>
<path d="M281.86 44.0198C280.023 44.0054 278.919 43.6821 277.8 43.1361C276.831 42.6511 275.826 41.904 274.712 40.7508C272.76 38.7535 270.643 35.4773 268.422 31.5294C265.028 25.6237 261.475 18.2668 255.418 11.7396C252.381 8.49578 248.615 5.47822 243.977 3.33722C239.35 1.18545 233.931 -0.0107046 228.019 7.21931e-05C222.905 7.21931e-05 218.759 4.02333 218.759 8.98068C218.759 13.9416 222.905 17.9614 228.019 17.9614C231.033 17.9686 233.269 18.45 235.173 19.1936C236.838 19.851 238.282 20.7382 239.702 21.9165C242.175 23.9605 244.517 27.0067 246.799 30.7319C250.277 36.3036 253.378 43.2043 258.23 49.577C260.679 52.749 263.686 55.8527 267.683 58.2129C271.654 60.5873 276.616 62.0099 281.86 61.9811C286.976 61.9811 291.12 57.9614 291.12 53.0005C291.12 48.0395 286.976 44.0198 281.86 44.0198Z" fill="#FBF659"/>
<path d="M175.139 61.9813C179.702 61.9993 184.059 60.9432 187.725 59.0823C190.942 57.4622 193.606 55.3105 195.821 53.0114C199.693 48.9593 202.353 44.4761 204.804 40.1834C208.417 33.728 211.633 27.6498 215.28 23.8276C217.096 21.8986 218.916 20.5156 220.997 19.5493C223.087 18.5937 225.518 17.9722 228.981 17.9614C234.096 17.9614 238.241 13.9416 238.241 8.98068C238.241 4.02332 234.096 4.58983e-05 228.981 4.58983e-05C223.831 -0.00713868 219.061 0.890885 214.857 2.55412C211.174 4.00181 207.961 6.00988 205.231 8.2874C200.444 12.2928 197.091 17.0059 194.299 21.5214C190.168 28.3109 187.064 34.8452 183.936 38.8219C182.396 40.8228 180.971 42.1196 179.697 42.8668C178.396 43.5996 177.244 43.9912 175.139 44.0199C170.025 44.0199 165.88 48.0397 165.88 53.0006C165.88 57.9616 170.025 61.9813 175.139 61.9813Z" fill="#FBF659"/>
<path d="M280.899 61.9814C285.463 61.9958 289.819 60.9432 293.486 59.0788C296.704 57.4623 299.367 55.3105 301.579 53.0079C305.453 48.9594 308.109 44.4726 310.561 40.1798C314.172 33.728 317.391 27.6463 321.036 23.8277C322.855 21.8986 324.673 20.5156 326.751 19.5493C328.844 18.5937 331.274 17.9722 334.737 17.9614V9.00584L333.97 17.9327C334.341 17.9615 334.607 17.9614 334.737 17.9614V9.00584L333.97 17.9327C339.067 18.3423 343.545 14.6709 343.967 9.72789C344.393 4.78489 340.608 0.44181 335.511 0.0322881C335.137 0.00354973 334.87 1.35665e-05 334.737 1.35665e-05C329.588 -0.00357873 324.818 0.890854 320.61 2.55409C316.932 3.99819 313.717 6.00986 310.987 8.28738C306.198 12.2928 302.846 17.0059 300.056 21.5214C295.926 28.3073 292.819 34.8452 289.693 38.8183C288.152 40.8228 286.729 42.1196 285.451 42.8668C284.151 43.5997 282.999 43.9912 280.896 44.0199C275.782 44.0199 271.639 48.0433 271.639 53.0043C271.64 57.9617 275.785 61.9814 280.899 61.9814Z" fill="#FBF659"/>
<g filter="url(#filter7_f)">
<path d="M83.1014 116.039C81.2668 116.025 80.163 115.702 79.0429 115.156C78.0735 114.671 77.0679 113.924 75.9537 112.771C74.0021 110.773 71.8838 107.497 69.6643 103.55C66.2699 97.6443 62.7178 90.2842 56.6598 83.761C53.6225 80.5138 49.8552 77.4964 45.2177 75.3555C40.5907 73.2039 35.1721 72.0077 29.2601 72.0185C24.1452 72.0185 20 76.0416 20 80.9987C20 85.9593 24.1452 89.9788 29.2601 89.9788C32.274 89.986 34.5094 90.4674 36.4147 91.211C38.079 91.8683 39.5243 92.7555 40.9437 93.9337C43.4165 95.9776 45.7604 99.0236 48.0421 102.749C51.5205 108.32 54.6211 115.22 59.4723 121.596C61.9221 124.768 64.9287 127.872 68.925 130.231C72.8968 132.606 77.8565 134.028 83.1014 134C88.2163 134 92.3615 129.98 92.3615 125.019C92.3615 120.059 88.2163 116.039 83.1014 116.039Z" fill="#303032" fill-opacity="0.05"/>
<path d="M188.86 116.02C187.023 116.005 185.919 115.682 184.8 115.136C183.831 114.651 182.826 113.904 181.712 112.751C179.76 110.754 177.643 107.477 175.422 103.529C172.028 97.6237 168.475 90.2668 162.418 83.7396C159.381 80.4958 155.615 77.4782 150.977 75.3372C146.35 73.1855 140.931 71.9893 135.019 72.0001C129.905 72.0001 125.759 76.0233 125.759 80.9807C125.759 85.9416 129.905 89.9614 135.019 89.9614C138.033 89.9686 140.269 90.45 142.173 91.1936C143.838 91.851 145.282 92.7382 146.702 93.9165C149.175 95.9605 151.517 99.0067 153.799 102.732C157.277 108.304 160.378 115.204 165.23 121.577C167.679 124.749 170.686 127.853 174.683 130.213C178.654 132.587 183.616 134.01 188.86 133.981C193.976 133.981 198.12 129.961 198.12 125C198.12 120.04 193.976 116.02 188.86 116.02Z" fill="#303032" fill-opacity="0.05"/>
<path d="M82.139 133.981C86.7025 133.999 91.0585 132.943 94.7249 131.082C97.9424 129.462 100.606 127.31 102.821 125.011C106.693 120.959 109.353 116.476 111.804 112.183C115.417 105.728 118.633 99.6498 122.28 95.8276C124.096 93.8986 125.916 92.5156 127.997 91.5493C130.087 90.5937 132.518 89.9722 135.981 89.9614C141.096 89.9614 145.241 85.9416 145.241 80.9807C145.241 76.0233 141.096 72 135.981 72C130.831 71.9929 126.061 72.8909 121.857 74.5541C118.174 76.0018 114.961 78.0099 112.231 80.2874C107.444 84.2928 104.091 89.0059 101.299 93.5214C97.1683 100.311 94.0638 106.845 90.9355 110.822C89.3962 112.823 87.971 114.12 86.6965 114.867C85.3958 115.6 84.2442 115.991 82.139 116.02C77.0248 116.02 72.8795 120.04 72.8795 125.001C72.8795 129.962 77.0248 133.981 82.139 133.981Z" fill="#303032" fill-opacity="0.05"/>
<path d="M187.899 133.981C192.463 133.996 196.819 132.943 200.486 131.079C203.704 129.462 206.367 127.311 208.579 125.008C212.453 120.959 215.109 116.473 217.561 112.18C221.172 105.728 224.391 99.6463 228.036 95.8277C229.855 93.8986 231.673 92.5156 233.751 91.5493C235.844 90.5937 238.274 89.9722 241.737 89.9614V81.0058L240.97 89.9327C241.341 89.9615 241.607 89.9614 241.737 89.9614V81.0058L240.97 89.9327C246.067 90.3423 250.545 86.6709 250.967 81.7279C251.393 76.7849 247.608 72.4418 242.511 72.0323C242.137 72.0035 241.87 72 241.737 72C236.588 71.9964 231.818 72.8909 227.61 74.5541C223.932 75.9982 220.717 78.0099 217.987 80.2874C213.198 84.2928 209.846 89.0059 207.056 93.5214C202.926 100.307 199.819 106.845 196.693 110.818C195.152 112.823 193.729 114.12 192.451 114.867C191.151 115.6 189.999 115.991 187.896 116.02C182.782 116.02 178.639 120.043 178.639 125.004C178.64 129.962 182.785 133.981 187.899 133.981Z" fill="#303032" fill-opacity="0.05"/>
</g>
<defs>
<filter id="filter7_f" x="0" y="52" width="271" height="102" filterUnits="userSpaceOnUse" color-interpolation-filters="sRGB">
<feFlood flood-opacity="0" result="BackgroundImageFix"/>
<feBlend mode="normal" in="SourceGraphic" in2="BackgroundImageFix" result="shape"/>
<feGaussianBlur stdDeviation="10" result="effect1_foregroundBlur"/>
</filter>
</defs>
</svg>
