<svg width="285" height="343" viewBox="0 0 285 343" fill="none" xmlns="http://www.w3.org/2000/svg">
<g filter="url(#filter11_f)">
<path d="M42.3455 144.345V156.69H186.309V288.31H54.691V144.345H42.3455H30V300.655C30 303.905 31.3184 307.084 33.6147 309.385C35.9159 311.682 39.0962 313 42.3455 313H198.654C201.904 313 205.084 311.682 207.38 309.385C209.681 307.084 211 303.905 211 300.655V144.345C211 141.091 209.681 137.91 207.38 135.615C205.084 133.314 201.904 132 198.654 132H42.3455C39.0962 132 35.9159 133.314 33.6147 135.615C31.3184 137.91 30 141.091 30 144.345H42.3455Z" fill="#303032" fill-opacity="0.07"/>
</g>
<path d="M116.346 12.3452V24.6904H260.309V156.31H128.691V12.3452H116.346H104V168.655C104 171.905 105.318 175.084 107.615 177.385C109.916 179.682 113.096 181 116.346 181H272.654C275.904 181 279.084 179.682 281.38 177.385C283.681 175.084 285 171.905 285 168.655V12.3452C285 9.09101 283.681 5.90991 281.38 3.61469C279.084 1.31354 275.904 -5.4876e-06 272.654 -5.4876e-06H116.346C113.096 -5.4876e-06 109.916 1.31354 107.615 3.61469C105.318 5.90991 104 9.09101 104 12.3452H116.346Z" fill="#FBF659"/>
<defs>
<filter id="filter11_f" x="0" y="102" width="241" height="241" filterUnits="userSpaceOnUse" color-interpolation-filters="sRGB">
<feFlood flood-opacity="0" result="BackgroundImageFix"/>
<feBlend mode="normal" in="SourceGraphic" in2="BackgroundImageFix" result="shape"/>
<feGaussianBlur stdDeviation="15" result="effect1_foregroundBlur"/>
</filter>
</defs>
</svg>
