<!-- Generated by IcoMoon.io -->
<svg version="1.1" xmlns="http://www.w3.org/2000/svg" width="36" height="32" viewBox="0 0 36 32">
<title>key</title>
<path d="M15.913 7.452l-3.848-3.869c-0.712-0.716-1.871-0.716-2.583 0l-1.523 1.531c-0.712 0.716-0.712 1.881 0 2.597l3.848 3.869c0.356 0.358 0.824 0.537 1.292 0.537s0.935-0.179 1.291-0.537l1.523-1.531c0.712-0.716 0.712-1.881 0-2.597zM15.189 9.322l-1.523 1.531c-0.152 0.153-0.354 0.237-0.568 0.237s-0.417-0.084-0.568-0.237l-3.848-3.869c-0.313-0.315-0.313-0.828 0-1.143l1.523-1.531c0.157-0.158 0.363-0.236 0.568-0.236s0.412 0.079 0.568 0.236l3.848 3.869c0.152 0.153 0.235 0.356 0.235 0.571s-0.084 0.419-0.235 0.571z"></path>
<path d="M11.249 12.14l-3.848-3.869c-0.712-0.716-1.871-0.716-2.583 0l-1.523 1.531c-0.712 0.716-0.712 1.881 0 2.597l3.848 3.869c0.356 0.358 0.824 0.537 1.291 0.537s0.936-0.179 1.292-0.537l1.523-1.531c0.712-0.716 0.712-1.881 0-2.597zM10.526 14.010l-1.523 1.531c-0.313 0.315-0.823 0.315-1.137 0l-3.848-3.869c-0.152-0.153-0.235-0.356-0.235-0.571s0.084-0.419 0.235-0.571l1.523-1.531c0.157-0.158 0.362-0.236 0.568-0.236s0.412 0.079 0.568 0.236l3.848 3.869c0.313 0.315 0.313 0.828 0 1.143z"></path>
<path d="M34.881 9.874l-4.843-4.869c-0.728-0.731-1.734-1.113-2.761-1.048-0.238 0.015-0.472 0.055-0.699 0.116-0.83-0.636-1.833-1.218-2.931-1.691-1.633-0.704-3.294-1.092-4.677-1.092 0 0-0 0 0 0-0.191 0-0.375 0.008-0.55 0.023-0.407-0.471-0.986-0.788-1.64-0.85l-4.672-0.446c-1.198-0.114-2.373 0.311-3.224 1.166l-4.888 4.914c-0.2 0.201-0.2 0.526 0 0.727s0.523 0.201 0.723 0l4.888-4.914c0.635-0.638 1.511-0.955 2.405-0.87l4.672 0.446c0.696 0.066 1.249 0.622 1.315 1.322l0.25 2.652c-0.005-0.004-0.009-0.008-0.014-0.013-0.042-0.038-0.084-0.076-0.125-0.115-0.036-0.034-0.072-0.068-0.106-0.101-0.016-0.016-0.033-0.032-0.049-0.048-0.049-0.049-0.097-0.098-0.144-0.147-0.041-0.043-0.080-0.086-0.118-0.129-0.009-0.010-0.018-0.020-0.027-0.031-0.036-0.041-0.071-0.082-0.105-0.123-0.008-0.009-0.015-0.018-0.022-0.027-0.026-0.033-0.052-0.065-0.077-0.097-0.010-0.013-0.021-0.027-0.031-0.040-0.027-0.036-0.053-0.072-0.078-0.107-0.012-0.018-0.024-0.035-0.036-0.052-0.009-0.013-0.018-0.027-0.027-0.040 0.292-0.611 0.188-1.368-0.315-1.874-0.637-0.641-1.674-0.641-2.311 0s-0.637 1.683 0 2.324c0.319 0.32 0.737 0.48 1.156 0.48 0.256 0 0.512-0.061 0.745-0.18 0.146 0.2 0.315 0.402 0.507 0.605 0.371 0.392 0.815 0.775 1.314 1.137l0.059 0.623c0.085 0.898-0.231 1.779-0.865 2.417l-8.257 8.3c-0.211 0.212-0.492 0.329-0.791 0.329s-0.58-0.117-0.791-0.329l-6.388-6.421c-0.211-0.212-0.328-0.495-0.328-0.795s0.116-0.583 0.328-0.795l1.006-1.012c0.2-0.201 0.2-0.526 0-0.727s-0.523-0.201-0.723 0l-1.006 1.012c-0.835 0.839-0.835 2.205 0 3.044l6.388 6.421c0.404 0.407 0.942 0.631 1.514 0.631s1.11-0.224 1.514-0.631l8.257-8.3c0.808-0.812 1.229-1.919 1.172-3.060 0.504 0.293 1.043 0.566 1.608 0.81 0.318 0.137 0.637 0.262 0.954 0.374l-2.874 3.735c-0.983 1.277-0.986 3.041-0.074 4.316l-2.36 2.372c-0.266 0.267-0.376 0.661-0.29 1.028 0.005 0.023-0.002 0.047-0.018 0.063l-1.703 1.712c-0.068 0.068-0.125 0.146-0.17 0.232l-0.959 1.836-1.721 0.894c-0.182 0.095-0.331 0.249-0.421 0.435l-0.675 1.407-2.049 1.29c-0.215 0.135-0.357 0.358-0.389 0.611l-0.298 2.338c-0.033 0.262 0.054 0.52 0.24 0.707 0.16 0.161 0.372 0.249 0.595 0.249 0.036 0 0.073-0.002 0.109-0.007l2.326-0.299c0.252-0.032 0.473-0.175 0.608-0.391l1.283-2.060 1.399-0.678c0.185-0.090 0.338-0.24 0.432-0.423l0.89-1.73 1.827-0.964c0.085-0.045 0.163-0.102 0.231-0.171l1.703-1.712c0.017-0.017 0.040-0.023 0.063-0.018 0.366 0.087 0.758-0.024 1.023-0.291l2.36-2.372c0.621 0.449 1.359 0.678 2.099 0.678 0.772 0 1.547-0.248 2.195-0.752l2.735-2.127c0.223-0.174 0.264-0.497 0.092-0.721s-0.494-0.266-0.717-0.092l-2.735 2.127c-1.004 0.781-2.431 0.702-3.345-0.176-0.001-0.001-0.001-0.002-0.002-0.002l-0.021-0.020c-0.007-0.006-0.013-0.013-0.020-0.019l-3.219-3.236c-0.006-0.006-0.012-0.013-0.019-0.020l-0.020-0.021c-0.001-0.001-0.001-0.001-0.002-0.002-0.873-0.919-0.952-2.353-0.175-3.363l3.108-4.038c0.948 0.256 1.863 0.392 2.68 0.392 0 0 0 0 0.001 0 0.243 0 0.474-0.012 0.692-0.036l4.082 4.103c0.296 0.297 0.684 0.446 1.073 0.446s0.777-0.149 1.073-0.446c0.592-0.595 0.592-1.562 0-2.157l-4.159-4.181c-0.287-0.288-0.668-0.447-1.073-0.447s-0.786 0.159-1.073 0.447c-0.287 0.288-0.445 0.671-0.445 1.079 0 0.054 0.003 0.108 0.009 0.161-0.059 0.002-0.118 0.003-0.179 0.003 0 0-0 0 0 0-0.612 0-1.289-0.087-1.998-0.251l1.72-2.235c0.45-0.585 1.129-0.947 1.863-0.994s1.453 0.226 1.973 0.749l4.843 4.869c0.52 0.523 0.791 1.245 0.745 1.983s-0.407 1.42-0.988 1.872l-1.652 1.285c-0.223 0.174-0.264 0.497-0.092 0.721s0.494 0.266 0.717 0.092l1.652-1.285c0.814-0.633 1.318-1.588 1.383-2.62s-0.314-2.044-1.042-2.775zM15.817 4.295c-0.163 0-0.317-0.064-0.433-0.18s-0.179-0.271-0.179-0.435 0.064-0.319 0.179-0.435c0.116-0.116 0.269-0.18 0.433-0.18 0.025 0 0.050 0.002 0.075 0.005-0.058 0.367-0.002 0.764 0.162 1.177-0.074 0.031-0.154 0.048-0.237 0.048zM19.775 17.586l2.591 2.605-2.326 2.339c-0.016 0.016-0.041 0.023-0.063 0.018-0.365-0.087-0.757 0.024-1.023 0.291l-1.696 1.705-1.836 0.969c-0.174 0.092-0.313 0.233-0.404 0.408l-0.889 1.729-1.396 0.677c-0.162 0.079-0.298 0.201-0.394 0.354l-1.249 2.005-2.012 0.259 0.257-2.022 1.994-1.256c0.152-0.096 0.274-0.233 0.352-0.396l0.674-1.404 1.72-0.894c0.174-0.091 0.315-0.231 0.406-0.406l0.964-1.846 1.695-1.704c0.266-0.267 0.377-0.661 0.29-1.028-0.005-0.023 0.001-0.047 0.018-0.063l2.326-2.339zM28.43 8.586l3.524 3.542c0.193 0.194 0.193 0.509 0 0.703-0.093 0.094-0.218 0.146-0.35 0.146s-0.256-0.052-0.35-0.146l-3.646-3.665c0.339-0.147 0.615-0.341 0.822-0.581zM27.095 7.948c0.093-0.094 0.218-0.146 0.35-0.146 0.088 0 0.171 0.023 0.245 0.066-0.144 0.192-0.397 0.344-0.739 0.446-0-0.005-0.001-0.010-0.001-0.015 0-0.133 0.051-0.258 0.145-0.352zM24.67 5.349l-1.974 2.566c-0.401-0.131-0.807-0.284-1.213-0.459-0.774-0.334-1.494-0.722-2.127-1.144l-0.34-3.599c-0.013-0.134-0.037-0.265-0.069-0.393 0.008 0 0.015-0 0.022-0-0 0 0 0 0 0 1.247 0 2.766 0.358 4.275 1.009 0.829 0.358 1.597 0.778 2.263 1.235-0.315 0.213-0.598 0.477-0.836 0.786z"></path>
</svg>
