<!-- Generated by IcoMoon.io -->
<svg version="1.1" xmlns="http://www.w3.org/2000/svg" width="23" height="32" viewBox="0 0 23 32">
<title>location</title>
<path d="M11.714 0c-6.459 0-11.714 5.285-11.714 11.781 0 1.694 0.345 3.312 1.024 4.809 2.929 6.445 8.544 13.25 10.196 15.182 0.124 0.144 0.304 0.228 0.494 0.228s0.37-0.083 0.494-0.228c1.651-1.932 7.266-8.736 10.196-15.182 0.68-1.497 1.024-3.114 1.024-4.809-0.001-6.496-5.256-11.781-11.715-11.781zM11.714 17.9c-3.355 0-6.085-2.745-6.085-6.12s2.73-6.12 6.085-6.12c3.355 0 6.085 2.745 6.085 6.12s-2.729 6.12-6.085 6.12z"></path>
</svg>
