<!-- Generated by IcoMoon.io -->
<svg version="1.1" xmlns="http://www.w3.org/2000/svg" width="251" height="32" viewBox="0 0 251 32">
<title>logo</title>
<path d="M251.424 14.722h-251.424v2.574h251.424v-2.574z"></path>
<path d="M197.305 18.483h13.163v7.614h6.32v4.85h-25.843v-4.854h6.356v-7.61h0.004zM245.056 30.951h-13.154v-7.614h-6.312v-4.845h25.839v4.845h-6.368v7.614h-0.005zM163.342 18.474h15.335l4.037 7.65h5.762v4.814h-28.046v-4.814h6.803l-3.896-7.65h0.004zM144.612 18.474h7.938l-3.9 7.645h5.079v4.81h-17.054v-4.81h3.896l4.042-7.65v0.004zM112.378 18.474h15.477l3.945 7.65h4.091v4.801h-25.976v-4.814h6.458l-3.989-7.65-0.005 0.013zM94.238 18.474h7.885l-3.989 7.65h4.729v4.796h-18.783v-4.814h6.165l3.989-7.65 0.005 0.018zM71.506 18.451c-0.696 5.103-3.594 8.864-7.091 8.864-3.328 0-6.205-3.761-6.861-8.864h-13.921c1.551 7.792 10.344 13.544 20.795 13.549 11.080 0 19.997-5.743 21.495-13.535l-14.417-0.013zM41.165 22.363h-9.697c-1.666 2.974-4.778 4.925-9.657 4.921-3.484 0-6.271-3.761-6.967-8.864h-14.843c1.498 7.734 10.194 13.54 21.114 13.544 9.059 0 16.78-3.867 20.050-9.619v0.018zM57.736 13.864h-13.939c1.285-8.001 10.242-13.695 20.857-13.691 11.306 0 20.259 5.69 21.597 13.7h-14.524c-0.642-5.21-3.546-9.032-7.091-9.032-3.382 0-6.271 3.818-6.918 9.032l0.018-0.009zM104.569 13.864h-7.876l6.471-12.446h15.92l6.382 12.468h-15.552l-2.588-5.187-2.739 5.183-0.018-0.018zM155.094 13.864h-7.951l6.914-12.446h15.446l6.555 12.468h-15.157l-2.894-5.681-2.916 5.663 0.004-0.004zM210.437 13.864h-13.168v-7.61h-6.316v-4.845h25.834v4.845h-6.355v7.619l0.004-0.009zM231.95 1.418h13.141v7.619h6.325v4.845h-25.825v-4.85h6.355v-7.61l0.005-0.004zM31.179 9.801h11.811v-9.801h-10.078v2.498c-3.711-1.593-7.704-2.422-11.74-2.436-10.77-0.004-19.842 5.81-21.172 13.771h14.896c0.647-5.21 3.594-9.032 6.972-9.032 4.241 0.004 7.45 2 9.325 5.005l-0.013-0.004z"></path>
</svg>
