<!-- Generated by IcoMoon.io -->
<svg version="1.1" xmlns="http://www.w3.org/2000/svg" width="45" height="32" viewBox="0 0 45 32">
<title>money</title>
<path d="M37.356 0h-35.125c-1.23 0-2.231 1.007-2.231 2.244v17.684c0 1.238 1.001 2.244 2.231 2.244h1.346c0.35 0 0.634-0.285 0.634-0.637s-0.284-0.637-0.634-0.637h-1.346c-0.532 0-0.964-0.435-0.964-0.97v-17.684c0-0.535 0.433-0.97 0.964-0.97h35.125c0.532 0 0.964 0.435 0.964 0.97v6.195c0 0.352 0.284 0.637 0.634 0.637s0.634-0.285 0.634-0.637v-6.195c0-1.238-1.001-2.244-2.231-2.244z"></path>
<path d="M37.084 4.808c-1.011-0.448-1.807-1.257-2.242-2.278-0.185-0.435-0.611-0.715-1.083-0.715h-27.929c-0.473 0-0.898 0.281-1.084 0.715-0.435 1.021-1.232 1.831-2.242 2.278-0.425 0.189-0.7 0.614-0.7 1.085v10.387c0 0.471 0.275 0.897 0.7 1.085 0.246 0.109 0.484 0.242 0.706 0.396 0.11 0.076 0.235 0.112 0.358 0.112 0.202 0 0.4-0.097 0.523-0.277 0.198-0.29 0.125-0.687-0.163-0.886-0.27-0.187-0.558-0.35-0.857-0.487v-10.275c1.26-0.575 2.256-1.587 2.815-2.86h27.816c0.559 1.273 1.555 2.286 2.815 2.86v2.495c0 0.352 0.284 0.637 0.634 0.637s0.634-0.285 0.634-0.637v-2.551c0-0.471-0.275-0.897-0.7-1.085z"></path>
<path d="M26.316 8.206c-1.137-2.601-3.697-4.282-6.521-4.282-2.822 0-5.381 1.679-6.519 4.277-0.141 0.322 0.004 0.698 0.324 0.84s0.694-0.004 0.835-0.326c0.936-2.136 3.039-3.517 5.36-3.517 2.322 0 4.426 1.382 5.361 3.52 0.104 0.239 0.337 0.381 0.58 0.381 0.085 0 0.172-0.017 0.255-0.054 0.32-0.142 0.466-0.518 0.325-0.84z"></path>
<path d="M42.29 9.827h-22.072v-1.626c0.819 0.059 1.123 0.435 1.404 0.435 0.351 0 0.515-0.447 0.515-0.671 0-0.577-1.123-0.824-1.918-0.847v-0.318c0-0.141-0.175-0.271-0.351-0.271-0.199 0-0.339 0.129-0.339 0.271v0.341c-1.111 0.118-2.222 0.706-2.222 2.189 0 0.181 0.018 0.345 0.049 0.497h-10.19c-1.23 0-2.231 1.007-2.231 2.244v17.684c0 1.238 1.001 2.244 2.231 2.244h35.125c1.23 0 2.231-1.007 2.231-2.244v-17.684c0-1.238-1.001-2.244-2.231-2.244zM19.598 8.224v1.603h-0.917c-0.13-0.157-0.206-0.353-0.206-0.614 0-0.612 0.468-0.906 1.123-0.988zM42.29 30.725h-35.125c-0.532 0-0.964-0.435-0.964-0.97v-17.684c0-0.535 0.432-0.97 0.964-0.97h35.125c0.532 0 0.964 0.435 0.964 0.97v17.684c0 0.535-0.432 0.97-0.964 0.97z"></path>
<path d="M42.019 14.635c-1.011-0.448-1.807-1.257-2.242-2.278-0.185-0.435-0.611-0.715-1.083-0.715h-27.929c-0.473 0-0.898 0.281-1.084 0.715-0.435 1.021-1.232 1.83-2.242 2.278-0.425 0.189-0.7 0.614-0.7 1.085v10.387c0 0.471 0.275 0.897 0.7 1.085 1.011 0.448 1.807 1.257 2.242 2.278 0.185 0.435 0.611 0.715 1.083 0.715h27.929c0.473 0 0.898-0.281 1.084-0.715 0.435-1.021 1.232-1.831 2.242-2.278 0.425-0.189 0.7-0.614 0.7-1.085v-10.387c0-0.471-0.275-0.897-0.7-1.085zM41.452 26.051c-1.26 0.575-2.256 1.587-2.815 2.86h-27.816c-0.559-1.273-1.555-2.286-2.815-2.86v-10.275c1.26-0.575 2.256-1.587 2.815-2.86h27.816c0.559 1.273 1.555 2.286 2.815 2.86v10.275z"></path>
<path d="M24.727 13.751c-3.926 0-7.121 3.213-7.121 7.163s3.194 7.163 7.121 7.163c3.927 0 7.121-3.213 7.121-7.163s-3.194-7.163-7.121-7.163zM24.727 26.802c-3.228 0-5.854-2.641-5.854-5.888s2.626-5.888 5.854-5.888 5.854 2.641 5.854 5.888c0 3.247-2.626 5.888-5.854 5.888z"></path>
<path d="M25.137 20.149v-2.389c0.819 0.059 1.123 0.435 1.404 0.435 0.351 0 0.515-0.447 0.515-0.671 0-0.576-1.123-0.824-1.918-0.847v-0.318c0-0.141-0.175-0.271-0.351-0.271-0.199 0-0.339 0.129-0.339 0.271v0.341c-1.111 0.118-2.222 0.706-2.222 2.188 0 1.506 1.17 1.93 2.222 2.306v2.765c-1.193-0.094-1.509-0.918-1.895-0.918-0.292 0-0.538 0.388-0.538 0.671 0 0.577 0.983 1.365 2.433 1.388v0.365c0 0.141 0.14 0.271 0.339 0.271 0.175 0 0.351-0.129 0.351-0.271v-0.4c1.263-0.177 2.129-0.977 2.129-2.424 0-1.6-1.111-2.118-2.129-2.495zM24.517 19.925c-0.62-0.235-1.123-0.482-1.123-1.153 0-0.612 0.468-0.906 1.123-0.988v2.141zM25.067 23.937v-2.483c0.573 0.247 1.029 0.576 1.029 1.318 0 0.671-0.398 1.047-1.029 1.165z"></path>
</svg>
