<!-- Generated by IcoMoon.io -->
<svg version="1.1" xmlns="http://www.w3.org/2000/svg" width="27" height="32" viewBox="0 0 27 32">
<title>person</title>
<path d="M16.825 11.25c0.343 0 0.622-0.28 0.622-0.625s-0.279-0.625-0.622-0.625c-0.344 0-0.622 0.28-0.622 0.625s0.278 0.625 0.622 0.625z"></path>
<path d="M10.605 11.25c0.343 0 0.622-0.28 0.622-0.625s-0.279-0.625-0.622-0.625c-0.344 0-0.622 0.28-0.622 0.625s0.278 0.625 0.622 0.625z"></path>
<path d="M12.052 15.546c0.522 0.247 1.081 0.373 1.662 0.373 0.568 0 1.117-0.12 1.63-0.358 0.312-0.144 0.449-0.515 0.305-0.829s-0.513-0.451-0.825-0.307c-0.35 0.161-0.723 0.243-1.111 0.243-0.396 0-0.777-0.085-1.132-0.253-0.311-0.147-0.681-0.013-0.828 0.299s-0.013 0.685 0.297 0.832z"></path>
<path d="M27.429 25.361c0-3.437-3.894-6.132-7.232-6.26l-1.703-1.538c2.074-1.521 3.333-3.965 3.333-6.563v-4.125c0-3.791-3.078-6.875-6.862-6.875h-2.487c-3.779 0-6.818 3.073-6.818 6.875v4.125c0 2.593 1.242 5.033 3.289 6.551l-1.716 1.55c-3.331 0.127-7.232 2.816-7.232 6.26v6.014c0 0.345 0.278 0.625 0.622 0.625h26.185c0.343 0 0.622-0.28 0.622-0.625v-6.014zM12.337 27.875h2.751l0.652 2.875h-4.074l0.671-2.875zM15.142 26.625h-2.844l-0.477-1.494 1.894-0.952 1.935 0.973-0.508 1.473zM13.714 22.301l-2.161-3.474c0.702 0.196 1.431 0.298 2.167 0.298 0.729 0 1.453-0.1 2.151-0.293l-2.158 3.469zM14.604 23.229l2.986-4.802 1.61 1.454-2.049 4.628-2.547-1.28zM12.477 1.25h2.487c3.098 0 5.618 2.523 5.618 5.625v0.517l-1.168-1.69c-0.106-0.153-0.274-0.251-0.459-0.266s-0.367 0.053-0.496 0.186c-1.264 1.299-2.728 1.879-4.745 1.879s-3.481-0.58-4.746-1.879c-0.13-0.134-0.314-0.202-0.499-0.186s-0.354 0.115-0.459 0.27l-1.108 1.632v-0.463c0-3.102 2.501-5.625 5.575-5.625zM6.902 11v-1.445l1.727-2.544c1.384 1.183 3.019 1.738 5.085 1.738 2.069 0 3.705-0.557 5.089-1.742l1.779 2.575v1.417c0 3.743-3.044 6.875-6.862 6.875-3.806 0-6.818-3.122-6.818-6.875zM9.839 18.428l2.986 4.801-2.547 1.28-2.049-4.628 1.61-1.454zM1.244 25.361c0-2.575 3.114-4.798 5.835-5l2.327 5.254c0.069 0.156 0.198 0.277 0.358 0.334s0.336 0.047 0.488-0.029l0.443-0.223 0.505 1.579-0.811 3.474h-9.145v-5.389zM26.185 30.75h-9.169l-0.786-3.465 0.541-1.57 0.406 0.204c0.153 0.077 0.33 0.086 0.488 0.029 0.16-0.058 0.289-0.178 0.358-0.334l2.326-5.254c2.721 0.202 5.835 2.425 5.835 5v5.39z"></path>
<path d="M21.799 27.875h-2.487c-0.343 0-0.622 0.28-0.622 0.625s0.278 0.625 0.622 0.625h2.487c0.343 0 0.622-0.28 0.622-0.625s-0.278-0.625-0.622-0.625z"></path>
<path d="M24.251 27.875c0.343 0 0.622 0.28 0.622 0.625s-0.279 0.625-0.622 0.625c-0.343 0-0.622-0.28-0.622-0.625s0.279-0.625 0.622-0.625z"></path>
</svg>
