<!-- Generated by IcoMoon.io -->
<svg version="1.1" xmlns="http://www.w3.org/2000/svg" width="26" height="32" viewBox="0 0 26 32">
<title>security</title>
<path d="M12.946 18.25c0.34 0 0.617-0.28 0.617-0.625s-0.276-0.625-0.617-0.625c-0.341 0-0.617 0.28-0.617 0.625s0.276 0.625 0.617 0.625z"></path>
<path d="M12.594 31.884c0.107 0.078 0.233 0.117 0.358 0.117s0.251-0.039 0.358-0.116c6.284-4.549 12.594-6.544 12.594-15.904v-11.587c0-0.325-0.246-0.596-0.566-0.623l-1.603-0.136c-3.675-0.31-7.291-1.534-10.457-3.54-0.2-0.127-0.454-0.127-0.654 0-3.166 2.005-6.782 3.229-10.457 3.54l-1.603 0.135c-0.32 0.027-0.565 0.298-0.565 0.623v11.587c0 9.623 7.196 11.996 12.594 15.904zM1.234 4.968l1.037-0.088c3.744-0.316 7.429-1.532 10.681-3.522 3.253 1.99 6.937 3.206 10.681 3.522l1.038 0.088v11.012c0 8.439-5.549 10.25-11.72 14.63-5.415-3.809-11.718-5.971-11.718-14.63v-11.012z"></path>
<path d="M12.594 27.341c0.224 0.155 0.506 0.144 0.719-0.016 5.584-3.916 8.892-5.205 8.892-11.344v-8.197c0-0.309-0.223-0.572-0.525-0.618-2.952-0.449-5.793-1.38-8.444-2.767-0.191-0.1-0.418-0.087-0.593 0.014-2.643 1.379-5.475 2.305-8.416 2.753-0.302 0.046-0.525 0.309-0.525 0.618v8.197c0 6.197 3.624 7.717 8.892 11.36zM4.936 8.316c2.565-0.44 5.046-1.231 7.395-2.355v9.164c0 0.345 0.276 0.625 0.617 0.625s0.617-0.28 0.617-0.625v-9.169c2.353 1.127 4.838 1.92 7.408 2.361v7.665c0 5.081-2.349 6.188-7.408 9.655v-5.511c0-0.345-0.276-0.625-0.617-0.625s-0.617 0.28-0.617 0.625v5.529c-4.727-3.189-7.395-4.551-7.395-9.673v-7.665z"></path>
</svg>
