<svg width="15" height="9" viewBox="0 0 15 9" fill="none" xmlns="http://www.w3.org/2000/svg">
<path opacity="0.3" d="M2.0365 7.92406C2.03731 6.32647 2.64662 4.89044 3.63717 3.84239C4.62895 2.79619 5.98851 2.1523 7.50041 2.15187C9.0123 2.1523 10.3715 2.79619 11.3636 3.84239C12.3538 4.88992 12.9631 6.32647 12.9635 7.92406C12.9635 8.51802 13.4197 9 13.9818 9C14.5442 9 15 8.51802 15 7.92406C14.9996 3.54668 11.6426 0.000429817 7.50041 -4.80811e-07C5.43255 -0.000861076 3.55124 0.888295 2.19738 2.32058C0.841478 3.75076 -0.000407151 5.73858 1.4772e-07 7.92406C1.4772e-07 8.51802 0.456175 9 1.01825 9C1.58073 9 2.0365 8.51802 2.0365 7.92406Z" fill="#376BC7"/>
</svg>
