<svg width="34" height="42" viewBox="0 0 34 42" fill="none" xmlns="http://www.w3.org/2000/svg">
<path d="M16.9915 23.9533C17.4383 23.9533 17.801 23.5857 17.801 23.133C17.801 22.6802 17.4383 22.3126 16.9915 22.3126C16.5446 22.3126 16.1819 22.6802 16.1819 23.133C16.1819 23.5857 16.5446 23.9533 16.9915 23.9533Z" fill="#376BC7"/>
<path d="M16.5295 41.8473C16.6702 41.9492 16.8349 42.0002 17 42.0002C17.1651 42.0002 17.3298 41.9492 17.4705 41.8473C25.7185 35.8773 34 33.2577 34 20.9739V5.76599C34 5.33949 33.6771 4.98413 33.2578 4.94856L31.1537 4.7704C26.3298 4.36313 21.5839 2.75646 17.4291 0.124729C17.1666 -0.0415765 16.8334 -0.0415765 16.5709 0.124729C12.4158 2.75646 7.66992 4.36313 2.84598 4.77072L0.742169 4.94856C0.322545 4.98413 0 5.33949 0 5.76599V20.9739C0 33.6041 9.44455 36.7191 16.5295 41.8473ZM1.61905 6.52062L2.98069 6.40558C7.89507 5.9903 12.7307 4.39453 17 1.78298C21.269 4.39453 26.1049 5.9903 31.019 6.40558L32.381 6.52062V20.9739C32.381 32.0503 25.0975 34.427 16.9987 40.1759C9.89105 35.1765 1.61905 32.3394 1.61905 20.9739V6.52062Z" fill="#376BC7"/>
<path d="M16.5302 35.8847C16.8243 36.0881 17.1946 36.0734 17.4738 35.8632C24.8022 30.7231 29.1449 29.0318 29.1449 20.9748V10.2156C29.1449 9.80957 28.8518 9.46446 28.4555 9.40422C24.5812 8.8143 20.8527 7.59248 17.3733 5.77273C17.1228 5.64167 16.8246 5.65833 16.5951 5.79099C13.1255 7.60113 9.40896 8.81686 5.54854 9.40422C5.15232 9.46446 4.85918 9.80925 4.85918 10.2156V20.9748C4.85918 29.1078 9.61545 31.1038 16.5302 35.8847ZM6.47823 10.9151C9.84503 10.338 13.1008 9.30008 16.1843 7.82448V19.8517C16.1843 20.3048 16.5467 20.672 16.9938 20.672C17.441 20.672 17.8033 20.3048 17.8033 19.8517V7.81679C20.8912 9.29591 24.153 10.3367 27.5259 10.9151V20.9748C27.5259 27.6431 24.4433 29.0969 17.8033 33.6474V26.4142C17.8033 25.9611 17.441 25.5939 16.9938 25.5939C16.5467 25.5939 16.1843 25.9611 16.1843 26.4142V33.6711C9.98037 29.4862 6.47823 27.6979 6.47823 20.9748V10.9151Z" fill="#376BC7"/>
</svg>
