<svg width="16" height="16" viewBox="0 0 16 16" fill="none" xmlns="http://www.w3.org/2000/svg">
<path opacity="0.3" d="M1.09132 1.09129V2.18258H13.8174V13.8174H2.18263V1.09129H1.09132H0V14.9087C0 15.196 0.116545 15.477 0.31953 15.6804C0.522951 15.8835 0.804082 16 1.09132 16H14.9087C15.1959 16 15.477 15.8835 15.68 15.6804C15.8834 15.477 16 15.196 16 14.9087V1.09129C16 0.803625 15.8834 0.522422 15.68 0.31953C15.477 0.116113 15.1959 -6.35782e-08 14.9087 -6.35782e-08H1.09132C0.804082 -6.35782e-08 0.522951 0.116113 0.31953 0.31953C0.116545 0.522422 0 0.803625 0 1.09129H1.09132Z" fill="#376BC7"/>
</svg>
