<!-- Generated by IcoMoon.io -->
<svg version="1.1" xmlns="http://www.w3.org/2000/svg" width="32" height="32" viewBox="0 0 32 32">
<title>steering-wheel</title>
<path d="M16 0c-8.823 0-16 7.178-16 16s7.177 16 16 16c8.823 0 16-7.178 16-16s-7.177-16-16-16zM16 30.968c-8.253 0-14.968-6.714-14.968-14.968s6.715-14.968 14.968-14.968c8.253 0 14.968 6.714 14.968 14.968s-6.715 14.968-14.968 14.968z"></path>
<path d="M27.715 14.085l0.002-0.002c-0.001-0.001-0.002-0.002-0.003-0.003-0.921-5.636-5.822-9.951-11.714-9.951s-10.793 4.316-11.713 9.952c-0.001 0.001-0.002 0.002-0.003 0.003l0.002 0.002c-0.102 0.623-0.157 1.263-0.157 1.915 0 6.546 5.325 11.871 11.871 11.871s11.871-5.325 11.871-11.871c0-0.652-0.055-1.291-0.156-1.915zM16 5.161c4.909 0 9.061 3.284 10.389 7.768-2.921-2.271-6.758-3.639-10.389-3.639s-7.467 1.368-10.389 3.64c1.328-4.485 5.48-7.769 10.389-7.769zM5.826 19.702c0.72-0.634 2.635-2.153 4.497-2.153 1.881 0 3.097 1.418 3.097 3.613 0 2.097-1.029 3.97-1.592 4.84-2.779-1.164-4.963-3.457-6.001-6.299zM20.172 26.002c-0.564-0.868-1.591-2.736-1.591-4.84 0-2.195 1.215-3.613 3.097-3.613 1.856 0 3.775 1.519 4.496 2.154-1.038 2.842-3.222 5.135-6.002 6.299zM26.504 18.627c-0.985-0.807-2.876-2.11-4.826-2.11-2.431 0-4.129 1.91-4.129 4.645 0 2.221 0.981 4.163 1.626 5.201-1.004 0.308-2.070 0.476-3.175 0.476s-2.171-0.168-3.175-0.476c0.646-1.038 1.626-2.98 1.626-5.201 0-2.735-1.698-4.645-4.129-4.645-1.95 0-3.841 1.303-4.826 2.11-0.211-0.843-0.335-1.719-0.335-2.627 0-0.483 0.043-0.954 0.104-1.42 2.824-2.631 6.9-4.257 10.734-4.257s7.911 1.626 10.734 4.257c0.061 0.466 0.104 0.938 0.104 1.42 0 0.907-0.124 1.784-0.335 2.627z"></path>
<path d="M16 11.871c-1.423 0-2.581 1.158-2.581 2.581s1.158 2.581 2.581 2.581c1.423 0 2.581-1.158 2.581-2.581s-1.158-2.581-2.581-2.581zM16 16c-0.854 0-1.548-0.695-1.548-1.548s0.695-1.548 1.548-1.548c0.854 0 1.548 0.695 1.548 1.548s-0.695 1.548-1.548 1.548z"></path>
<path d="M31.004 7.418l0.958-0.383c-1.075-2.69-4.288-5.903-6.442-6.98l-0.462 0.923c1.948 0.974 4.969 4 5.945 6.44z"></path>
<path d="M12.387 13.935h-1.032v1.032h1.032v-1.032z"></path>
<path d="M20.645 13.935h-1.032v1.032h1.032v-1.032z"></path>
<path d="M15.484 28.903h-1.032v1.032h1.032v-1.032z"></path>
<path d="M17.548 28.903h-1.032v1.032h1.032v-1.032z"></path>
<path d="M0.996 24.582l-0.958 0.383c1.076 2.689 4.289 5.903 6.442 6.98l0.462-0.923c-1.948-0.973-4.969-3.999-5.945-6.44z"></path>
</svg>
