<!-- Generated by IcoMoon.io -->
<svg version="1.1" xmlns="http://www.w3.org/2000/svg" width="32" height="32" viewBox="0 0 32 32">
<title>trade-in</title>
<path d="M15.378 6.875c0.345 0 0.625-0.28 0.625-0.625v-2.5c0-0.345-0.28-0.625-0.625-0.625s-0.625 0.28-0.625 0.625v2.5c0 0.345 0.28 0.625 0.625 0.625z"></path>
<path d="M8.501 18.75c1.034 0 1.875-0.841 1.875-1.875s-0.841-1.875-1.875-1.875-1.875 0.841-1.875 1.875c0 1.034 0.841 1.875 1.875 1.875zM8.501 16.25c0.345 0 0.625 0.28 0.625 0.625s-0.28 0.625-0.625 0.625c-0.345 0-0.625-0.28-0.625-0.625s0.281-0.625 0.625-0.625z"></path>
<path d="M11.627 12.5h5.001c0.345 0 0.625-0.28 0.625-0.625s-0.28-0.625-0.625-0.625h-5.001c-0.345 0-0.625 0.28-0.625 0.625s0.28 0.625 0.625 0.625z"></path>
<path d="M19.128 11.25c0.345 0 0.625 0.28 0.625 0.625s-0.28 0.625-0.625 0.625c-0.345 0-0.625-0.28-0.625-0.625s0.28-0.625 0.625-0.625z"></path>
<path d="M1.954 22.875h1.862c0.646 1.427 1.609 2.704 2.81 3.726v3.445c0 1.077 0.877 1.954 1.954 1.954h1.093c1.077 0 1.954-0.876 1.954-1.954v-1.088c0.617 0.11 1.244 0.166 1.875 0.166h3.751c0.631 0 1.259-0.057 1.875-0.166v1.088c0 1.077 0.877 1.954 1.954 1.954h1.093c1.077 0 1.954-0.876 1.954-1.954v-3.447c2.043-1.757 3.457-4.621 3.711-7.545 0.011-0.12 0.018-0.242 0.024-0.364 0.974-0.122 2.133-0.521 2.854-1.241 1.309-1.31 1.604-3.221 0.937-4.797-0.22-0.521-0.536-0.989-0.937-1.391-0.244-0.244-0.64-0.244-0.884 0s-0.244 0.64 0 0.884c0.287 0.287 0.512 0.621 0.67 0.994 0.476 1.124 0.266 2.49-0.669 3.426-0.407 0.406-1.205 0.743-1.984 0.865-0.337-4.545-3.763-8.452-8.357-9.595 0.569-0.828 0.885-1.817 0.885-2.836 0-2.757-2.244-5-5.001-5s-5.001 2.243-5.001 5c0 0.981 0.294 1.938 0.827 2.749-0.884 0.194-1.734 0.499-2.541 0.914-0.717-1.43-2.178-2.375-3.81-2.412-0.189-0.006-0.376 0.068-0.513 0.201s-0.215 0.317-0.215 0.507v6.161c-0.526 0.984-0.89 2.034-1.086 3.13h-1.086c-1.078 0-1.954 0.876-1.954 1.954v2.717c0 1.077 0.877 1.954 1.954 1.954zM15.378 1.25c2.068 0 3.751 1.682 3.751 3.75 0 2.075-1.683 3.75-3.751 3.75-2.040 0-3.751-1.645-3.751-3.75 0-2.068 1.683-3.75 3.751-3.75zM1.25 18.204c0-0.388 0.316-0.704 0.704-0.704h1.557c0.35 0 0.649-0.262 0.695-0.61 0.153-1.159 0.516-2.265 1.081-3.288 0.058-0.104 0.089-0.221 0.089-0.341v-5.698c1.089 0.222 1.998 1.014 2.349 2.099 0.067 0.203 0.219 0.362 0.418 0.437s0.417 0.055 0.6-0.053c1.063-0.628 2.218-1.032 3.437-1.203 0.898 0.748 2.022 1.157 3.198 1.157 1.142 0 2.24-0.388 3.125-1.097 4.622 0.813 8.095 4.724 8.125 9.207 0.002 0.281-0.009 0.563-0.033 0.836-0.234 2.695-1.558 5.32-3.46 6.855-0.162 0.134-0.256 0.331-0.256 0.541v3.704c0 0.388-0.316 0.704-0.704 0.704h-1.093c-0.388 0-0.704-0.316-0.704-0.704v-3.111c0-0.345-0.28-0.625-0.625-0.625s-0.625 0.28-0.625 0.625v0.752c-0.614 0.124-1.243 0.188-1.875 0.188h-3.751c-0.632 0-1.261-0.064-1.875-0.188v-0.752c0-0.345-0.28-0.625-0.625-0.625s-0.625 0.28-0.625 0.625v3.111c0 0.388-0.316 0.704-0.704 0.704h-1.093c-0.388 0-0.704-0.316-0.704-0.704v-3.704c0-0.215-0.096-0.415-0.261-0.544-1.228-0.992-2.193-2.285-2.793-3.744-0.11-0.26-0.363-0.429-0.646-0.429h-2.223c-0.388 0-0.704-0.316-0.704-0.704v-2.717z"></path>
</svg>
