<svg width="90" height="7" viewBox="0 0 90 7" fill="none" xmlns="http://www.w3.org/2000/svg">
<path d="M6.55599 4.97217C6.36538 4.97055 6.2507 4.93405 6.13432 4.87241C6.03361 4.81766 5.92913 4.73331 5.81337 4.60312C5.61061 4.37764 5.39052 4.00776 5.15993 3.56206C4.80727 2.89532 4.43821 2.06435 3.80882 1.32786C3.49325 0.961235 3.10184 0.620562 2.62003 0.378851C2.13929 0.135923 1.57632 0.000871471 0.962084 0.00208814C0.430667 0.00208814 0 0.45631 0 1.01598C0 1.57605 0.430667 2.02987 0.962084 2.02987C1.27522 2.03068 1.50747 2.08503 1.70543 2.16898C1.87833 2.2432 2.0285 2.34336 2.17597 2.47638C2.43288 2.70714 2.6764 3.05106 2.91346 3.47162C3.27486 4.10063 3.597 4.87971 4.10102 5.59957C4.35555 5.95767 4.66792 6.30807 5.08311 6.57452C5.49577 6.8426 6.01106 7.0032 6.55599 6.99995C7.0874 6.99995 7.51807 6.54613 7.51807 5.98606C7.51807 5.42599 7.0874 4.97217 6.55599 4.97217Z" fill="#FBF659"/>
<path d="M17.5439 4.96997C17.353 4.96835 17.2383 4.93185 17.1221 4.8702C17.0215 4.81545 16.917 4.73109 16.8012 4.6009C16.5984 4.3754 16.3785 4.0055 16.1477 3.55977C15.7951 2.893 15.426 2.06238 14.7967 1.32544C14.4812 0.959201 14.0899 0.618509 13.608 0.376783C13.1273 0.133841 12.5643 -0.00120859 11.9501 8.15083e-06C11.4187 8.15083e-06 10.988 0.454248 10.988 1.01395C10.988 1.57405 11.4187 2.0279 11.9501 2.0279C12.2632 2.02871 12.4955 2.08306 12.6933 2.16702C12.8663 2.24124 13.0163 2.34141 13.1638 2.47444C13.4207 2.70522 13.6641 3.04915 13.9012 3.46973C14.2626 4.09879 14.5847 4.87791 15.0888 5.5974C15.3433 5.95553 15.6557 6.30595 16.0709 6.57242C16.4836 6.84051 16.9991 7.00112 17.5439 6.99787C18.0754 6.99787 18.506 6.54403 18.506 5.98392C18.506 5.42382 18.0754 4.96997 17.5439 4.96997Z" fill="#FBF659"/>
<path d="M6.456 6.99789C6.93013 6.99992 7.3827 6.88068 7.76362 6.67059C8.09791 6.48767 8.37466 6.24473 8.60478 5.98516C9.00702 5.52766 9.28347 5.0215 9.5381 4.53683C9.91344 3.808 10.2476 3.12176 10.6265 2.69022C10.8152 2.47242 11.0043 2.31628 11.2205 2.20717C11.4376 2.09929 11.6902 2.02912 12.05 2.0279C12.5814 2.0279 13.012 1.57406 13.012 1.01395C13.012 0.454246 12.5814 5.18207e-06 12.05 5.18207e-06C11.5149 -0.00080598 11.0193 0.100584 10.5825 0.288368C10.1999 0.451817 9.86611 0.678535 9.58243 0.935674C9.08506 1.3879 8.73677 1.92002 8.44666 2.42984C8.01748 3.19639 7.69494 3.93414 7.36993 4.38311C7.21 4.60902 7.06192 4.75544 6.92951 4.8398C6.79436 4.92254 6.67473 4.96674 6.456 4.96999C5.92465 4.96999 5.49398 5.42383 5.49398 5.98394C5.49398 6.54405 5.92465 6.99789 6.456 6.99789Z" fill="#FBF659"/>
<path d="M17.4441 6.9979C17.9182 6.99953 18.3708 6.88069 18.7517 6.67019C19.0862 6.48768 19.3629 6.24474 19.5926 5.98476C19.9951 5.52767 20.2711 5.0211 20.5258 4.53643C20.901 3.808 21.2354 3.12135 21.6141 2.69022C21.8031 2.47242 21.992 2.31628 22.2079 2.20717C22.4253 2.09929 22.6778 2.02912 23.0376 2.0279V1.01679L22.9579 2.02466C22.9964 2.02791 23.0241 2.0279 23.0376 2.0279V1.01679L22.9579 2.02466C23.4875 2.0709 23.9527 1.65639 23.9966 1.09831C24.0409 0.54023 23.6476 0.0498818 23.118 0.00364543C23.0792 0.000400777 23.0515 1.53171e-06 23.0376 1.53171e-06C22.5027 -0.00040405 22.007 0.10058 21.5699 0.288365C21.1877 0.451409 20.8537 0.678533 20.5701 0.935672C20.0725 1.3879 19.7242 1.92002 19.4344 2.42984C19.0053 3.19598 18.6825 3.93414 18.3577 4.38271C18.1976 4.60903 18.0498 4.75544 17.917 4.8398C17.782 4.92254 17.6623 4.96675 17.4437 4.96999C16.9124 4.96999 16.4819 5.42425 16.4819 5.98435C16.4821 6.54406 16.9127 6.9979 17.4441 6.9979Z" fill="#FBF659"/>
<path d="M28.556 4.97217C28.3654 4.97055 28.2507 4.93405 28.1343 4.87241C28.0336 4.81766 27.9291 4.73331 27.8134 4.60312C27.6106 4.37764 27.3905 4.00776 27.1599 3.56206C26.8073 2.89532 26.4382 2.06435 25.8088 1.32786C25.4933 0.961235 25.1018 0.620562 24.62 0.378851C24.1393 0.135923 23.5763 0.000871471 22.9621 0.00208814C22.4307 0.00208814 22 0.45631 22 1.01598C22 1.57605 22.4307 2.02987 22.9621 2.02987C23.2752 2.03068 23.5075 2.08503 23.7054 2.16898C23.8783 2.2432 24.0285 2.34336 24.176 2.47638C24.4329 2.70714 24.6764 3.05106 24.9135 3.47162C25.2749 4.10063 25.597 4.87971 26.101 5.59957C26.3555 5.95767 26.6679 6.30807 27.0831 6.57452C27.4958 6.8426 28.0111 7.0032 28.556 6.99995C29.0874 6.99995 29.5181 6.54613 29.5181 5.98606C29.5181 5.42599 29.0874 4.97217 28.556 4.97217Z" fill="#FBF659"/>
<path d="M39.5439 4.96997C39.353 4.96835 39.2383 4.93185 39.1221 4.8702C39.0215 4.81545 38.917 4.73109 38.8012 4.6009C38.5984 4.3754 38.3785 4.0055 38.1477 3.55977C37.7951 2.893 37.426 2.06238 36.7967 1.32544C36.4812 0.959201 36.0899 0.618509 35.608 0.376783C35.1273 0.133841 34.5643 -0.00120859 33.9501 8.15083e-06C33.4187 8.15083e-06 32.988 0.454248 32.988 1.01395C32.988 1.57405 33.4187 2.0279 33.9501 2.0279C34.2632 2.02871 34.4955 2.08306 34.6933 2.16702C34.8663 2.24124 35.0163 2.34141 35.1638 2.47444C35.4207 2.70522 35.6641 3.04915 35.9012 3.46973C36.2626 4.09879 36.5847 4.87791 37.0888 5.5974C37.3433 5.95553 37.6557 6.30595 38.0709 6.57242C38.4836 6.84051 38.9991 7.00112 39.5439 6.99787C40.0754 6.99787 40.506 6.54403 40.506 5.98392C40.506 5.42382 40.0754 4.96997 39.5439 4.96997Z" fill="#FBF659"/>
<path d="M28.456 6.99789C28.9301 6.99992 29.3827 6.88068 29.7636 6.67059C30.0979 6.48767 30.3747 6.24473 30.6048 5.98516C31.007 5.52766 31.2835 5.0215 31.5381 4.53683C31.9134 3.808 32.2476 3.12176 32.6265 2.69022C32.8152 2.47242 33.0043 2.31628 33.2205 2.20717C33.4376 2.09929 33.6902 2.02912 34.05 2.0279C34.5814 2.0279 35.012 1.57406 35.012 1.01395C35.012 0.454246 34.5814 5.18207e-06 34.05 5.18207e-06C33.5149 -0.00080598 33.0193 0.100584 32.5825 0.288368C32.1999 0.451817 31.8661 0.678535 31.5824 0.935674C31.0851 1.3879 30.7368 1.92002 30.4467 2.42984C30.0175 3.19639 29.6949 3.93414 29.3699 4.38311C29.21 4.60902 29.0619 4.75544 28.9295 4.8398C28.7944 4.92254 28.6747 4.96674 28.456 4.96999C27.9247 4.96999 27.494 5.42383 27.494 5.98394C27.494 6.54405 27.9247 6.99789 28.456 6.99789Z" fill="#FBF659"/>
<path d="M39.4441 6.9979C39.9182 6.99953 40.3708 6.88069 40.7517 6.67019C41.0862 6.48768 41.3629 6.24474 41.5926 5.98476C41.9951 5.52767 42.2711 5.0211 42.5258 4.53643C42.901 3.808 43.2354 3.12135 43.6141 2.69022C43.8031 2.47242 43.992 2.31628 44.2079 2.20717C44.4253 2.09929 44.6778 2.02912 45.0376 2.0279V1.01679L44.9579 2.02466C44.9964 2.02791 45.0241 2.0279 45.0376 2.0279V1.01679L44.9579 2.02466C45.4875 2.0709 45.9527 1.65639 45.9966 1.09831C46.0409 0.54023 45.6476 0.0498818 45.118 0.00364543C45.0792 0.000400777 45.0515 1.53171e-06 45.0376 1.53171e-06C44.5027 -0.00040405 44.007 0.10058 43.5699 0.288365C43.1877 0.451409 42.8537 0.678533 42.5701 0.935672C42.0725 1.3879 41.7242 1.92002 41.4344 2.42984C41.0053 3.19598 40.6825 3.93414 40.3577 4.38271C40.1976 4.60903 40.0498 4.75544 39.917 4.8398C39.782 4.92254 39.6623 4.96675 39.4437 4.96999C38.9124 4.96999 38.4819 5.42425 38.4819 5.98435C38.4821 6.54406 38.9127 6.9979 39.4441 6.9979Z" fill="#FBF659"/>
<path d="M50.556 4.97217C50.3654 4.97055 50.2507 4.93405 50.1343 4.87241C50.0336 4.81766 49.9291 4.73331 49.8134 4.60312C49.6106 4.37764 49.3905 4.00776 49.1599 3.56206C48.8073 2.89532 48.4382 2.06435 47.8088 1.32786C47.4933 0.961235 47.1018 0.620562 46.62 0.378851C46.1393 0.135923 45.5763 0.000871471 44.9621 0.00208814C44.4307 0.00208814 44 0.45631 44 1.01598C44 1.57605 44.4307 2.02987 44.9621 2.02987C45.2752 2.03068 45.5075 2.08503 45.7054 2.16898C45.8783 2.2432 46.0285 2.34336 46.176 2.47638C46.4329 2.70714 46.6764 3.05106 46.9135 3.47162C47.2749 4.10063 47.597 4.87971 48.101 5.59957C48.3555 5.95767 48.6679 6.30807 49.0831 6.57452C49.4958 6.8426 50.0111 7.0032 50.556 6.99995C51.0874 6.99995 51.5181 6.54613 51.5181 5.98606C51.5181 5.42599 51.0874 4.97217 50.556 4.97217Z" fill="#FBF659"/>
<path d="M61.5439 4.96997C61.353 4.96835 61.2383 4.93185 61.1221 4.8702C61.0215 4.81545 60.917 4.73109 60.8012 4.6009C60.5984 4.3754 60.3785 4.0055 60.1477 3.55977C59.7951 2.893 59.426 2.06238 58.7967 1.32544C58.4812 0.959201 58.0899 0.618509 57.608 0.376783C57.1273 0.133841 56.5643 -0.00120859 55.9501 8.15083e-06C55.4187 8.15083e-06 54.988 0.454248 54.988 1.01395C54.988 1.57405 55.4187 2.0279 55.9501 2.0279C56.2632 2.02871 56.4955 2.08306 56.6933 2.16702C56.8663 2.24124 57.0163 2.34141 57.1638 2.47444C57.4207 2.70522 57.6641 3.04915 57.9012 3.46973C58.2626 4.09879 58.5847 4.87791 59.0888 5.5974C59.3433 5.95553 59.6557 6.30595 60.0709 6.57242C60.4836 6.84051 60.9991 7.00112 61.5439 6.99787C62.0754 6.99787 62.506 6.54403 62.506 5.98392C62.506 5.42382 62.0754 4.96997 61.5439 4.96997Z" fill="#FBF659"/>
<path d="M50.456 6.99789C50.9301 6.99992 51.3827 6.88068 51.7636 6.67059C52.0979 6.48767 52.3747 6.24473 52.6048 5.98516C53.007 5.52766 53.2835 5.0215 53.5381 4.53683C53.9134 3.808 54.2476 3.12176 54.6265 2.69022C54.8152 2.47242 55.0043 2.31628 55.2205 2.20717C55.4376 2.09929 55.6902 2.02912 56.05 2.0279C56.5814 2.0279 57.012 1.57406 57.012 1.01395C57.012 0.454246 56.5814 5.18207e-06 56.05 5.18207e-06C55.5149 -0.00080598 55.0193 0.100584 54.5825 0.288368C54.1999 0.451817 53.8661 0.678535 53.5824 0.935674C53.0851 1.3879 52.7368 1.92002 52.4467 2.42984C52.0175 3.19639 51.6949 3.93414 51.3699 4.38311C51.21 4.60902 51.0619 4.75544 50.9295 4.8398C50.7944 4.92254 50.6747 4.96674 50.456 4.96999C49.9247 4.96999 49.494 5.42383 49.494 5.98394C49.494 6.54405 49.9247 6.99789 50.456 6.99789Z" fill="#FBF659"/>
<path d="M61.4441 6.9979C61.9182 6.99953 62.3708 6.88069 62.7517 6.67019C63.0862 6.48768 63.3629 6.24474 63.5926 5.98476C63.9951 5.52767 64.271 5.0211 64.5258 4.53643C64.901 3.808 65.2354 3.12135 65.6141 2.69022C65.8031 2.47242 65.992 2.31628 66.2079 2.20717C66.4253 2.09929 66.6778 2.02912 67.0376 2.0279V1.01679L66.9579 2.02466C66.9964 2.02791 67.0241 2.0279 67.0376 2.0279V1.01679L66.9579 2.02466C67.4875 2.0709 67.9527 1.65639 67.9966 1.09831C68.0409 0.54023 67.6476 0.0498818 67.118 0.00364543C67.0792 0.000400777 67.0515 1.53171e-06 67.0376 1.53171e-06C66.5027 -0.00040405 66.007 0.10058 65.5699 0.288365C65.1877 0.451409 64.8537 0.678533 64.5701 0.935672C64.0725 1.3879 63.7242 1.92002 63.4344 2.42984C63.0053 3.19598 62.6825 3.93414 62.3577 4.38271C62.1976 4.60903 62.0498 4.75544 61.917 4.8398C61.782 4.92254 61.6623 4.96675 61.4437 4.96999C60.9124 4.96999 60.4819 5.42425 60.4819 5.98435C60.4821 6.54406 60.9127 6.9979 61.4441 6.9979Z" fill="#FBF659"/>
<path d="M72.556 4.97217C72.3654 4.97055 72.2507 4.93405 72.1343 4.87241C72.0336 4.81766 71.9291 4.73331 71.8134 4.60312C71.6106 4.37764 71.3905 4.00776 71.1599 3.56206C70.8073 2.89532 70.4382 2.06435 69.8088 1.32786C69.4932 0.961235 69.1018 0.620562 68.62 0.378851C68.1393 0.135923 67.5763 0.000871471 66.9621 0.00208814C66.4307 0.00208814 66 0.45631 66 1.01598C66 1.57605 66.4307 2.02987 66.9621 2.02987C67.2752 2.03068 67.5075 2.08503 67.7054 2.16898C67.8783 2.2432 68.0285 2.34336 68.176 2.47638C68.4329 2.70714 68.6764 3.05106 68.9135 3.47162C69.2749 4.10063 69.597 4.87971 70.101 5.59957C70.3556 5.95767 70.6679 6.30807 71.0831 6.57452C71.4958 6.8426 72.0111 7.0032 72.556 6.99995C73.0874 6.99995 73.5181 6.54613 73.5181 5.98606C73.5181 5.42599 73.0874 4.97217 72.556 4.97217Z" fill="#FBF659"/>
<path d="M83.5439 4.96997C83.353 4.96835 83.2383 4.93185 83.1221 4.8702C83.0214 4.81545 82.917 4.73109 82.8012 4.6009C82.5984 4.3754 82.3785 4.0055 82.1477 3.55977C81.7951 2.893 81.426 2.06238 80.7967 1.32544C80.4812 0.959201 80.0899 0.618509 79.608 0.376783C79.1273 0.133841 78.5643 -0.00120859 77.9501 8.15083e-06C77.4187 8.15083e-06 76.988 0.454248 76.988 1.01395C76.988 1.57405 77.4187 2.0279 77.9501 2.0279C78.2632 2.02871 78.4955 2.08306 78.6933 2.16702C78.8663 2.24124 79.0163 2.34141 79.1638 2.47444C79.4207 2.70522 79.6641 3.04915 79.9012 3.46973C80.2626 4.09879 80.5847 4.87791 81.0888 5.5974C81.3433 5.95553 81.6557 6.30595 82.0709 6.57242C82.4836 6.84051 82.9991 7.00112 83.5439 6.99787C84.0754 6.99787 84.506 6.54403 84.506 5.98392C84.506 5.42382 84.0754 4.96997 83.5439 4.96997Z" fill="#FBF659"/>
<path d="M72.456 6.99789C72.9301 6.99992 73.3827 6.88068 73.7636 6.67059C74.0979 6.48767 74.3747 6.24473 74.6048 5.98516C75.007 5.52766 75.2835 5.0215 75.5381 4.53683C75.9134 3.808 76.2476 3.12176 76.6265 2.69022C76.8152 2.47242 77.0043 2.31628 77.2205 2.20717C77.4376 2.09929 77.6902 2.02912 78.05 2.0279C78.5814 2.0279 79.012 1.57406 79.012 1.01395C79.012 0.454246 78.5814 5.18207e-06 78.05 5.18207e-06C77.5149 -0.00080598 77.0193 0.100584 76.5825 0.288368C76.1999 0.451817 75.8661 0.678535 75.5824 0.935674C75.0851 1.3879 74.7368 1.92002 74.4467 2.42984C74.0175 3.19639 73.6949 3.93414 73.3699 4.38311C73.21 4.60902 73.0619 4.75544 72.9295 4.8398C72.7944 4.92254 72.6747 4.96674 72.456 4.96999C71.9247 4.96999 71.494 5.42383 71.494 5.98394C71.494 6.54405 71.9247 6.99789 72.456 6.99789Z" fill="#FBF659"/>
<path d="M83.4441 6.9979C83.9182 6.99953 84.3708 6.88069 84.7517 6.67019C85.0862 6.48768 85.3629 6.24474 85.5926 5.98476C85.9951 5.52767 86.271 5.0211 86.5258 4.53643C86.901 3.808 87.2354 3.12135 87.6141 2.69022C87.8031 2.47242 87.992 2.31628 88.2079 2.20717C88.4253 2.09929 88.6778 2.02912 89.0376 2.0279V1.01679L88.9579 2.02466C88.9964 2.02791 89.0241 2.0279 89.0376 2.0279V1.01679L88.9579 2.02466C89.4875 2.0709 89.9527 1.65639 89.9966 1.09831C90.0409 0.54023 89.6476 0.0498818 89.118 0.00364543C89.0792 0.000400777 89.0515 1.53171e-06 89.0376 1.53171e-06C88.5027 -0.00040405 88.007 0.10058 87.5699 0.288365C87.1877 0.451409 86.8537 0.678533 86.5701 0.935672C86.0725 1.3879 85.7242 1.92002 85.4344 2.42984C85.0053 3.19598 84.6825 3.93414 84.3577 4.38271C84.1976 4.60903 84.0498 4.75544 83.917 4.8398C83.782 4.92254 83.6623 4.96675 83.4437 4.96999C82.9124 4.96999 82.4819 5.42425 82.4819 5.98435C82.4821 6.54406 82.9127 6.9979 83.4441 6.9979Z" fill="#FBF659"/>
</svg>
