<svg xmlns="http://www.w3.org/2000/svg" width="32" height="32" viewBox="0 0 32 32"><path d="M29.85 8.003c-2.136-3.7-5.585-6.346-9.711-7.452s-8.436-0.538-12.136 1.598c-3.7 2.136-6.346 5.585-7.452 9.711s-0.538 8.436 1.598 12.136c2.136 3.7 5.585 6.346 9.711 7.452 1.378 0.369 2.776 0.552 4.165 0.552 2.771 0 5.506-0.727 7.971-2.15 3.7-2.136 6.346-5.585 7.452-9.711s0.538-8.436-1.598-12.136zM29.839 19.708c-0.991 3.697-3.361 6.786-6.676 8.7s-7.175 2.422-10.872 1.431c-3.697-0.991-6.786-3.361-8.7-6.676s-2.422-7.175-1.431-10.872 3.361-6.786 6.676-8.7c2.208-1.275 4.658-1.926 7.141-1.926 1.244 0 2.497 0.164 3.731 0.494 3.697 0.99 6.786 3.361 8.7 6.676s2.422 7.175 1.431 10.872z"/><path d="M21.913 14.772l-8.402-4.83c-0.446-0.256-0.978-0.256-1.424-0s-0.712 0.715-0.712 1.228v9.66c0 0.513 0.266 0.972 0.712 1.228 0.223 0.128 0.467 0.192 0.712 0.192s0.489-0.064 0.712-0.192l8.402-4.83c0.446-0.256 0.712-0.715 0.712-1.228s-0.266-0.972-0.712-1.228z"/></svg>