<svg xmlns="http://www.w3.org/2000/svg" width="32" height="32" viewBox="0 0 32 32"><path d="M28.943 26.505l-3.173-3.174v-22.795c0-0.296-0.24-0.536-0.536-0.536h-16.086c-0.010 0-0.020 0.005-0.030 0.006-0.049 0.002-0.098 0.012-0.144 0.029-0.016 0.005-0.031 0.010-0.047 0.017-0.060 0.026-0.114 0.062-0.161 0.107l-6.434 6.434c-0.045 0.046-0.081 0.099-0.107 0.157-0.008 0.017-0.012 0.033-0.018 0.051-0.015 0.045-0.025 0.091-0.027 0.138 0 0.012-0.007 0.022-0.007 0.034v20.374c0 0.296 0.24 0.536 0.536 0.536h18.51l3.173 3.172c0.601 0.608 1.421 0.949 2.275 0.946 1.302 0.001 2.477-0.783 2.975-1.987s0.221-2.588-0.701-3.508h0.001zM24.397 29.544l-8.346-8.343 3.038-3.038 8.343 8.346-3.035 3.035zM15.598 20.138l-0.727-3.155 3.155 0.727-2.428 2.428zM8.612 1.831v4.604h-4.604l4.604-4.604zM3.25 26.81v-19.303h5.898c0.296 0 0.536-0.24 0.536-0.536v-5.898h15.013v21.186l-5.235-5.236c-0.044-0.042-0.095-0.076-0.151-0.101-0.015-0.007-0.030-0.011-0.044-0.017-0.019-0.008-0.038-0.016-0.058-0.022l-4.933-1.137c-0.18-0.042-0.369 0.012-0.5 0.143s-0.185 0.32-0.143 0.5l1.137 4.933c0.006 0.020 0.014 0.039 0.022 0.058 0.005 0.014 0.010 0.029 0.017 0.043 0.025 0.057 0.059 0.108 0.102 0.153l0.003 0.005 5.233 5.229h-16.896zM28.183 30.298c-0.401 0.402-0.946 0.629-1.514 0.629s-1.113-0.226-1.514-0.629l0.252-0.253 2.78-2.78c0.402 0.402 0.628 0.947 0.627 1.516s-0.228 1.114-0.632 1.514v0.003z"/><path d="M7.003 10.724h13.941c0.296 0 0.536-0.24 0.536-0.536s-0.24-0.536-0.536-0.536h-13.941c-0.296 0-0.536 0.24-0.536 0.536s0.24 0.536 0.536 0.536z"/><path d="M7.003 13.941h13.941c0.296 0 0.536-0.24 0.536-0.536s-0.24-0.536-0.536-0.536h-13.941c-0.296 0-0.536 0.24-0.536 0.536s0.24 0.536 0.536 0.536z"/><path d="M10.757 16.086h-3.753c-0.296 0-0.536 0.24-0.536 0.536s0.24 0.536 0.536 0.536h3.753c0.296 0 0.536-0.24 0.536-0.536s-0.24-0.536-0.536-0.536z"/></svg>